# Blender 5.1.2
# www.blender.org
mtllib AppleGardenLeaves.mtl
o Leaves.005
v -11.237140 36.015335 1.788390
v -11.521786 37.023880 2.130408
v -11.519331 35.756256 0.469410
v -11.968258 37.027241 0.466312
v -9.018697 35.683285 3.685128
v -9.557174 37.001423 4.021420
v -8.821447 34.509659 2.078101
v -10.055649 35.257858 2.782023
v -10.676684 37.022865 3.199139
v -9.259546 34.250992 0.417999
v -10.714852 34.977684 0.453426
v -6.413123 33.883770 10.578389
v -6.413872 34.454403 10.577304
v -6.797550 32.218048 9.215927
v -6.934773 33.406998 9.822495
v -6.875724 35.077904 9.645185
v -6.652248 36.102684 8.897269
v -6.465367 31.143324 6.599359
v -6.981481 31.738373 7.359192
v -7.485147 33.533695 7.320099
v -7.295937 35.173534 7.293424
v -6.711763 36.345421 7.232727
v -6.461400 31.140339 5.101038
v -7.155036 31.867809 5.099412
v -7.598433 33.636642 4.965504
v -7.416032 35.158348 4.328422
v -6.839895 36.724430 4.366979
v -6.390942 31.174753 2.767513
v -7.004031 31.995277 2.756997
v -7.609236 33.950703 2.721155
v -7.597227 34.902702 3.119890
v -6.700607 30.948290 0.495443
v -7.514942 31.919554 0.494797
v -8.086617 33.334080 0.450508
v -11.524683 38.696861 2.126006
v -11.248587 39.690956 1.771694
v -11.968258 38.698109 0.466312
v -11.523977 39.960114 0.464179
v -9.607605 38.693958 4.019111
v -9.278780 39.688625 3.736069
v -10.681871 38.692860 3.197953
v -10.222314 40.398613 2.706114
v -9.289577 41.176872 1.773772
v -10.698818 40.759926 0.453040
v -9.644966 41.386173 0.464179
v -7.856708 38.606052 4.493825
v -7.965044 39.944550 4.017889
v -7.968767 40.759865 3.183120
v -7.979985 41.386173 2.129160
v -7.982118 41.723358 0.466312
v -11.522478 35.760345 -1.732338
v -11.968258 37.027241 -1.735260
v -11.246340 36.030991 -3.044339
v -11.523571 37.028217 -3.398733
v -9.293576 34.252136 -1.645109
v -10.701554 34.964329 -1.708759
v -8.974483 34.469906 -2.989288
v -10.206631 35.323521 -3.986506
v -10.698388 37.036079 -4.451878
v -9.237469 35.981819 -4.997361
v -9.634166 37.023006 -5.277824
v -6.697866 30.946476 -1.740527
v -7.509732 31.906662 -1.735411
v -8.101381 33.370613 -1.653442
v -6.496875 31.085205 -3.216792
v -6.903767 31.862207 -3.916740
v -7.675896 33.853199 -3.635574
v -8.320050 34.961994 -4.336617
v -6.618172 32.366966 -5.096062
v -6.952924 33.595642 -5.275491
v -7.600903 35.411674 -5.059467
v -7.880652 36.991123 -5.729941
v -11.968258 38.698109 -1.735260
v -11.523977 39.960114 -1.733127
v -11.523977 38.696487 -3.398108
v -11.248196 39.690395 -3.042720
v -10.698818 40.759926 -1.721988
v -9.644966 41.386173 -1.733127
v -10.698818 38.688034 -4.451961
v -10.222324 40.398296 -3.975467
v -9.289577 41.176872 -3.042720
v -9.643210 38.695297 -5.278033
v -9.289568 39.690388 -5.001343
v -7.982118 41.723358 -1.735260
v -7.968833 40.759918 -4.451977
v -7.979985 41.386173 -3.398108
v -7.955631 38.681778 -5.734657
v -7.975832 39.956615 -5.279529
v -4.444470 31.170372 10.590335
v -5.135402 31.803795 11.263853
v -5.792521 33.403679 11.477672
v -5.681209 35.091087 11.368086
v -4.971557 36.233025 11.036704
v -5.027520 30.809475 9.628990
v -6.295866 31.684645 9.879226
v -6.368628 32.866707 10.491850
v -6.268332 35.489643 10.275209
v -5.718540 36.627655 9.696370
v -5.712306 30.683697 7.360675
v -6.332566 31.257109 8.010496
v -5.533196 37.207554 7.349845
v -5.575393 30.473410 5.109262
v -5.888900 37.051075 5.226195
v -5.407188 30.520935 2.756378
v -5.478508 30.139265 0.489491
v -2.361272 34.178734 12.596619
v -2.356235 34.314777 12.596619
v -3.361773 31.050482 10.776031
v -3.384976 31.810793 11.924752
v -3.185998 33.582157 12.596619
v -3.202249 34.998302 12.414741
v -3.360343 36.428890 11.317157
v -3.374422 30.463476 9.641385
v -3.396533 37.324337 9.444640
v -3.292018 30.142553 7.332263
v -4.059008 37.388184 8.179430
v -3.226659 30.055590 5.059079
v -2.532239 29.547123 1.971465
v -3.216360 29.824562 2.731919
v -2.965628 29.404831 0.479687
v -4.019296 29.591450 0.470312
v -2.267021 34.180164 12.596619
v -2.271128 34.313972 12.596619
v -1.192467 31.087482 10.706073
v -1.166923 31.822475 11.793585
v -1.395892 33.577118 12.555779
v -1.378536 35.005177 12.360852
v -1.197779 36.386642 11.259729
v -1.142156 30.530176 9.570560
v -1.243585 37.271492 9.429716
v -0.241580 29.391047 6.379483
v -1.032468 30.007673 7.101295
v -0.645402 37.331558 8.080028
v -0.499080 29.308487 5.080890
v -1.509979 29.903452 5.011351
v -1.046350 29.531639 2.760533
v -1.788753 29.710732 3.515930
v -1.066002 29.167198 0.498327
v -0.207435 31.205204 10.482277
v 0.377613 31.798698 11.150470
v 0.753738 33.507839 11.483350
v 0.624431 35.166042 11.354308
v 0.235137 36.189644 10.983747
v 0.675323 30.977596 9.163318
v 1.349998 31.836433 9.842474
v 1.691041 33.508064 10.125155
v 1.617136 35.146835 9.927500
v 1.049158 36.461918 9.404644
v 1.152038 29.280670 6.435097
v 1.113524 29.892464 7.569517
v 0.850457 36.924873 7.492851
v 1.178699 29.141769 5.109659
v 1.145936 29.538158 2.793769
v 1.157866 29.167198 0.507424
v 1.655661 31.211752 7.953491
v 1.802001 31.901087 8.395097
v 2.146617 33.497284 8.964798
v 2.017318 35.132038 8.673031
v 1.837863 35.870228 8.191875
v 2.221880 29.396561 6.220020
v 2.790178 30.185188 7.225885
v 3.354589 31.830101 6.880517
v 2.564023 33.529926 6.569289
v 2.565461 35.065384 6.568942
v 2.625407 36.406616 6.262866
v 2.386717 29.328579 5.059231
v 3.507405 30.245895 5.083926
v 3.790320 31.454544 5.501411
v 3.910911 37.296543 5.609499
v 2.498719 29.689804 2.744404
v 3.565042 29.876873 2.678971
v 3.022323 29.412350 0.498825
v 4.065599 29.597130 0.479907
v 4.172409 32.401436 5.761868
v 4.578455 33.516487 6.082721
v 4.630869 35.199032 6.070061
v 4.439840 36.276180 5.872690
v 4.891001 30.851501 4.345296
v 5.402050 31.825256 4.834353
v 5.770204 33.522961 5.216752
v 5.781464 35.208447 5.206587
v 5.372282 36.850948 5.057306
v 5.608077 30.626324 2.677821
v 6.380607 31.291786 3.343600
v 5.543248 30.172699 0.484409
v 6.684450 32.330967 3.894221
v 6.948993 33.526531 4.152529
v 6.943626 35.209480 4.157374
v 6.680137 36.869740 3.868472
v 6.560417 31.088261 1.949572
v 6.939754 31.830753 2.667505
v 7.636206 33.535576 2.678175
v 7.644802 35.205814 2.649170
v 7.127657 36.853966 2.650018
v 6.738192 30.963749 0.479147
v 7.502990 31.854759 0.482534
v 8.162317 33.535637 0.477223
v 8.162317 35.204376 0.469282
v 7.673586 36.854950 0.472151
v -4.797819 37.450287 6.494378
v -5.462630 37.875851 4.388669
v -5.744708 39.908188 4.015722
v -5.773348 40.753212 3.185399
v -5.772956 41.382820 2.135387
v -5.778802 41.723072 0.465995
v -2.677154 37.453350 8.516371
v -3.360008 37.621693 7.305106
v -3.377950 38.380123 4.718321
v -3.536985 39.227947 3.431661
v -3.554091 40.499290 2.587195
v -4.401761 41.158558 1.791593
v -2.993264 40.714447 0.419268
v -4.016687 41.365448 0.465175
v -2.005044 37.455254 8.502677
v -1.249758 37.583916 7.191205
v -1.133866 38.606094 4.909851
v -1.145370 39.373135 3.863786
v -1.243939 39.644909 2.532581
v -1.367063 39.964630 0.397311
v 0.911425 37.436485 6.139509
v 1.111803 38.590134 4.931620
v 1.146174 39.352570 3.891835
v 1.129072 39.617504 2.672257
v 1.118492 39.964630 0.473076
v 2.449580 37.572414 5.882458
v 3.245114 38.406952 4.723632
v 2.525304 39.239819 3.749698
v 3.920198 39.078617 3.238421
v 3.275892 39.324329 2.601657
v 3.375478 39.656925 0.475050
v 5.542594 37.989075 4.154227
v 5.373065 38.671810 2.631443
v 4.523362 39.249424 1.886204
v 5.776232 38.804890 0.478288
v 4.731918 39.416683 0.482554
v 6.498741 37.620991 3.665040
v 6.698129 37.784130 2.676784
v 6.974620 38.011562 0.479750
v -5.484668 30.143343 -1.743045
v -5.562677 30.630810 -3.925743
v -6.324094 31.292891 -4.608691
v -4.942817 30.826530 -5.390973
v -5.402779 31.950874 -6.014266
v -5.640130 33.537895 -6.460695
v -5.667672 35.254257 -6.435829
v -5.309610 36.826439 -6.250944
v -4.312232 32.702351 -6.980232
v -4.536169 33.527218 -7.228857
v -4.592801 35.219833 -7.215178
v -4.450497 36.214649 -7.029802
v -2.934223 29.399269 -1.735829
v -3.984436 29.585274 -1.723710
v -2.506793 29.545300 -3.125852
v -3.220956 29.819645 -3.841830
v -3.244539 30.620800 -5.717171
v -3.266753 31.558235 -6.808825
v -3.808428 37.289894 -6.773849
v -3.261117 32.380039 -7.110116
v -3.308301 33.530991 -7.525437
v -3.289254 35.207729 -7.530039
v -3.137084 36.783909 -7.130108
v -1.077152 29.167198 -1.744739
v -1.069395 29.439651 -3.431009
v -1.063480 29.642767 -4.466358
v -1.062243 30.452259 -5.949014
v -1.064793 31.212740 -6.986136
v -1.073382 31.967878 -7.378309
v -1.080267 33.530281 -7.932284
v -1.073831 35.208855 -7.932284
v -1.071804 36.876774 -7.483090
v 1.159556 29.167198 -1.744695
v 1.150307 29.436844 -3.416688
v 1.144473 29.640537 -4.454988
v 1.143084 30.451948 -5.948591
v 1.146016 31.215981 -6.990555
v 1.154676 31.974583 -7.380756
v 1.162073 33.529373 -7.932284
v 1.155175 35.209297 -7.932284
v 1.152835 36.878418 -7.482490
v 2.981541 29.405128 -1.734424
v 4.031212 29.591038 -1.722892
v 2.565208 29.549347 -3.104266
v 3.289031 29.827541 -3.830635
v 3.325716 30.627743 -5.707567
v 3.348249 31.576057 -6.798132
v 3.783846 37.217007 -6.810367
v 3.343094 32.398525 -7.100417
v 3.391760 33.530617 -7.508718
v 3.372498 35.207901 -7.513370
v 3.187783 36.762276 -7.128677
v 5.557497 30.182133 -1.741543
v 5.621282 30.650846 -3.885390
v 6.392677 31.317436 -4.559281
v 4.990721 30.838131 -5.376394
v 5.455239 31.977489 -5.991209
v 5.682823 33.524265 -6.435001
v 5.697855 35.211555 -6.421430
v 5.351017 36.789795 -6.242182
v 4.380931 32.715759 -6.972254
v 4.592885 33.525387 -7.218596
v 4.630507 35.212128 -7.209509
v 4.474169 36.184048 -7.039341
v 6.738725 30.964102 -1.741972
v 7.500669 31.849020 -1.746888
v 8.162317 33.533134 -1.741149
v 8.162317 35.205578 -1.731537
v 7.671679 36.859669 -1.734217
v 6.548163 31.095497 -3.155266
v 6.920906 31.854866 -3.898024
v 7.597118 33.532475 -3.949436
v 7.606105 35.207199 -3.919114
v 7.086510 36.860661 -3.918565
v 6.645040 32.386997 -5.093275
v 6.896676 33.528973 -5.339122
v 6.890299 35.209522 -5.344879
v 6.620908 36.868912 -5.061662
v -5.778812 41.723076 -1.734933
v -5.774506 40.753933 -4.453761
v -5.773286 41.382938 -3.404100
v -5.657333 38.567940 -5.709709
v -5.748424 39.933147 -5.276924
v -2.994661 40.716122 -1.685649
v -4.017633 41.365726 -1.733734
v -3.554138 40.496914 -3.859322
v -4.403748 41.159157 -3.059642
v -3.219994 38.283039 -6.035083
v -3.527719 39.298439 -4.662035
v -2.337621 37.662689 -7.013866
v -1.367893 39.964630 -1.657839
v -1.247167 39.620525 -3.796227
v -1.102636 38.541683 -6.137054
v -1.144348 39.348461 -5.036796
v -1.083861 37.744892 -7.166341
v 1.120687 39.964630 -1.737109
v 1.131190 39.592117 -3.941038
v 1.160074 38.534641 -6.146661
v 1.151618 39.317558 -5.078942
v 1.158508 37.739342 -7.168365
v 3.379924 39.656139 -1.737963
v 3.854053 39.074909 -4.459905
v 3.234530 39.313004 -3.838265
v 3.137001 38.385281 -5.923347
v 2.454396 39.223164 -4.975138
v 2.380116 37.641022 -7.014546
v 5.772392 38.807434 -1.741913
v 4.723474 39.418179 -1.746300
v 5.370659 38.650436 -3.870074
v 4.503641 39.237553 -3.099556
v 5.540214 37.954891 -5.342360
v 6.976038 38.010624 -1.742924
v 6.678441 37.767639 -3.943748
v 6.463236 37.598392 -4.890079
vn -0.9101 -0.3301 0.2506
vn -0.5318 -0.3844 0.7546
vn -0.7242 -0.3918 0.5675
vn -0.4174 -0.8782 0.2335
vn -0.6692 -0.6904 0.2748
vn -0.8600 0.0627 0.5065
vn -0.9541 -0.2392 0.1801
vn -0.9762 0.0855 0.1991
vn -0.9111 0.3871 0.1414
vn -0.7349 -0.6781 0.0103
vn -0.9660 -0.2544 0.0472
vn -0.9910 0.1260 0.0456
vn -0.9187 0.3898 0.0634
vn -0.2429 -0.1219 0.9624
vn -0.7626 -0.6442 -0.0584
vn -0.9604 -0.2730 -0.0556
vn -0.9949 0.0837 0.0567
vn -0.3428 -0.6721 0.6564
vn -0.2906 -0.8489 0.4415
vn -0.7699 -0.6122 0.1801
vn -0.9165 -0.3142 0.2478
vn -0.5620 -0.7699 0.3023
vn -0.9660 -0.0005 0.2587
vn -0.9100 0.3302 0.2506
vn -0.5996 -0.0091 0.8003
vn -0.7853 -0.0009 0.6192
vn -0.5518 0.3749 0.7450
vn -0.7400 0.3763 0.5574
vn -0.6848 0.6789 0.2648
vn -0.4804 0.8415 0.2470
vn -0.1869 -0.0899 0.9783
vn -0.2435 0.3208 0.9153
vn -0.2633 0.6768 0.6874
vn -0.2470 0.8415 0.4805
vn -0.2004 0.9590 0.2004
vn -0.9431 -0.3325 0.0004
vn -0.9101 -0.3302 -0.2506
vn -0.4491 -0.8935 0.0048
vn -0.6958 -0.7182 -0.0001
vn -0.4244 -0.8745 -0.2347
vn -0.6819 -0.6814 -0.2660
vn -0.7387 -0.3784 -0.5578
vn -0.5511 -0.3791 -0.7433
vn -0.7650 -0.6441 0.0008
vn -0.9271 -0.3747 -0.0000
vn -0.6053 -0.7960 -0.0001
vn -0.7681 -0.6130 -0.1853
vn -0.9073 -0.3308 -0.2596
vn -0.5481 -0.7853 -0.2880
vn -0.3910 -0.7869 -0.4773
vn -0.8910 -0.2954 -0.3447
vn -0.7598 -0.4182 -0.4978
vn -0.2599 -0.6788 -0.6868
vn -0.2043 -0.3801 -0.9021
vn -1.0000 -0.0000 -0.0000
vn -0.9433 0.3321 -0.0000
vn -0.9661 -0.0001 -0.2582
vn -0.9100 0.3302 -0.2506
vn -0.6960 0.7180 -0.0000
vn -0.5109 0.8597 -0.0000
vn -0.7873 -0.0001 -0.6166
vn -0.7401 0.3772 -0.5568
vn -0.6848 0.6789 -0.2649
vn -0.4805 0.8415 -0.2470
vn -0.6147 -0.0018 -0.7888
vn -0.5567 0.3769 -0.7403
vn -0.1987 0.9801 -0.0000
vn -0.2470 0.8415 -0.4805
vn -0.2004 0.9590 -0.2004
vn -0.2554 -0.0078 -0.9668
vn -0.2506 0.3302 -0.9100
vn -0.2644 0.6785 -0.6853
vn -0.7818 0.0687 0.6197
vn -0.3968 -0.7956 0.4577
vn -0.6996 -0.3659 0.6138
vn -0.8477 -0.3000 0.4375
vn -0.8202 -0.0840 0.5659
vn -0.7920 0.2710 0.5471
vn -0.6341 0.5622 0.5309
vn -0.7273 0.5286 0.4378
vn -0.5333 -0.8213 0.2028
vn -0.6345 -0.7634 0.1213
vn -0.7645 -0.6144 0.1949
vn -0.5863 0.7970 0.1451
vn -0.5742 -0.8183 0.0250
vn -0.5160 0.8521 0.0880
vn -0.5764 -0.8160 -0.0436
vn -0.5451 -0.8237 0.1561
vn -0.1957 -0.8144 0.5462
vn -0.3525 -0.2823 0.8922
vn -0.1016 0.1151 0.9882
vn -0.3913 0.0979 0.9150
vn -0.2769 0.5113 0.8136
vn -0.1815 -0.8756 0.4476
vn -0.2049 0.8900 0.4073
vn -0.2107 -0.9699 0.1224
vn -0.2496 0.9471 0.2018
vn -0.1960 -0.9790 0.0556
vn -0.2378 -0.9709 0.0290
vn -0.1898 -0.9688 0.1594
vn -0.3149 -0.9305 0.1871
vn -0.0000 -0.0000 1.0000
vn 0.0347 -0.8308 0.5555
vn 0.0403 -0.3761 0.9257
vn 0.0216 -0.0332 0.9992
vn 0.1479 0.1212 0.9815
vn 0.0261 0.2898 0.9567
vn 0.0275 0.6156 0.7876
vn 0.0354 -0.8922 0.4503
vn 0.0271 0.9011 0.4327
vn -0.0033 -0.9848 0.1737
vn -0.5112 -0.8449 0.1575
vn -0.0684 -0.9964 0.0501
vn -0.3782 -0.9227 0.0745
vn -0.1340 -0.9766 0.1680
vn -0.1109 -0.9869 0.1172
vn -0.1083 -0.9834 0.1458
vn 0.2154 -0.8133 0.5405
vn 0.3968 -0.2920 0.8702
vn 0.4431 0.1095 0.8898
vn 0.3043 0.5163 0.8006
vn 0.2648 -0.8847 0.3836
vn 0.4799 -0.7831 0.3955
vn 0.7850 -0.2682 0.5584
vn 0.8176 0.1065 0.5659
vn 0.7319 0.4832 0.4806
vn 0.2702 0.8915 0.3635
vn -0.1293 -0.8525 0.5064
vn 0.0717 -0.9241 0.3753
vn 0.3277 0.9258 0.1886
vn -0.0920 -0.9915 0.0918
vn -0.0390 -0.9911 -0.1276
vn -0.0001 -0.9872 0.1596
vn 0.7215 -0.6141 0.3198
vn 0.9105 -0.2722 0.3113
vn 0.9374 0.1077 0.3311
vn 0.8424 0.4509 0.2951
vn 0.2254 -0.8399 0.4938
vn 0.5179 -0.4283 0.7405
vn 0.5753 -0.2078 0.7911
vn 0.8901 0.0853 0.4476
vn 0.9762 0.0586 0.2090
vn 0.9279 0.1775 0.3280
vn 0.5973 0.7491 0.2865
vn 0.1418 -0.9855 0.0929
vn 0.6452 -0.7439 0.1740
vn 0.9056 -0.2770 0.3213
vn 0.1233 -0.9797 -0.1582
vn 0.4510 -0.8924 0.0177
vn 0.1237 -0.9802 0.1549
vn 0.1776 -0.9706 0.1626
vn 0.4827 0.0629 0.8735
vn 0.2348 -0.0000 0.9720
vn 0.2182 0.2102 0.9530
vn 0.4960 -0.4808 0.7230
vn 0.6368 -0.4325 0.6383
vn 0.5076 -0.3379 0.7926
vn 0.5940 -0.0058 0.8044
vn 0.5719 0.2267 0.7884
vn 0.3172 0.3877 0.8655
vn 0.3980 -0.8939 0.2061
vn 0.5188 -0.7252 0.4527
vn 0.3458 -0.9193 0.1878
vn 0.6392 -0.2969 0.7094
vn 0.6701 -0.0000 0.7423
vn 0.6526 0.2288 0.7223
vn 0.6592 -0.7272 0.1912
vn 0.7167 -0.4784 0.5074
vn 0.8737 -0.3232 0.3636
vn 0.9066 0.0022 0.4220
vn 0.8944 0.2437 0.3751
vn 0.5356 -0.8314 0.1477
vn 0.7692 -0.6151 0.1729
vn 0.9049 -0.3627 0.2228
vn 0.9728 0.0001 0.2317
vn 0.9316 0.2838 0.2273
vn -0.5133 0.8397 0.1773
vn -0.1908 0.2102 0.9589
vn 0.0641 0.2507 0.9659
vn 0.0069 0.7082 0.7060
vn 0.0010 0.8587 0.5126
vn 0.0005 0.9800 0.1992
vn -0.0797 0.9875 0.1359
vn -0.1836 0.9761 0.1165
vn -0.2655 0.9249 0.2720
vn 0.0717 0.5062 0.8594
vn 0.3222 0.5917 0.7389
vn 0.2384 0.8442 0.4801
vn 0.4928 0.8379 0.2346
vn 0.2002 0.9590 0.2005
vn 0.0195 0.9860 0.1658
vn 0.1318 0.9818 0.1367
vn 0.0182 0.9929 0.1174
vn -0.0467 0.9384 0.3423
vn -0.1415 0.8091 0.5704
vn 0.0769 0.8152 0.5741
vn 0.3756 0.9143 0.1518
vn 0.2558 0.9323 0.2557
vn 0.1554 0.8319 0.5328
vn -0.0000 0.8064 0.5913
vn 0.0027 0.9786 0.2058
vn -0.0012 0.9884 0.1521
vn 0.3637 0.6814 0.6352
vn 0.2519 0.5399 0.8031
vn 0.0936 0.7426 0.6632
vn 0.1260 0.7980 0.5893
vn 0.2448 0.8887 0.3877
vn 0.1233 0.9755 0.1822
vn 0.1359 0.9783 0.1565
vn 0.3514 0.6291 0.6934
vn 0.3211 0.8422 0.4332
vn 0.2849 0.9269 0.2442
vn 0.4810 0.8628 0.1556
vn 0.1594 0.9754 0.1520
vn 0.5825 0.4133 0.6999
vn 0.8910 0.3536 0.2848
vn 0.5042 0.8166 0.2811
vn 0.8654 0.4649 0.1870
vn 0.5459 0.8237 0.1535
vn -0.5520 -0.8338 -0.0000
vn -0.5377 -0.8278 -0.1598
vn -0.6647 -0.7225 -0.1903
vn -0.5139 -0.7068 -0.4861
vn -0.7213 -0.4401 -0.5348
vn -0.6438 -0.2884 -0.7088
vn -0.6208 -0.0654 -0.7812
vn -0.3928 -0.1305 -0.9103
vn -0.5156 -0.3269 -0.7921
vn -0.5791 -0.0051 -0.8152
vn -0.5648 0.2246 -0.7941
vn -0.1744 -0.9847 -0.0000
vn -0.3500 -0.9367 -0.0018
vn -0.1856 -0.9682 -0.1680
vn -0.3235 -0.9234 -0.2065
vn -0.2493 -0.9149 -0.3175
vn -0.3049 -0.6502 -0.6959
vn -0.3395 -0.4352 -0.8339
vn -0.2185 -0.3376 -0.9156
vn -0.2348 -0.0000 -0.9720
vn -0.2016 0.2393 -0.9498
vn -0.3364 0.4035 -0.8509
vn -0.1241 -0.9923 0.0007
vn -0.1150 -0.9820 -0.1498
vn -0.1307 -0.9687 -0.2112
vn -0.1551 -0.8911 -0.4264
vn -0.1482 -0.7740 -0.6156
vn -0.1603 -0.3976 -0.9034
vn -0.1729 -0.3344 -0.9264
vn -0.1791 -0.0000 -0.9838
vn -0.1734 0.2571 -0.9507
vn -0.0000 -1.0000 -0.0000
vn -0.0001 -0.9872 -0.1594
vn -0.0000 -0.9813 -0.1925
vn 0.0008 -0.8782 -0.4783
vn -0.0000 -0.8064 -0.5913
vn -0.0003 -0.4591 -0.8884
vn -0.0001 -0.3342 -0.9425
vn -0.0000 -0.0000 -1.0000
vn -0.0000 0.2601 -0.9656
vn 0.1299 -0.9915 0.0005
vn 0.1744 -0.9847 -0.0000
vn 0.1212 -0.9812 -0.1505
vn 0.1857 -0.9682 -0.1679
vn 0.1365 -0.9684 -0.2089
vn 0.1596 -0.8913 -0.4245
vn 0.1553 -0.7712 -0.6174
vn 0.1679 -0.3958 -0.9029
vn 0.1796 -0.3343 -0.9252
vn 0.1861 0.0001 -0.9825
vn 0.1797 0.2563 -0.9498
vn 0.3620 -0.9322 -0.0023
vn 0.3333 -0.9201 -0.2058
vn 0.2580 -0.9139 -0.3134
vn 0.5221 -0.7025 -0.4837
vn 0.3149 -0.6434 -0.6977
vn 0.3469 -0.4408 -0.8279
vn 0.5272 -0.3279 -0.7839
vn 0.2181 -0.3379 -0.9155
vn 0.5888 -0.0038 -0.8082
vn 0.2348 -0.0000 -0.9720
vn 0.5740 0.2213 -0.7884
vn 0.2002 0.2359 -0.9509
vn 0.3405 0.4146 -0.8439
vn 0.5520 -0.8338 -0.0000
vn 0.7583 -0.6519 0.0005
vn 0.9308 -0.3654 0.0002
vn 1.0000 -0.0000 -0.0000
vn 0.9588 0.2841 -0.0000
vn 0.5370 -0.8285 -0.1589
vn 0.7659 -0.6145 -0.1892
vn 0.6665 -0.7214 -0.1879
vn 0.9015 -0.3620 -0.2372
vn 0.9690 0.0003 -0.2472
vn 0.9280 0.2833 -0.2421
vn 0.7246 -0.4370 -0.5329
vn 0.8610 -0.3246 -0.3916
vn 0.6395 -0.2960 -0.7095
vn 0.8933 0.0026 -0.4494
vn 0.6701 -0.0000 -0.7423
vn 0.8813 0.2445 -0.4043
vn 0.6541 0.2275 -0.7214
vn 0.0001 1.0000 -0.0000
vn 0.0009 0.8587 -0.5124
vn 0.0005 0.9800 -0.1992
vn -0.0922 0.1427 -0.9855
vn 0.0155 0.3193 -0.9475
vn 0.0049 0.7129 -0.7013
vn 0.5364 0.8440 0.0001
vn 0.1989 0.9800 -0.0000
vn 0.4926 0.8379 -0.2351
vn 0.2386 0.8442 -0.4800
vn 0.2002 0.9590 -0.2005
vn -0.2087 0.4296 -0.8786
vn 0.1691 0.6135 -0.7714
vn 0.3201 0.5992 -0.7338
vn -0.2695 0.5582 -0.7847
vn 0.4190 0.9080 0.0001
vn 0.3807 0.9111 -0.1578
vn -0.1178 0.7915 -0.5997
vn 0.1045 0.8103 -0.5766
vn -0.1591 0.3045 -0.9391
vn -0.1252 0.7833 -0.6089
vn -0.0000 1.0000 -0.0000
vn -0.0017 0.9866 -0.1629
vn -0.0000 0.8064 -0.5913
vn 0.0034 0.9746 -0.2238
vn -0.0000 0.3428 -0.9394
vn 0.0006 0.7899 -0.6132
vn 0.1352 0.9908 -0.0000
vn 0.1354 0.9767 -0.1666
vn 0.2421 0.8822 -0.4038
vn 0.1185 0.7933 -0.5972
vn 0.1186 0.9735 -0.1956
vn 0.2856 0.5771 -0.7651
vn 0.1663 0.3073 -0.9370
vn 0.1327 0.7778 -0.6144
vn 0.5043 0.8635 -0.0006
vn 0.1744 0.9847 -0.0000
vn 0.4733 0.8647 -0.1684
vn 0.2838 0.9267 -0.2463
vn 0.1628 0.9728 -0.1647
vn 0.3390 0.6130 -0.7137
vn 0.3169 0.8336 -0.4524
vn 0.8558 0.5172 0.0003
vn 0.5520 0.8338 -0.0000
vn 0.8649 0.4606 -0.1995
vn 0.5450 0.8222 -0.1640
vn 0.8879 0.3351 -0.3151
vn 0.5805 0.3935 -0.7129
vn 0.5017 0.8115 -0.2996
vt 0.285093 0.974721
vt 0.281839 0.947342
vt 0.303440 0.940513
vt 0.316276 0.965349
vt 0.340428 0.941940
vt 0.300418 0.925279
vt 0.316016 0.929138
vt 0.280579 0.924562
vt 0.301191 0.905174
vt 0.718606 0.870144
vt 0.695038 0.855379
vt 0.686162 0.886291
vt 0.788651 0.785133
vt 0.809361 0.778586
vt 0.710856 0.889935
vt 0.729684 0.892256
vt 0.734400 0.877892
vt 0.766146 0.784494
vt 0.686687 0.915637
vt 0.711621 0.910609
vt 0.351740 0.880844
vt 0.471159 0.945466
vt 0.533423 0.855923
vt 0.449295 0.952377
vt 0.452589 0.980089
vt 0.045623 0.882310
vt 0.053557 0.862050
vt 0.064899 0.884686
vt 0.069726 0.869981
vt 0.068776 0.846058
vt 0.080096 0.872425
vt 0.077968 0.862168
vt 0.080346 0.885735
vt 0.089461 0.838136
vt 0.092365 0.856968
vt 0.093564 0.872176
vt 0.093895 0.885908
vt 0.254328 0.974721
vt 0.258364 0.946675
vt 0.223673 0.963466
vt 0.236551 0.938995
vt 0.260601 0.923785
vt 0.225267 0.926406
vt 0.240621 0.923499
vt 0.200341 0.939155
vt 0.425535 0.951703
vt 0.421450 0.980089
vt 0.403457 0.943929
vt 0.536360 0.944821
vt 0.241350 0.903607
vt 0.218437 0.904699
vt 0.191109 0.907869
vt 0.046407 0.903475
vt 0.064946 0.900451
vt 0.054281 0.923626
vt 0.070065 0.914657
vt 0.080222 0.899126
vt 0.080122 0.912364
vt 0.069673 0.938841
vt 0.077807 0.922767
vt 0.093812 0.898841
vt 0.093554 0.912553
vt 0.092386 0.927569
vt 0.089785 0.946519
vt 0.733472 0.854523
vt 0.718870 0.832017
vt 0.806463 0.763981
vt 0.821416 0.767681
vt 0.821666 0.802396
vt 0.744529 0.880279
vt 0.742450 0.870259
vt 0.787444 0.763294
vt 0.744773 0.893281
vt 0.768291 0.762549
vt 0.744653 0.906361
vt 0.468099 0.930047
vt 0.448020 0.929321
vt 0.828645 0.746831
vt 0.748846 0.820555
vt 0.753677 0.846784
vt 0.774573 0.846551
vt 0.756514 0.865180
vt 0.807204 0.744707
vt 0.757685 0.880035
vt 0.787580 0.743839
vt 0.769144 0.743224
vt 0.448164 0.908781
vt 0.829466 0.724421
vt 0.779577 0.820555
vt 0.771991 0.865300
vt 0.807500 0.725468
vt 0.770930 0.880204
vt 0.889888 0.808690
vt 0.884926 0.772399
vt 0.903356 0.774199
vt 0.902153 0.806256
vt 0.468881 0.909698
vt 0.822918 0.703611
vt 0.809205 0.832420
vt 0.794535 0.854203
vt 0.786412 0.870104
vt 0.808198 0.706397
vt 0.812101 0.691542
vt 0.831714 0.855332
vt 0.809721 0.869402
vt 0.794023 0.878173
vt 0.935376 0.825575
vt 0.934496 0.807127
vt 0.783945 0.893374
vt 0.770628 0.893587
vt 0.935029 0.775429
vt 0.469194 0.889386
vt 0.448809 0.889366
vt 0.993761 0.652987
vt 0.952852 0.820075
vt 0.950742 0.791628
vt 0.953294 0.677959
vt 0.618044 0.821065
vt 0.613035 0.847087
vt 0.951368 0.775544
vt 0.969708 0.774529
vt 0.485472 0.866310
vt 0.469931 0.869252
vt 0.449710 0.868963
vt 0.647700 0.832942
vt 0.633015 0.854745
vt 0.624885 0.870662
vt 0.474052 0.853568
vt 0.670231 0.855876
vt 0.648217 0.869959
vt 0.632504 0.878739
vt 0.451974 0.845794
vt 0.681632 0.885334
vt 0.655730 0.890069
vt 0.637430 0.892777
vt 0.110852 0.837898
vt 0.108208 0.857091
vt 0.107122 0.872348
vt 0.106813 0.886049
vt 0.758009 0.893449
vt 0.580881 0.870817
vt 0.131287 0.845730
vt 0.120611 0.872529
vt 0.135802 0.884627
vt 0.120446 0.885831
vt 0.596130 0.880603
vt 0.596454 0.894030
vt 0.610450 0.865853
vt 0.609388 0.880772
vt 0.609085 0.894168
vt 0.622576 0.880949
vt 0.622415 0.893955
vt 0.427799 0.928534
vt 0.407577 0.928245
vt 0.392036 0.931187
vt 0.558455 0.967185
vt 0.572771 0.945786
vt 0.580724 0.930069
vt 0.366807 0.944091
vt 0.428699 0.908131
vt 0.594979 0.934764
vt 0.408314 0.908111
vt 0.385123 0.909217
vt 0.587540 0.978820
vt 0.592436 0.953294
vt 0.429345 0.888716
vt 0.408627 0.887799
vt 0.385990 0.885557
vt 0.617734 0.978824
vt 0.613068 0.953160
vt 0.610373 0.934997
vt 0.429489 0.868176
vt 0.409409 0.867450
vt 0.393621 0.863544
vt 0.646980 0.967598
vt 0.633068 0.945724
vt 0.406349 0.852031
vt 0.368912 0.850587
vt 0.624394 0.930092
vt 0.428213 0.845120
vt 0.681672 0.915864
vt 0.655870 0.910872
vt 0.637255 0.908273
vt 0.669812 0.945314
vt 0.648203 0.930692
vt 0.632411 0.922598
vt 0.106686 0.898958
vt 0.106995 0.912447
vt 0.108130 0.927806
vt 0.110887 0.946383
vt 0.135623 0.900475
vt 0.120216 0.899256
vt 0.120292 0.912614
vt 0.131341 0.938777
vt 0.596374 0.906676
vt 0.596121 0.920083
vt 0.608961 0.906790
vt 0.609263 0.919979
vt 0.622191 0.907081
vt 0.622265 0.920142
s 0
usemtl Material
f 4/1/1 3/2/1 1/3/1 2/4/1
f 9/5/2 8/6/2 5/7/2 6/5/2
f 9/5/3 2/4/3 1/3/3 8/6/3
f 11/2/4 10/8/4 7/9/4 8/6/4
f 3/2/5 11/2/5 8/6/5 1/3/5
f 16/10/6 15/11/6 12/10/6 13/10/6
f 20/12/7 19/13/7 14/14/7 15/11/7
f 21/15/8 20/12/8 15/11/8 16/10/8
f 22/16/9 21/15/9 16/10/9 17/17/9
f 24/18/10 23/18/10 18/13/10 19/13/10
f 25/19/11 24/18/11 19/13/11 20/12/11
f 26/20/12 25/19/12 20/12/12 21/15/12
f 27/21/13 26/20/13 21/15/13 22/16/13
f 27/21/14 6/5/14 5/7/14 26/20/14
f 29/18/15 28/22/15 23/18/15 24/18/15
f 30/23/16 29/18/16 24/18/16 25/19/16
f 31/9/17 30/23/17 25/19/17 26/20/17
f 31/9/18 8/6/18 7/9/18 30/23/18
f 8/6/19 31/9/19 26/20/19 5/7/19
f 33/24/20 32/24/20 28/22/20 29/18/20
f 34/25/21 33/24/21 29/18/21 30/23/21
f 10/8/22 34/25/22 30/23/22 7/9/22
f 37/26/23 4/1/23 2/4/23 35/27/23
f 38/28/24 37/26/24 35/27/24 36/29/24
f 41/30/25 9/5/25 6/5/25 39/30/25
f 41/30/26 35/27/26 2/4/26 9/5/26
f 42/31/27 41/30/27 39/30/27 40/32/27
f 42/31/28 36/29/28 35/27/28 41/30/28
f 44/28/29 38/28/29 36/29/29 42/31/29
f 45/33/30 44/28/30 42/31/30 43/31/30
f 46/34/31 39/30/31 6/5/31 27/21/31
f 47/35/32 40/32/32 39/30/32 46/34/32
f 48/35/33 42/31/33 40/32/33 47/35/33
f 49/36/34 43/31/34 42/31/34 48/35/34
f 50/37/35 45/33/35 43/31/35 49/36/35
f 52/38/36 51/39/36 3/2/36 4/1/36
f 54/40/37 53/41/37 51/39/37 52/38/37
f 56/39/38 55/42/38 10/8/38 11/2/38
f 51/39/39 56/39/39 11/2/39 3/2/39
f 58/43/40 57/44/40 55/42/40 56/39/40
f 53/41/41 58/43/41 56/39/41 51/39/41
f 54/40/42 59/45/42 58/43/42 53/41/42
f 61/45/43 60/43/43 58/43/43 59/45/43
f 63/46/44 62/46/44 32/24/44 33/24/44
f 64/47/45 63/46/45 33/24/45 34/25/45
f 55/42/46 64/47/46 34/25/46 10/8/46
f 66/48/47 65/46/47 62/46/47 63/46/47
f 67/49/48 66/48/48 63/46/48 64/47/48
f 57/44/49 67/49/49 64/47/49 55/42/49
f 58/43/50 68/50/50 67/49/50 57/44/50
f 70/49/51 69/48/51 66/48/51 67/49/51
f 71/51/52 70/49/52 67/49/52 68/50/52
f 60/43/53 71/51/53 68/50/53 58/43/53
f 61/45/54 72/52/54 71/51/54 60/43/54
f 73/53/55 52/38/55 4/1/55 37/26/55
f 74/54/56 73/53/56 37/26/56 38/28/56
f 75/55/57 54/40/57 52/38/57 73/53/57
f 76/56/58 75/55/58 73/53/58 74/54/58
f 77/54/59 74/54/59 38/28/59 44/28/59
f 78/57/60 77/54/60 44/28/60 45/33/60
f 75/55/61 79/55/61 59/45/61 54/40/61
f 76/56/62 80/56/62 79/55/62 75/55/62
f 80/56/63 76/56/63 74/54/63 77/54/63
f 81/58/64 80/56/64 77/54/64 78/57/64
f 82/59/65 61/45/65 59/45/65 79/55/65
f 83/60/66 82/59/66 79/55/66 80/56/66
f 84/61/67 78/57/67 45/33/67 50/37/67
f 81/58/68 86/62/68 85/63/68 80/56/68
f 86/62/69 81/58/69 78/57/69 84/61/69
f 82/59/70 87/64/70 72/52/70 61/45/70
f 83/60/71 88/63/71 87/64/71 82/59/71
f 88/63/72 83/60/72 80/56/72 85/63/72
f 92/65/73 13/10/73 12/10/73 91/66/73
f 95/14/74 94/67/74 89/68/74 90/68/74
f 96/69/75 95/14/75 90/68/75 91/66/75
f 96/69/76 15/11/76 14/14/76 95/14/76
f 15/11/77 96/69/77 91/66/77 12/10/77
f 97/17/78 16/10/78 13/10/78 92/65/78
f 98/70/79 97/17/79 92/65/79 93/71/79
f 98/70/80 17/17/80 16/10/80 97/17/80
f 100/13/81 99/72/81 94/67/81 95/14/81
f 100/13/82 19/13/82 18/13/82 99/72/82
f 19/13/83 100/13/83 95/14/83 14/14/83
f 101/73/84 22/16/84 17/17/84 98/70/84
f 23/18/85 102/74/85 99/72/85 18/13/85
f 103/75/86 27/21/86 22/16/86 101/73/86
f 28/22/87 104/76/87 102/74/87 23/18/87
f 32/24/88 105/77/88 104/76/88 28/22/88
f 109/78/89 90/68/89 89/68/89 108/78/89
f 110/79/90 91/66/90 90/68/90 109/78/90
f 111/80/91 110/79/91 106/81/91 107/81/91
f 111/80/92 92/65/92 91/66/92 110/79/92
f 112/82/93 93/71/93 92/65/93 111/80/93
f 94/67/94 113/83/94 108/78/94 89/68/94
f 114/84/95 98/70/95 93/71/95 112/82/95
f 99/72/96 115/85/96 113/83/96 94/67/96
f 116/84/97 101/73/97 98/70/97 114/84/97
f 102/74/98 117/86/98 115/85/98 99/72/98
f 104/76/99 119/76/99 117/86/99 102/74/99
f 121/77/100 120/87/100 118/87/100 119/76/100
f 105/77/101 121/77/101 119/76/101 104/76/101
f 123/81/102 107/81/102 106/81/102 122/81/102
f 125/88/103 109/78/103 108/78/103 124/88/103
f 126/89/104 110/79/104 109/78/104 125/88/104
f 110/79/105 126/89/105 122/81/105 106/81/105
f 126/89/106 127/81/106 123/81/106 122/81/106
f 127/81/107 111/80/107 107/81/107 123/81/107
f 128/90/108 112/82/108 111/80/108 127/81/108
f 113/83/109 129/91/109 124/88/109 108/78/109
f 130/92/110 114/84/110 112/82/110 128/90/110
f 115/85/111 132/93/111 129/91/111 113/83/111
f 135/94/112 134/95/112 131/96/112 132/93/112
f 117/86/113 135/94/113 132/93/113 115/85/113
f 137/97/114 136/97/114 134/95/114 135/94/114
f 137/97/115 119/76/115 118/87/115 136/97/115
f 119/76/116 137/97/116 135/94/116 117/86/116
f 120/87/117 138/87/117 136/97/117 118/87/117
f 140/98/118 125/88/118 124/88/118 139/98/118
f 141/99/119 126/89/119 125/88/119 140/98/119
f 142/100/120 127/81/120 126/89/120 141/99/120
f 143/101/121 128/90/121 127/81/121 142/100/121
f 129/91/122 144/102/122 139/98/122 124/88/122
f 144/102/123 145/103/123 140/98/123 139/98/123
f 145/103/124 146/104/124 141/99/124 140/98/124
f 146/104/125 147/105/125 142/100/125 141/99/125
f 147/105/126 148/106/126 143/101/126 142/100/126
f 148/106/127 130/92/127 128/90/127 143/101/127
f 150/107/128 132/93/128 131/96/128 149/108/128
f 132/93/129 150/107/129 144/102/129 129/91/129
f 151/109/130 133/110/130 130/92/130 148/106/130
f 134/95/131 152/111/131 149/108/131 131/96/131
f 136/97/132 153/112/132 152/111/132 134/95/132
f 138/87/133 154/113/133 153/112/133 136/97/133
f 156/103/134 145/103/134 144/102/134 155/114/134
f 157/104/135 146/104/135 145/103/135 156/103/135
f 158/105/136 147/105/136 146/104/136 157/104/136
f 159/106/137 148/106/137 147/105/137 158/105/137
f 161/115/138 150/107/138 149/108/138 160/116/138
f 150/107/139 161/115/139 155/114/139 144/102/139
f 161/115/140 162/117/140 156/103/140 155/114/140
f 162/117/141 163/118/141 157/104/141 156/103/141
f 163/118/142 164/119/142 158/105/142 157/104/142
f 164/119/143 165/119/143 159/106/143 158/105/143
f 165/119/144 151/109/144 148/106/144 159/106/144
f 152/111/145 166/120/145 160/116/145 149/108/145
f 166/120/146 167/121/146 161/115/146 160/116/146
f 167/121/147 168/122/147 162/117/147 161/115/147
f 153/112/148 170/112/148 166/120/148 152/111/148
f 170/112/149 171/123/149 167/121/149 166/120/149
f 154/113/150 172/113/150 170/112/150 153/112/150
f 172/113/151 173/124/151 171/123/151 170/112/151
f 175/125/152 163/118/152 162/117/152 174/122/152
f 176/126/153 164/119/153 163/118/153 175/125/153
f 177/126/154 165/119/154 164/119/154 176/126/154
f 179/122/155 168/122/155 167/121/155 178/123/155
f 168/122/156 179/122/156 174/122/156 162/117/156
f 179/122/157 180/125/157 175/125/157 174/122/157
f 180/125/158 181/126/158 176/126/158 175/125/158
f 181/126/159 182/127/159 177/126/159 176/126/159
f 182/127/160 169/127/160 165/119/160 177/126/160
f 171/123/161 183/123/161 178/123/161 167/121/161
f 183/123/162 184/128/162 179/122/162 178/123/162
f 173/124/163 185/124/163 183/123/163 171/123/163
f 187/129/164 180/125/164 179/122/164 186/128/164
f 188/130/165 181/126/165 180/125/165 187/129/165
f 189/131/166 182/127/166 181/126/166 188/130/166
f 191/128/167 184/128/167 183/123/167 190/132/167
f 184/128/168 191/128/168 186/128/168 179/122/168
f 191/128/169 192/129/169 187/129/169 186/128/169
f 192/129/170 193/130/170 188/130/170 187/129/170
f 193/130/171 194/131/171 189/131/171 188/130/171
f 185/124/172 195/132/172 190/132/172 183/123/172
f 195/132/173 196/132/173 191/128/173 190/132/173
f 196/132/174 197/133/174 192/129/174 191/128/174
f 197/133/175 198/134/175 193/130/175 192/129/175
f 198/134/176 199/135/176 194/131/176 193/130/176
f 201/136/177 103/75/177 101/73/177 200/73/177
f 201/136/178 46/34/178 27/21/178 103/75/178
f 202/137/179 47/35/179 46/34/179 201/136/179
f 203/137/180 48/35/180 47/35/180 202/137/180
f 204/138/181 49/36/181 48/35/181 203/137/181
f 205/139/182 50/37/182 49/36/182 204/138/182
f 207/140/183 116/84/183 114/84/183 206/84/183
f 207/140/184 200/73/184 101/73/184 116/84/184
f 208/141/185 201/136/185 200/73/185 207/140/185
f 209/142/186 202/137/186 201/136/186 208/141/186
f 210/143/187 203/137/187 202/137/187 209/142/187
f 211/143/188 204/138/188 203/137/188 210/143/188
f 212/144/189 213/145/189 211/143/189 210/143/189
f 213/145/190 205/139/190 204/138/190 211/143/190
f 214/92/191 206/84/191 114/84/191 130/92/191
f 133/110/192 215/110/192 214/92/192 130/92/192
f 215/110/193 207/140/193 206/84/193 214/92/193
f 216/146/194 208/141/194 207/140/194 215/110/194
f 217/146/195 209/142/195 208/141/195 216/146/195
f 218/146/196 210/143/196 209/142/196 217/146/196
f 219/147/197 212/144/197 210/143/197 218/146/197
f 220/148/198 215/110/198 133/110/198 151/109/198
f 221/148/199 216/146/199 215/110/199 220/148/199
f 222/149/200 217/146/200 216/146/200 221/148/200
f 223/149/201 218/146/201 217/146/201 222/149/201
f 224/150/202 219/147/202 218/146/202 223/149/202
f 225/148/203 220/148/203 151/109/203 165/119/203
f 169/127/204 226/127/204 225/148/204 165/119/204
f 226/127/205 221/148/205 220/148/205 225/148/205
f 227/149/206 222/149/206 221/148/206 226/127/206
f 228/151/207 229/151/207 227/149/207 226/127/207
f 229/151/208 223/149/208 222/149/208 227/149/208
f 230/152/209 224/150/209 223/149/209 229/151/209
f 231/131/210 226/127/210 169/127/210 182/127/210
f 232/151/211 228/151/211 226/127/211 231/131/211
f 233/152/212 229/151/212 228/151/212 232/151/212
f 234/152/213 235/152/213 233/152/213 232/151/213
f 235/152/214 230/152/214 229/151/214 233/152/214
f 236/131/215 231/131/215 182/127/215 189/131/215
f 194/131/216 237/131/216 236/131/216 189/131/216
f 237/131/217 232/151/217 231/131/217 236/131/217
f 199/135/218 238/135/218 237/131/218 194/131/218
f 238/135/219 234/152/219 232/151/219 237/131/219
f 62/46/220 239/153/220 105/77/220 32/24/220
f 65/46/221 240/154/221 239/153/221 62/46/221
f 66/48/222 241/48/222 240/154/222 65/46/222
f 243/155/223 242/154/223 240/154/223 241/48/223
f 69/48/224 243/155/224 241/48/224 66/48/224
f 70/49/225 244/156/225 243/155/225 69/48/225
f 71/51/226 245/157/226 244/156/226 70/49/226
f 72/52/227 246/158/227 245/157/227 71/51/227
f 248/156/228 247/159/228 243/155/228 244/156/228
f 249/157/229 248/156/229 244/156/229 245/157/229
f 250/157/230 249/157/230 245/157/230 246/158/230
f 252/153/231 251/160/231 120/87/231 121/77/231
f 239/153/232 252/153/232 121/77/232 105/77/232
f 254/154/233 253/160/233 251/160/233 252/153/233
f 240/154/234 254/154/234 252/153/234 239/153/234
f 242/154/235 255/154/235 254/154/235 240/154/235
f 243/155/236 256/155/236 255/154/236 242/154/236
f 247/159/237 258/155/237 256/155/237 243/155/237
f 248/156/238 259/156/238 258/155/238 247/159/238
f 249/157/239 260/157/239 259/156/239 248/156/239
f 250/157/240 261/161/240 260/157/240 249/157/240
f 261/161/241 250/157/241 246/158/241 257/158/241
f 251/160/242 262/160/242 138/87/242 120/87/242
f 253/160/243 263/160/243 262/160/243 251/160/243
f 254/154/244 264/162/244 263/160/244 253/160/244
f 255/154/245 265/162/245 264/162/245 254/154/245
f 256/155/246 266/163/246 265/162/246 255/154/246
f 258/155/247 267/163/247 266/163/247 256/155/247
f 259/156/248 268/164/248 267/163/248 258/155/248
f 260/157/249 269/165/249 268/164/249 259/156/249
f 261/161/250 270/161/250 269/165/250 260/157/250
f 262/160/251 271/166/251 154/113/251 138/87/251
f 263/160/252 272/166/252 271/166/252 262/160/252
f 264/162/253 273/167/253 272/166/253 263/160/253
f 265/162/254 274/167/254 273/167/254 264/162/254
f 266/163/255 275/168/255 274/167/255 265/162/255
f 267/163/256 276/168/256 275/168/256 266/163/256
f 268/164/257 277/169/257 276/168/257 267/163/257
f 269/165/258 278/170/258 277/169/258 268/164/258
f 270/161/259 279/171/259 278/170/259 269/165/259
f 271/166/260 280/166/260 172/113/260 154/113/260
f 280/166/261 281/172/261 173/124/261 172/113/261
f 272/166/262 282/166/262 280/166/262 271/166/262
f 282/166/263 283/173/263 281/172/263 280/166/263
f 273/167/264 283/173/264 282/166/264 272/166/264
f 274/167/265 284/173/265 283/173/265 273/167/265
f 275/168/266 285/174/266 284/173/266 274/167/266
f 276/168/267 287/174/267 285/174/267 275/168/267
f 277/169/268 288/175/268 287/174/268 276/168/268
f 278/170/269 289/176/269 288/175/269 277/169/269
f 279/171/270 290/171/270 289/176/270 278/170/270
f 281/172/271 291/172/271 185/124/271 173/124/271
f 283/173/272 292/173/272 291/172/272 281/172/272
f 284/173/273 294/173/273 292/173/273 283/173/273
f 294/173/274 295/174/274 293/177/274 292/173/274
f 285/174/275 295/174/275 294/173/275 284/173/275
f 287/174/276 299/178/276 295/174/276 285/174/276
f 299/178/277 300/175/277 296/175/277 295/174/277
f 288/175/278 300/175/278 299/178/278 287/174/278
f 300/175/279 301/176/279 297/176/279 296/175/279
f 289/176/280 301/176/280 300/175/280 288/175/280
f 301/176/281 302/176/281 298/179/281 297/176/281
f 290/171/282 302/176/282 301/176/282 289/176/282
f 302/176/283 290/171/283 286/179/283 298/179/283
f 291/172/284 303/180/284 195/132/284 185/124/284
f 303/180/285 304/180/285 196/132/285 195/132/285
f 304/180/286 305/181/286 197/133/286 196/132/286
f 305/181/287 306/182/287 198/134/287 197/133/287
f 306/182/288 307/183/288 199/135/288 198/134/288
f 292/173/289 308/180/289 303/180/289 291/172/289
f 308/180/290 309/177/290 304/180/290 303/180/290
f 293/177/291 309/177/291 308/180/291 292/173/291
f 309/177/292 310/184/292 305/181/292 304/180/292
f 310/184/293 311/185/293 306/182/293 305/181/293
f 311/185/294 312/186/294 307/183/294 306/182/294
f 295/174/295 313/177/295 309/177/295 293/177/295
f 313/177/296 314/184/296 310/184/296 309/177/296
f 296/175/297 314/184/297 313/177/297 295/174/297
f 314/184/298 315/185/298 311/185/298 310/184/298
f 297/176/299 315/185/299 314/184/299 296/175/299
f 315/185/300 316/186/300 312/186/300 311/185/300
f 298/179/301 316/186/301 315/185/301 297/176/301
f 317/187/302 84/61/302 50/37/302 205/139/302
f 86/62/303 319/188/303 318/189/303 85/63/303
f 319/188/304 86/62/304 84/61/304 317/187/304
f 87/64/305 320/190/305 246/158/305 72/52/305
f 88/63/306 321/189/306 320/190/306 87/64/306
f 321/189/307 88/63/307 85/63/307 318/189/307
f 322/191/308 323/192/308 213/145/308 212/144/308
f 323/192/309 317/187/309 205/139/309 213/145/309
f 324/193/310 325/193/310 323/192/310 322/191/310
f 319/188/311 325/193/311 324/193/311 318/189/311
f 325/193/312 319/188/312 317/187/312 323/192/312
f 320/190/313 326/158/313 257/158/313 246/158/313
f 321/189/314 327/194/314 326/158/314 320/190/314
f 327/194/315 321/189/315 318/189/315 324/193/315
f 328/161/316 261/161/316 257/158/316 326/158/316
f 329/195/317 322/191/317 212/144/317 219/147/317
f 330/196/318 324/193/318 322/191/318 329/195/318
f 327/194/319 332/196/319 331/161/319 326/158/319
f 332/196/320 327/194/320 324/193/320 330/196/320
f 328/161/321 333/161/321 270/161/321 261/161/321
f 333/161/322 328/161/322 326/158/322 331/161/322
f 334/197/323 329/195/323 219/147/323 224/150/323
f 335/198/324 330/196/324 329/195/324 334/197/324
f 332/196/325 337/198/325 336/171/325 331/161/325
f 337/198/326 332/196/326 330/196/326 335/198/326
f 333/161/327 338/171/327 279/171/327 270/161/327
f 338/171/328 333/161/328 331/161/328 336/171/328
f 339/199/329 334/197/329 224/150/329 230/152/329
f 341/200/330 335/198/330 334/197/330 339/199/330
f 342/179/331 343/198/331 341/200/331 340/200/331
f 337/198/332 343/198/332 342/179/332 336/171/332
f 343/198/333 337/198/333 335/198/333 341/200/333
f 290/171/334 344/171/334 342/179/334 286/179/334
f 338/171/335 344/171/335 290/171/335 279/171/335
f 344/171/336 338/171/336 336/171/336 342/179/336
f 345/199/337 346/199/337 235/152/337 234/152/337
f 346/199/338 339/199/338 230/152/338 235/152/338
f 347/200/339 348/199/339 346/199/339 345/199/339
f 341/200/340 348/199/340 347/200/340 340/200/340
f 348/199/341 341/200/341 339/199/341 346/199/341
f 342/179/342 349/186/342 298/179/342 286/179/342
f 349/186/343 342/179/343 340/200/343 347/200/343
f 307/183/344 350/183/344 238/135/344 199/135/344
f 350/183/345 345/199/345 234/152/345 238/135/345
f 312/186/346 351/186/346 350/183/346 307/183/346
f 351/186/347 347/200/347 345/199/347 350/183/347
f 316/186/348 352/186/348 351/186/348 312/186/348
f 349/186/349 352/186/349 316/186/349 298/179/349
f 352/186/350 349/186/350 347/200/350 351/186/350
