# Blender 5.1.2
# www.blender.org
mtllib AppleGardenFloor.mtl
o Ground
v 1.763743 3.349234 -36.402309
v -5.320926 3.199577 -35.704361
v -12.133414 3.145729 -33.637783
v -18.411850 3.145354 -30.281883
v -23.914948 3.145354 -25.765610
v -28.431820 3.226099 -20.262598
v -31.790329 3.785978 -13.985172
v -33.856773 3.606999 -7.173326
v -34.555317 3.359522 -0.087493
v -33.862770 4.158446 6.999768
v -31.793900 4.500426 13.813504
v -28.450905 4.298818 20.104776
v -23.972317 5.099565 25.645071
v -18.538946 5.068012 30.261801
v -12.156287 4.162906 33.515999
v -5.324270 3.995928 35.572945
v 1.764757 4.765028 36.279369
v 8.860678 4.793654 35.612259
v 15.663185 5.405814 33.580818
v 22.055590 6.738204 30.444616
v 27.898230 6.911324 25.882139
v 32.179420 6.627473 20.156673
v 35.348984 4.435122 13.821833
v 37.403934 3.846814 7.001613
v 38.096561 3.977729 -0.085210
v 37.416279 4.782391 -7.175951
v 35.361950 4.219366 -14.004920
v 31.978571 4.081340 -20.284908
v 27.455900 3.964212 -25.783585
v 21.948687 4.048420 -30.295210
v 15.661701 3.727934 -33.639694
v 8.848526 3.298259 -35.704742
v -18.799992 7.979167 -7.333549
v 15.667422 5.735503 -7.173952
v -23.942169 6.745939 -7.243179
v 21.939831 4.415692 -7.171843
v -28.466694 6.593131 -7.186677
v 27.559072 5.635885 -7.208726
v -31.802227 4.911305 -7.178721
v 32.142838 6.566785 -7.206558
v -5.697858 10.240765 -7.164982
v 35.406231 5.831828 -7.184143
v 1.702478 9.999706 -7.156539
v -12.875604 9.691885 -7.183773
v 8.930065 8.372993 -7.209486
v 15.661129 6.776607 6.997963
v 21.939568 4.908535 6.997963
v -23.881685 6.775009 7.120561
v -28.428507 6.488756 7.048720
v 27.445868 3.818019 6.998496
v -31.809505 5.305973 7.008967
v 8.848598 7.660276 6.997978
v -5.371262 7.684850 6.999976
v -18.843557 9.041096 7.042710
v 35.359524 4.510643 7.005367
v 32.007355 4.622683 7.006232
v 1.757339 8.417992 7.001371
v -12.430661 9.740501 7.031640
v 21.939568 5.445547 13.810465
v 15.661129 6.363618 13.810465
v -18.903631 8.007465 13.895024
v -24.041965 6.853115 13.823912
v -28.446358 5.559138 13.815182
v 27.488031 4.396305 13.824065
v 32.025936 5.451843 13.832879
v -5.321338 6.096626 13.810893
v 1.763859 7.415126 13.810465
v 8.848625 7.715113 13.810465
v -12.297474 7.219228 13.905703
v 22.041361 5.542738 20.148596
v -24.018463 5.886615 20.143682
v 27.911341 7.388829 20.242554
v -18.775423 6.613395 20.212650
v 8.848625 6.160527 20.088911
v -5.364746 5.340883 20.137352
v 15.661129 4.093339 20.088907
v 1.763859 7.178581 20.088907
v -12.417770 7.239226 20.326626
v 15.676509 4.472660 25.696075
v -5.401776 5.903952 25.859209
v -18.750135 7.315939 25.917988
v 22.193289 7.868989 25.953953
v 1.743131 5.554427 25.876343
v 8.877981 5.468101 25.725359
v -12.393616 6.575623 25.915325
v 15.678196 6.184646 30.314560
v -5.367331 5.283895 30.313583
v 1.755563 5.568096 30.401045
v -12.208198 4.850734 30.230862
v 8.901880 6.556129 30.387491
v 1.765459 5.507674 33.578392
v -5.328121 4.533801 33.536240
v 8.878063 5.863000 33.641422
v -5.871502 11.835383 -0.101979
v 32.033207 4.703804 -0.082272
v 21.939568 4.132539 -0.086804
v -23.596352 8.546757 -0.162853
v -28.433367 7.660888 -0.097841
v -18.613787 8.248161 -0.343006
v 27.452759 3.944861 -0.086216
v 8.844166 7.454386 -0.084709
v 1.591126 12.226488 -0.025495
v -31.821739 5.192747 -0.090122
v -12.939562 9.897871 -0.279180
v 35.372715 4.815932 -0.082543
v 15.661129 6.167589 -0.086804
v -23.996937 4.637867 -14.025755
v -18.616796 5.552837 -14.091806
v 1.774398 7.730672 -14.003941
v 22.006962 4.544666 -14.046475
v -28.444515 4.788056 -13.987478
v -12.256865 6.375874 -14.147893
v 27.616325 6.764624 -14.131536
v 32.096481 6.091674 -14.064099
v 15.705273 6.037572 -14.029707
v -5.349561 6.926122 -14.016777
v 8.993237 7.475775 -14.283315
v 27.526011 5.959964 -20.356054
v -23.915344 3.193131 -20.262568
v 22.092154 5.605921 -20.407982
v 15.713991 4.773287 -20.349636
v 1.723958 5.297125 -20.386303
v -18.416378 3.180020 -20.265099
v -5.431931 6.147933 -20.699619
v -12.253247 4.862032 -20.605328
v 8.895898 5.870936 -20.540752
v 22.001675 5.111696 -25.840292
v -18.411850 3.145354 -25.765612
v -5.386141 6.971756 -25.987242
v 15.697367 4.632792 -25.839705
v -12.148014 3.601808 -25.816921
v 1.686869 6.905182 -25.995708
v 8.841112 4.249876 -25.825104
v 15.672888 4.546576 -30.311302
v -12.134722 3.328337 -30.284641
v 1.749016 6.306503 -30.322308
v -5.329934 5.653618 -30.300989
v 8.847200 4.462080 -30.293453
v 1.762684 4.684955 -33.640087
v -5.321918 3.823925 -33.639866
v 8.848266 3.756955 -33.639381
v -1.778592 3.274406 -36.053333
v -8.727170 3.172653 -34.671074
v -15.272633 3.145542 -31.959833
v -21.163399 3.145354 -28.023746
v -26.173384 3.185726 -23.014103
v -30.111074 3.506038 -17.123884
v -32.823551 3.696488 -10.579249
v -34.206047 3.483260 -3.630409
v -34.209045 3.758984 3.456138
v -32.828335 4.329436 10.406636
v -30.122402 4.399622 16.959141
v -26.211611 4.699191 22.874924
v -21.255630 5.083789 27.953434
v -15.347616 4.615459 31.888901
v -8.740279 4.079417 34.544476
v -1.779756 4.380478 35.926159
v 5.312717 4.779342 35.945812
v 12.261930 5.099734 34.596539
v 18.859386 6.072009 32.012718
v 24.976910 6.824763 28.163378
v 30.038826 6.769398 23.019407
v 33.764206 5.531298 16.989252
v 36.376461 4.140968 10.411722
v 37.750252 3.912271 3.458201
v 37.756420 4.380060 -3.630580
v 36.389114 4.500878 -10.590436
v 33.670265 4.150352 -17.144915
v 29.717237 4.022776 -23.034248
v 24.702293 4.006316 -28.039398
v 18.805193 3.888177 -31.967451
v 12.255114 3.513097 -34.672218
v 5.306135 3.323747 -36.053528
v -5.326196 4.264864 34.554592
v 1.765108 5.136351 34.928879
v 8.848396 3.527607 -34.672062
v 15.670691 5.795230 31.947689
v 21.975182 4.580059 -28.067749
v 27.904785 7.150076 23.062346
v 32.037525 5.086507 -17.174503
v 35.354256 4.472883 10.413599
v -12.182242 4.506820 31.873428
v -18.411850 3.145354 -28.023746
v -23.995390 5.493090 22.894377
v -28.438168 4.007078 -17.125038
v -31.801704 4.903199 10.411235
v -18.706888 8.113665 -3.838278
v 15.686348 5.886538 -10.601830
v -23.969551 5.691903 -10.634467
v 21.939699 4.274116 -3.629323
v -28.450029 7.127009 -3.642259
v 27.587700 6.200254 -10.670132
v -31.796280 4.348641 -10.581946
v 32.088020 5.635294 -3.644415
v -5.523709 8.583443 -10.590879
v 35.384090 5.025597 -10.594531
v 1.738438 8.865189 -10.580240
v -12.566234 8.033878 -10.665833
v 8.887115 7.913690 -3.647098
v -15.837799 8.835526 -7.258661
v -26.204432 6.669535 -7.214928
v -21.371080 7.362553 -7.288364
v 18.803627 5.075598 -7.172897
v 5.316272 9.186350 -7.183013
v -30.134460 5.752218 -7.182699
v 12.298744 7.054248 -7.191719
v -32.829498 4.259152 -7.176023
v 24.749453 5.025789 -7.190284
v 29.850954 6.101335 -7.207642
v 33.774532 6.199306 -7.195350
v 36.411255 5.307109 -7.180047
v -9.286731 9.966325 -7.174377
v -1.997690 10.120235 -7.160761
v 15.661129 6.472098 3.455579
v 21.939568 5.177041 10.404214
v -23.739017 7.660883 3.478854
v -28.437433 6.023947 10.431951
v 27.449314 3.881440 3.456140
v -31.815624 5.249360 3.459422
v 8.848612 7.687695 10.404222
v -5.621382 9.760117 3.448998
v -18.873596 8.524281 10.468867
v 35.366119 4.663288 3.461412
v 32.016647 5.037263 10.419556
v 1.674233 10.322239 3.487938
v -12.685111 9.819186 3.376230
v -1.806961 8.051420 7.000673
v -21.362621 7.908053 7.081635
v 12.254863 7.218441 6.997971
v -26.155098 6.631883 7.084641
v -30.119005 5.897364 7.028843
v 24.692717 4.363277 6.998229
v -32.836140 4.732209 7.004367
v 29.726614 4.220351 7.002364
v 33.683441 4.566663 7.005800
v 36.381729 4.178729 7.003490
v 5.302968 8.039133 6.999675
v -8.900961 8.712675 7.015808
v 18.800348 5.842571 6.997963
v -15.637110 9.390799 7.037175
v 21.990463 5.494143 16.979530
v 15.661129 6.570113 10.404214
v -18.839527 7.310431 17.053839
v -23.961826 6.814062 10.472236
v -28.448631 4.928978 16.959980
v 27.466949 4.107162 10.411280
v 32.102680 6.039658 16.994778
v -5.346300 6.890738 10.405434
v 1.760599 7.916559 10.405917
v 8.848625 6.937819 16.949688
v -12.364067 8.479865 10.468671
v -15.600554 7.613347 13.900364
v -21.472797 7.430290 13.859468
v 5.306242 7.565119 13.810465
v -26.244162 6.206127 13.819547
v -8.809405 6.657927 13.858297
v -30.120131 5.029782 13.814343
v 18.800348 5.904583 13.810465
v 12.254877 7.039366 13.810465
v -1.778740 6.755877 13.810678
v 24.713799 4.920926 13.817266
v 29.756985 4.924074 13.828472
v 33.687462 4.943483 13.827355
v 22.117325 6.705863 23.051275
v -24.030214 6.369865 16.983797
v 27.699686 5.892567 17.033310
v -18.762779 6.964667 23.065319
v 8.863303 5.814314 22.907135
v -5.343042 5.718755 16.974123
v 15.661129 5.228478 16.949686
v 1.763859 7.296854 16.949686
v -12.357621 7.229227 17.116165
v -1.800444 6.259732 20.113131
v -8.891258 6.290054 20.231989
v -21.396944 6.250005 20.178165
v -26.234684 5.092716 20.124229
v 18.851244 4.818038 20.118752
v 12.254877 5.126933 20.088909
v 24.976351 6.465783 20.195574
v 30.045382 7.008151 20.199614
v 5.306242 6.669554 20.088909
v -15.596598 6.926311 20.269638
v 15.668819 4.283000 22.892492
v -5.383262 5.622417 22.998280
v -18.644541 6.191976 28.089893
v 22.124439 7.303596 28.199286
v 1.753495 6.366504 22.982624
v 8.889931 6.012115 28.056425
v -12.405693 6.907424 23.120975
v -15.571875 6.945781 25.916655
v -8.897696 6.239787 25.887266
v 25.045757 7.390156 25.918045
v -21.361227 6.207752 25.781530
v 5.310556 5.511264 25.800850
v 18.934898 6.170825 25.825014
v -1.829322 5.729189 25.867775
v 12.277246 4.970381 25.710718
v 15.677353 5.328653 28.005318
v -5.384554 5.593924 28.086397
v 1.749347 5.561262 28.138693
v -12.300906 5.713179 28.073093
v 8.889971 6.209564 32.014458
v -1.805884 5.425996 30.357313
v 18.866892 6.461425 30.379589
v -8.787765 5.067315 30.272221
v 12.290037 6.370388 30.351023
v 5.328721 6.062113 30.394268
v -15.373573 4.959373 30.246332
v 1.760511 5.537886 31.989719
v -5.347726 4.908848 31.924911
v 8.869370 5.328327 34.626839
v -1.781331 5.020738 33.557316
v 5.321761 5.685337 33.609905
v -8.742204 4.348353 33.526119
v 12.270624 5.634407 33.611122
v -5.784680 11.038074 -3.633481
v 32.020279 4.663243 3.461980
v 21.939568 4.520537 3.455579
v -23.769262 7.646348 -3.703016
v -28.430937 7.074821 3.475440
v -18.728672 8.644629 3.349852
v 27.505917 4.790373 -3.647471
v 8.846382 7.557331 3.456635
v 1.646802 11.113098 -3.591017
v -31.811981 5.052026 -3.634422
v -12.907582 9.794878 -3.731476
v 35.389473 5.323880 -3.633343
v 15.664275 5.951546 -3.630378
v 24.696163 4.038700 -0.086510
v -2.140188 12.030936 -0.063737
v 12.252647 6.810988 -0.085757
v -26.014858 8.103822 -0.130347
v -30.127554 6.426818 -0.093981
v 29.742983 4.324333 -0.084244
v -15.776676 9.073016 -0.311093
v 33.702965 4.759869 -0.082407
v -33.188530 4.276134 -0.088807
v 36.734638 4.396831 -0.083876
v 5.217646 9.840437 -0.055102
v -9.405532 10.866627 -0.190579
v 18.800348 5.150064 -0.086804
v -21.105070 8.397459 -0.252930
v -23.956141 3.915499 -17.144161
v -18.708393 6.766002 -10.712678
v 1.749178 6.513898 -17.195120
v 21.973396 4.480179 -10.609159
v -28.455603 5.690594 -10.587078
v -12.255055 5.618953 -17.376608
v 27.571167 6.362294 -17.243795
v 32.119659 6.329229 -10.635328
v 15.709632 5.405430 -17.189671
v -5.390746 6.537027 -17.358198
v 8.961651 7.924384 -10.746401
v -30.117420 4.287017 -13.986326
v 5.383817 7.603223 -14.143627
v 12.349255 6.756673 -14.156511
v 18.856117 5.291120 -14.038091
v -15.436831 5.964355 -14.119850
v 24.811644 5.654645 -14.089005
v -26.220726 4.712962 -14.006617
v -21.306866 5.095352 -14.058781
v 33.729218 5.155520 -14.034510
v 29.856401 6.428149 -14.097817
v -8.803212 6.650998 -14.082335
v -1.787581 7.328397 -14.010359
v 27.490957 4.962088 -23.069820
v -23.915148 3.169243 -23.014088
v 22.049559 5.075294 -17.227226
v 15.705680 4.703039 -23.094669
v 1.705414 6.101154 -23.191004
v -18.516588 4.366428 -17.178453
v -5.409035 6.559844 -23.343428
v -12.200631 4.231920 -23.211124
v 8.944567 6.673355 -17.412033
v -26.173584 3.209615 -20.262583
v 5.309928 5.584031 -20.463528
v -21.165861 3.186576 -20.263834
v 12.304945 5.322111 -20.445194
v 18.903072 5.189604 -20.378809
v 24.809082 5.782943 -20.382017
v 29.752291 5.020652 -20.320482
v -1.853986 5.722529 -20.542961
v -8.842588 5.504982 -20.652473
v -15.334812 4.021026 -20.435213
v 22.046913 5.358809 -23.124136
v -18.414114 3.162687 -23.015356
v -5.358037 6.312687 -28.144114
v 15.685127 4.589684 -28.075502
v -12.141368 3.465073 -28.050783
v 1.717942 6.605843 -28.159010
v 8.868505 5.060406 -23.182928
v -21.163399 3.145354 -25.765610
v 24.728788 4.537954 -25.811941
v -1.849636 6.938469 -25.991474
v 5.263991 5.577529 -25.910406
v -15.279934 3.373581 -25.791265
v 12.269239 4.441334 -25.832405
v -8.767077 5.286782 -25.902081
v 18.849520 4.872244 -25.839998
v 15.667295 4.137255 -31.975498
v -12.134068 3.237033 -31.961212
v 1.755850 5.495729 -31.981197
v -5.325926 4.738771 -31.970427
v 8.844156 4.355978 -28.059277
v -1.790459 5.980061 -30.311649
v 12.260044 4.504328 -30.302378
v 5.298108 5.384292 -30.307880
v -15.273287 3.236846 -30.283264
v -8.732327 4.490977 -30.292816
v 18.810787 4.297499 -30.303257
v 1.763214 4.017095 -35.021198
v -5.321422 3.511751 -34.672115
v 8.847733 4.109518 -31.966415
v -1.779617 4.254440 -33.639977
v 12.254984 3.742445 -33.639538
v -8.727666 3.484827 -33.638824
v 5.305474 4.220955 -33.639732
v 5.301791 4.802623 -31.973808
v -8.729997 3.987902 -31.965822
v 12.257514 4.123386 -31.970959
v -1.779104 3.764423 -34.846657
v 18.830154 4.584871 -28.071629
v -8.749702 4.888880 -28.097448
v 5.281050 5.480910 -28.109144
v 12.264642 4.472831 -28.067390
v -1.785038 5.117250 -31.975813
v 18.876297 5.030924 -23.109404
v -8.804832 5.395882 -23.277277
v 12.287092 4.881722 -23.138800
v -15.276609 3.305213 -28.037264
v 5.286960 5.580780 -23.186966
v -1.820048 6.459265 -28.151562
v 24.768934 5.160449 -23.096979
v -15.307373 3.697304 -23.113239
v -8.822901 6.077990 -17.367403
v -1.851811 6.330499 -23.267218
v 29.804346 5.724401 -17.209148
v 24.810364 5.718794 -17.235512
v 18.879595 5.240362 -17.208450
v 12.327100 6.039392 -17.300852
v -21.164629 3.165965 -23.014721
v 5.346872 6.593627 -17.303577
v -1.820784 6.525463 -17.276659
v -9.044971 8.308661 -10.628356
v 29.853678 6.264742 -10.652730
v 33.751877 5.677413 -10.614930
v -21.236362 4.140964 -17.161306
v -26.197155 3.961288 -17.134600
v 24.780548 5.340217 -10.639645
v -15.385822 4.992691 -17.277531
v 18.829872 5.183358 -10.605494
v 12.323999 6.905461 -10.674115
v 5.350044 8.394787 -10.663321
v -21.238075 7.880006 -3.770647
v 18.800348 5.496318 3.455579
v -9.153247 9.789652 3.412614
v 5.260307 8.939785 3.472286
v 36.558182 4.287780 3.459807
v -33.009014 4.267643 -3.632415
v 33.693199 4.663266 3.461696
v -15.807238 8.954271 -3.784877
v 29.734798 4.272342 3.459060
v -30.131008 6.089518 -3.638340
v -26.109646 7.386679 -3.672638
v 12.253756 7.014715 3.456107
v -2.068939 11.075586 -3.612249
v 24.694441 4.200989 3.455859
v 5.317239 5.232339 34.777863
v -1.793607 5.223367 31.957314
v -15.472723 5.952577 28.081493
v 5.325241 5.873725 32.002087
v 12.280331 6.002397 31.981075
v -8.764984 4.707834 31.899170
v -1.817603 5.577593 28.112545
v 12.283642 5.670384 28.030870
v -1.814883 5.994461 22.990454
v 18.900896 6.316124 28.102301
v 5.319639 5.786688 28.097557
v -21.379084 6.228878 22.979849
v -8.842731 5.653551 28.079742
v -15.584236 6.936046 23.093147
v -15.598576 7.269829 17.085001
v 5.308399 6.090409 22.944880
v 25.011053 6.927970 23.056810
v 12.266062 5.048657 22.899815
v 18.893070 5.494431 22.971882
v -26.239424 5.649422 16.971889
v -21.434872 6.840148 17.018818
v -8.894478 6.264921 23.059628
v -1.789592 6.507804 16.961905
v 29.901182 5.966112 17.014044
v 24.845076 5.693355 17.006420
v -1.792850 7.403649 10.405675
v 12.254877 6.083149 16.949688
v 18.825796 5.361310 16.964607
v -30.119568 5.463573 10.421593
v -8.850332 6.473990 17.045143
v -26.199631 6.419004 10.452093
v 5.306242 7.117337 16.949688
v -21.417709 7.669171 10.470551
v -15.618832 8.502073 10.468769
v -15.706892 9.231907 3.363041
v 18.800348 5.873577 10.404214
v -8.855184 7.685301 10.437053
v 5.304605 7.802126 10.405069
v 33.685452 4.755073 10.416577
v 29.741798 4.572213 10.415418
v -33.012333 4.504172 3.457780
v 24.703259 4.642101 10.407747
v -30.123278 6.162091 3.467431
v -26.084978 7.367852 3.477147
v 12.254869 7.128904 10.404218
v -21.233845 8.152756 3.414353
v -1.973575 10.041178 3.468469
v -1.892636 8.724316 -10.585560
v -9.346131 10.416475 -3.682478
v 36.572948 4.851970 -3.631962
v 33.738747 5.479588 -3.638878
v 29.796968 5.212834 -3.645943
v 24.722809 4.532244 -3.638397
v 12.275696 6.932618 -3.638738
v -30.125940 5.019618 -10.584513
v 5.266959 9.513393 -3.619057
v 18.801987 5.112831 -3.629850
v -21.338974 6.228952 -10.673573
v -26.212578 5.691248 -10.610772
v -15.637316 7.399940 -10.689256
v 5.305805 3.772351 -34.846630
v -1.780544 4.700608 34.741737
v 1.763743 -4.715119 -36.402309
v -5.320926 -4.715119 -35.704361
v -12.133414 -4.715119 -33.637783
v -18.411850 -4.715119 -30.281883
v -23.914948 -4.715119 -25.765610
v -28.431820 -4.715119 -20.262598
v -31.790329 -4.715119 -13.985172
v -33.856773 -4.715119 -7.173326
v -34.555317 -4.715119 -0.087493
v -33.862770 -4.715119 6.999768
v -31.793900 -4.715119 13.813504
v -28.450905 -4.715119 20.104776
v -23.972317 -4.715119 25.645071
v -18.538946 -4.715119 30.261801
v -12.156287 -4.715119 33.515999
v -5.324270 -4.715119 35.572945
v 1.764757 -4.715119 36.279369
v 8.860678 -4.715119 35.612259
v 15.663185 -4.715119 33.580818
v 22.055590 -4.715119 30.444616
v 27.898230 -4.715119 25.882139
v 32.179420 -4.715119 20.156673
v 35.348984 -4.715119 13.821833
v 37.403934 -4.715119 7.001613
v 38.096561 -4.715119 -0.085210
v 37.416279 -4.715119 -7.175951
v 35.361950 -4.715119 -14.004920
v 31.978571 -4.715119 -20.284908
v 27.455900 -4.715119 -25.783585
v 21.948687 -4.715119 -30.295210
v 15.661701 -4.715119 -33.639694
v 8.848526 -4.715119 -35.704742
v -1.778592 -4.715119 -36.053333
v -8.727170 -4.715119 -34.671074
v -15.272633 -4.715119 -31.959833
v -21.163399 -4.715119 -28.023746
v -26.173384 -4.715119 -23.014103
v -30.111074 -4.715119 -17.123884
v -32.823551 -4.715119 -10.579249
v -34.206047 -4.715119 -3.630409
v -34.209045 -4.715119 3.456138
v -32.828335 -4.715119 10.406636
v -30.122402 -4.715119 16.959141
v -26.211611 -4.715119 22.874924
v -21.255630 -4.715119 27.953434
v -15.347616 -4.715119 31.888901
v -8.740279 -4.715119 34.544476
v -1.779756 -4.715119 35.926159
v 5.312717 -4.715119 35.945812
v 12.261930 -4.715119 34.596539
v 18.859386 -4.715119 32.012718
v 24.976910 -4.715119 28.163378
v 30.038826 -4.715119 23.019407
v 33.764206 -4.715119 16.989252
v 36.376461 -4.715119 10.411722
v 37.750252 -4.715119 3.458201
v 37.756420 -4.715119 -3.630580
v 36.389114 -4.715119 -10.590436
v 33.670265 -4.715119 -17.144915
v 29.717237 -4.715119 -23.034248
v 24.702293 -4.715119 -28.039398
v 18.805193 -4.715119 -31.967451
v 12.255114 -4.715119 -34.672218
v 5.306134 -4.715119 -36.053528
vn -0.0022 0.5351 -0.8448
vn -0.1706 0.5625 -0.8090
vn -0.3233 0.6225 -0.7127
vn -0.4164 0.6757 -0.6083
vn -0.5136 0.6833 -0.5189
vn -0.6030 0.6274 -0.4927
vn -0.7584 0.5518 -0.3469
vn -0.8703 0.4668 -0.1571
vn -0.8950 0.4459 -0.0154
vn -0.8594 0.4946 0.1298
vn -0.7626 0.5620 0.3203
vn -0.7169 0.5329 0.4495
vn -0.6405 0.5534 0.5325
vn -0.3866 0.5413 0.7467
vn -0.2677 0.5993 0.7545
vn -0.1843 0.5700 0.8007
vn -0.0383 0.5912 0.8056
vn 0.1391 0.5032 0.8529
vn 0.2510 0.5858 0.7706
vn 0.3167 0.6612 0.6801
vn 0.5599 0.6456 0.5194
vn 0.6735 0.6894 0.2665
vn 0.7898 0.5748 0.2141
vn 0.8161 0.5594 0.1450
vn 0.8299 0.5566 0.0378
vn 0.8309 0.5384 -0.1408
vn 0.8064 0.4774 -0.3491
vn 0.7090 0.5030 -0.4943
vn 0.5695 0.5490 -0.6118
vn 0.4215 0.6106 -0.6704
vn 0.2699 0.6048 -0.7492
vn 0.1499 0.5820 -0.7993
vn -0.2196 0.9536 -0.2058
vn 0.2737 0.9618 -0.0014
vn -0.1180 0.9609 -0.2506
vn 0.0111 0.9989 0.0459
vn -0.2519 0.9483 -0.1929
vn -0.1770 0.9712 0.1596
vn -0.4925 0.8644 -0.1010
vn 0.0405 0.9953 0.0875
vn -0.0449 0.9475 -0.3165
vn 0.3319 0.9430 -0.0263
vn 0.1244 0.9548 -0.2701
vn -0.1743 0.9549 -0.2406
vn 0.2845 0.9579 -0.0380
vn 0.2074 0.9780 -0.0226
vn 0.2225 0.9721 -0.0745
vn -0.2205 0.9704 0.0989
vn -0.2377 0.9627 0.1288
vn -0.0024 0.9991 -0.0433
vn -0.4319 0.9001 0.0567
vn 0.1496 0.9884 0.0262
vn 0.0447 0.9393 0.3401
vn -0.2178 0.9747 0.0495
vn 0.1843 0.9827 0.0170
vn -0.0612 0.9972 -0.0419
vn 0.0259 0.9574 0.2874
vn 0.0485 0.9808 0.1888
vn 0.1200 0.9918 -0.0433
vn 0.1572 0.9743 0.1611
vn -0.0875 0.9820 0.1675
vn -0.2477 0.9645 0.0914
vn -0.2816 0.9483 0.1464
vn -0.0222 0.9759 -0.2172
vn 0.0446 0.9860 -0.1605
vn 0.0027 0.9867 0.1624
vn -0.0910 0.9902 0.1055
vn 0.0976 0.9876 0.1230
vn 0.1270 0.9766 0.1736
vn -0.1987 0.9684 -0.1508
vn -0.2561 0.9574 0.1336
vn -0.0291 0.9867 -0.1601
vn -0.1140 0.9916 0.0615
vn 0.1809 0.9683 0.1721
vn 0.0120 0.9993 0.0352
vn 0.0235 0.9946 0.1008
vn -0.0511 0.9887 0.1406
vn 0.0917 0.9945 0.0508
vn -0.1205 0.9776 -0.1727
vn 0.0489 0.9968 0.0635
vn -0.1428 0.9699 0.1973
vn -0.1371 0.9893 -0.0509
vn 0.0049 0.9953 0.0968
vn 0.0817 0.9954 -0.0501
vn 0.0877 0.9738 0.2098
vn -0.0380 0.9990 -0.0216
vn -0.0422 0.9836 0.1753
vn -0.0749 0.9968 0.0281
vn -0.0000 0.9596 0.2814
vn -0.0204 0.9997 -0.0134
vn -0.0873 0.9800 0.1791
vn -0.0886 0.9696 0.2279
vn 0.0069 0.9474 0.3201
vn -0.1130 0.9853 0.1284
vn -0.0822 0.9885 0.1268
vn 0.1584 0.9872 -0.0179
vn -0.0950 0.9954 -0.0117
vn -0.3495 0.9369 0.0029
vn -0.1525 0.9867 -0.0554
vn -0.0720 0.9919 0.1045
vn 0.3386 0.9401 0.0399
vn 0.2055 0.9738 0.0975
vn -0.5476 0.8365 -0.0209
vn -0.2179 0.9759 0.0109
vn 0.1622 0.9823 0.0939
vn 0.2478 0.9675 -0.0511
vn -0.0654 0.9605 -0.2704
vn -0.1535 0.9294 -0.3357
vn -0.0124 0.9503 -0.3111
vn -0.0668 0.9959 0.0612
vn -0.1434 0.9594 -0.2429
vn -0.1197 0.9371 -0.3280
vn -0.0879 0.9961 -0.0026
vn 0.2998 0.9397 -0.1646
vn 0.2059 0.9762 -0.0676
vn -0.0723 0.9530 -0.2943
vn 0.1318 0.9724 -0.1928
vn 0.1409 0.9672 -0.2113
vn -0.0045 0.9918 -0.1278
vn -0.0748 0.9971 -0.0170
vn 0.0313 0.9931 -0.1130
vn 0.0322 0.9972 -0.0668
vn -0.1231 0.9754 -0.1829
vn -0.0689 0.9975 -0.0173
vn -0.2174 0.9569 -0.1925
vn 0.0640 0.9727 -0.2232
vn 0.0539 0.9855 -0.1611
vn -0.0461 0.9987 -0.0213
vn -0.1959 0.9788 -0.0605
vn -0.0432 0.9977 -0.0527
vn -0.2491 0.9611 -0.1190
vn 0.1471 0.9887 0.0303
vn 0.1327 0.9874 -0.0864
vn 0.0215 0.9903 -0.1370
vn -0.1745 0.9799 -0.0970
vn 0.0842 0.9579 -0.2746
vn -0.1908 0.9229 -0.3345
vn 0.1181 0.9865 -0.1136
vn 0.0134 0.9118 -0.4105
vn -0.1107 0.9223 -0.3702
vn 0.0655 0.9668 -0.2471
vn -0.1014 0.5566 -0.8246
vn -0.2386 0.5902 -0.7712
vn -0.3435 0.6850 -0.6425
vn -0.4486 0.7071 -0.5466
vn -0.5414 0.7071 -0.4548
vn -0.7050 0.5658 -0.4276
vn -0.8455 0.4750 -0.2440
vn -0.8770 0.4752 -0.0713
vn -0.8732 0.4861 0.0350
vn -0.8342 0.5020 0.2281
vn -0.7178 0.5700 0.3997
vn -0.6782 0.5682 0.4661
vn -0.5732 0.4606 0.6777
vn -0.2748 0.6405 0.7171
vn -0.2152 0.6083 0.7640
vn -0.1440 0.6005 0.7866
vn 0.0630 0.5647 0.8229
vn 0.2035 0.5106 0.8354
vn 0.2301 0.6340 0.7383
vn 0.4842 0.5939 0.6425
vn 0.6332 0.6353 0.4420
vn 0.7706 0.6134 0.1733
vn 0.7857 0.5901 0.1858
vn 0.8024 0.5901 0.0885
vn 0.8274 0.5615 -0.0059
vn 0.8163 0.5014 -0.2869
vn 0.7721 0.4712 -0.4263
vn 0.6621 0.5032 -0.5553
vn 0.5175 0.5890 -0.6207
vn 0.3465 0.6130 -0.7100
vn 0.1892 0.6279 -0.7550
vn 0.0969 0.5693 -0.8164
vn -0.0923 0.9623 0.2559
vn -0.0717 0.9554 0.2866
vn 0.0424 0.9665 -0.2531
vn -0.0136 0.9733 0.2290
vn 0.1027 0.9731 -0.2063
vn 0.0518 0.9984 0.0228
vn 0.3785 0.8852 -0.2705
vn 0.2382 0.9712 -0.0053
vn -0.0122 0.9781 0.2078
vn -0.0255 0.9996 -0.0076
vn -0.3035 0.9470 0.1051
vn -0.1316 0.9624 -0.2377
vn -0.4017 0.9091 0.1106
vn -0.1863 0.9807 -0.0598
vn 0.2544 0.9669 0.0202
vn -0.0994 0.9501 -0.2955
vn 0.0852 0.9950 0.0522
vn -0.3246 0.9354 -0.1402
vn -0.1614 0.9805 0.1124
vn -0.4501 0.8790 -0.1577
vn -0.0431 0.9709 0.2358
vn -0.0499 0.9051 -0.4223
vn 0.4111 0.8907 -0.1941
vn 0.0423 0.9506 -0.3075
vn -0.1238 0.8969 -0.4245
vn 0.3408 0.9387 0.0516
vn -0.2505 0.9444 -0.2130
vn -0.0468 0.9705 -0.2364
vn -0.1890 0.9555 -0.2266
vn 0.2222 0.9749 0.0111
vn 0.2423 0.9586 -0.1498
vn -0.4475 0.8835 -0.1384
vn 0.3253 0.9456 -0.0017
vn -0.5375 0.8390 -0.0845
vn -0.2018 0.9732 0.1104
vn -0.1511 0.9783 0.1421
vn 0.2288 0.9731 0.0268
vn 0.4381 0.8972 -0.0554
vn -0.0956 0.9535 -0.2859
vn 0.0048 0.9476 -0.3195
vn 0.2269 0.9707 -0.0792
vn 0.2031 0.9773 -0.0609
vn -0.1572 0.9713 0.1785
vn -0.2451 0.9631 0.1110
vn -0.0271 0.9996 0.0010
vn -0.5002 0.8659 0.0029
vn 0.0973 0.9951 0.0199
vn -0.0297 0.8913 0.4524
vn -0.1581 0.9755 0.1529
vn 0.1520 0.9876 0.0395
vn -0.0170 0.9949 -0.0995
vn 0.1415 0.8947 0.4237
vn -0.0963 0.9923 0.0777
vn -0.1012 0.9337 0.3436
vn -0.3355 0.9402 0.0586
vn 0.1441 0.9894 -0.0154
vn -0.1066 0.9859 0.1292
vn -0.3643 0.9265 0.0941
vn 0.1733 0.9828 -0.0630
vn -0.4989 0.8659 0.0373
vn -0.1788 0.9829 -0.0429
vn 0.0586 0.9982 -0.0138
vn 0.3065 0.9515 0.0277
vn 0.1523 0.9767 0.1510
vn 0.1924 0.9405 0.2799
vn 0.2709 0.9613 -0.0510
vn -0.0999 0.9892 0.1069
vn -0.0532 0.9983 -0.0238
vn 0.1892 0.9813 0.0340
vn -0.0835 0.9799 0.1813
vn -0.2461 0.9690 0.0221
vn -0.3014 0.9360 0.1819
vn -0.0049 0.9961 -0.0881
vn 0.1300 0.9674 -0.2175
vn 0.0380 0.9721 0.2315
vn -0.0545 0.9891 0.1370
vn 0.1428 0.9636 0.2262
vn 0.1112 0.9462 0.3039
vn 0.0634 0.9817 0.1794
vn -0.2343 0.9644 0.1228
vn -0.0004 0.9944 0.1053
vn -0.2610 0.9587 0.1129
vn 0.1868 0.9675 0.1703
vn -0.3018 0.9408 0.1541
vn 0.1166 0.9899 0.0808
vn 0.1959 0.9681 0.1562
vn -0.1800 0.9749 0.1309
vn 0.1233 0.9797 -0.1581
vn -0.1712 0.9639 -0.2039
vn 0.2595 0.9585 -0.1183
vn -0.2081 0.9380 -0.2774
vn -0.2428 0.9566 0.1612
vn -0.0522 0.9358 -0.3487
vn -0.1319 0.9895 -0.0597
vn 0.1493 0.9819 0.1167
vn -0.0024 0.9956 0.0939
vn 0.0968 0.9535 0.2854
vn -0.0837 0.9938 0.0737
vn 0.1122 0.9928 0.0412
vn -0.2048 0.9753 0.0832
vn 0.2287 0.9729 0.0335
vn -0.1823 0.9785 0.0970
vn -0.3278 0.9326 0.1509
vn -0.2105 0.9773 -0.0222
vn 0.2580 0.9535 0.1558
vn -0.1858 0.9634 -0.1934
vn 0.1223 0.9856 -0.1169
vn 0.1023 0.9802 0.1693
vn -0.0442 0.9977 0.0516
vn -0.0637 0.9945 -0.0832
vn 0.0388 0.9990 -0.0238
vn -0.1541 0.8799 0.4494
vn -0.0673 0.9833 0.1689
vn -0.0123 0.9778 0.2093
vn 0.0152 0.9762 -0.2165
vn 0.0951 0.9937 0.0598
vn 0.0769 0.9747 0.2099
vn 0.0979 0.9860 0.1347
vn 0.1060 0.9933 0.0451
vn -0.3609 0.9037 0.2306
vn 0.0100 0.9991 0.0404
vn -0.3883 0.9108 -0.1401
vn -0.0005 0.9969 0.0791
vn 0.1512 0.9796 -0.1325
vn -0.0976 0.9587 -0.2672
vn 0.0100 0.9885 0.1507
vn -0.0298 0.9994 -0.0147
vn 0.0432 0.9344 0.3536
vn -0.0159 0.9819 0.1888
vn -0.0416 0.9945 0.0966
vn -0.1416 0.9862 0.0862
vn -0.0428 0.9706 0.2369
vn 0.0674 0.9971 -0.0348
vn -0.1083 0.9941 -0.0012
vn 0.0433 0.9495 0.3108
vn -0.0913 0.9933 0.0705
vn -0.0736 0.9771 0.1995
vn 0.0279 0.8940 0.4472
vn -0.1224 0.9736 0.1924
vn -0.0514 0.9689 0.2421
vn -0.0547 0.9703 0.2357
vn 0.0646 0.9339 0.3516
vn -0.0883 0.9739 -0.2089
vn -0.0846 0.9963 0.0159
vn 0.2062 0.9745 -0.0881
vn -0.1037 0.9733 -0.2047
vn -0.3022 0.9423 0.1443
vn -0.1891 0.9806 -0.0508
vn -0.1339 0.9691 0.2071
vn 0.2570 0.9660 0.0299
vn 0.2007 0.9515 -0.2330
vn -0.5354 0.8434 -0.0450
vn -0.2242 0.9729 -0.0557
vn 0.2340 0.9613 0.1453
vn 0.2681 0.9631 -0.0230
vn 0.0229 0.9987 0.0459
vn -0.0476 0.9910 0.1253
vn 0.2020 0.9793 -0.0111
vn -0.1500 0.9887 0.0012
vn -0.5470 0.8371 -0.0074
vn -0.1679 0.9777 0.1258
vn -0.2561 0.9660 -0.0344
vn 0.0062 0.9935 0.1134
vn -0.5482 0.8359 -0.0286
vn 0.3129 0.9469 0.0744
vn 0.4717 0.8787 0.0735
vn -0.1770 0.9809 0.0803
vn 0.2927 0.9548 -0.0515
vn -0.0440 0.9981 -0.0424
vn -0.0313 0.9689 -0.2454
vn -0.1897 0.9196 -0.3440
vn -0.0110 0.9492 -0.3146
vn -0.0375 0.9985 0.0394
vn -0.1876 0.9507 -0.2469
vn -0.1637 0.9598 -0.2281
vn 0.0234 0.9930 -0.1156
vn 0.1733 0.9831 -0.0591
vn 0.1199 0.9803 -0.1572
vn -0.0611 0.9852 -0.1599
vn 0.2072 0.9702 -0.1258
vn -0.3019 0.9286 -0.2158
vn 0.0349 0.9644 -0.2621
vn 0.2264 0.9653 -0.1301
vn 0.1838 0.9829 0.0084
vn -0.1568 0.9269 -0.3410
vn -0.3149 0.9477 0.0520
vn 0.0191 0.9667 -0.2552
vn -0.1506 0.9406 -0.3042
vn 0.4596 0.8631 -0.2094
vn 0.1369 0.9868 -0.0864
vn -0.0843 0.9484 -0.3056
vn -0.0598 0.9490 -0.3096
vn 0.2251 0.9240 -0.3092
vn 0.0042 1.0000 -0.0084
vn -0.0884 0.9926 0.0836
vn -0.0248 0.9974 -0.0675
vn 0.1009 0.9757 0.1944
vn -0.1381 0.9350 -0.3267
vn -0.1356 0.9833 0.1212
vn -0.2486 0.9556 -0.1582
vn 0.0789 0.9633 -0.2564
vn 0.0102 0.9925 -0.1219
vn -0.0123 0.9878 -0.1555
vn -0.0189 0.9881 -0.1528
vn 0.1410 0.9715 -0.1906
vn -0.0782 0.9963 -0.0361
vn -0.0718 0.9921 -0.1031
vn 0.3511 0.8965 -0.2702
vn 0.0767 0.9970 -0.0100
vn -0.2079 0.9722 -0.1076
vn -0.2270 0.9521 -0.2050
vn -0.0148 0.9931 -0.1162
vn -0.0857 0.9957 -0.0349
vn -0.2142 0.9463 -0.2423
vn -0.0162 0.9991 -0.0381
vn -0.2216 0.9718 -0.0805
vn 0.1322 0.9823 -0.1324
vn 0.0982 0.9770 -0.1895
vn 0.0003 1.0000 -0.0037
vn 0.1709 0.9589 -0.2265
vn 0.0092 1.0000 0.0001
vn 0.2881 0.9574 -0.0210
vn -0.0925 0.9928 -0.0758
vn -0.0231 0.9970 -0.0740
vn -0.4019 0.9096 -0.1053
vn -0.0632 0.9937 -0.0923
vn 0.0366 0.9714 -0.2347
vn -0.1209 0.9862 -0.1133
vn 0.0425 0.9074 -0.4180
vn -0.1488 0.8920 -0.4268
vn 0.1355 0.9906 0.0173
vn -0.0780 0.9370 -0.3405
vn -0.0160 0.9943 -0.1050
vn 0.2465 0.9516 -0.1837
vn -0.0346 0.9985 -0.0424
vn -0.3070 0.9247 -0.2250
vn 0.0590 0.9813 -0.1834
vn -0.0012 0.9155 -0.4023
vn -0.0894 0.9458 -0.3123
vn 0.0906 0.9664 -0.2407
vn -0.0998 0.9039 -0.4159
vn 0.0020 0.9756 -0.2197
vn -0.1234 0.9508 -0.2840
vn 0.1274 0.9342 -0.3331
vn 0.1821 0.9288 -0.3227
vn -0.2067 0.9379 -0.2787
vn -0.0043 0.9749 -0.2226
vn -0.0842 0.9245 -0.3718
vn 0.0017 0.9918 -0.1274
vn -0.3832 0.9083 -0.1676
vn 0.3011 0.9528 -0.0398
vn -0.0341 0.9993 0.0142
vn -0.0951 0.8837 -0.4584
vn -0.1029 0.9931 -0.0567
vn -0.3233 0.9453 -0.0438
vn 0.0535 0.9854 -0.1614
vn -0.0510 0.9982 -0.0305
vn 0.1422 0.9898 -0.0044
vn -0.0408 0.9754 -0.2166
vn 0.0727 0.9721 -0.2230
vn -0.1718 0.9778 -0.1203
vn -0.1302 0.9769 -0.1697
vn 0.0581 0.9745 0.2168
vn 0.2703 0.9382 -0.2163
vn -0.2249 0.9742 0.0195
vn 0.0517 0.9985 -0.0156
vn 0.1867 0.9575 -0.2197
vn 0.0012 1.0000 -0.0075
vn -0.0303 0.9523 -0.3035
vn 0.0085 0.9711 -0.2386
vn -0.0654 0.8978 -0.4355
vn -0.0281 0.9985 0.0470
vn 0.3666 0.9194 -0.1426
vn -0.0809 0.9522 -0.2945
vn 0.0189 0.9722 -0.2335
vn -0.2906 0.9531 0.0841
vn -0.1965 0.9362 -0.2913
vn 0.2182 0.9754 0.0323
vn 0.2901 0.9562 -0.0384
vn 0.1208 0.9682 -0.2189
vn -0.0937 0.9856 -0.1409
vn 0.2955 0.9508 -0.0929
vn 0.0056 0.9593 0.2823
vn 0.3462 0.9107 0.2253
vn 0.3005 0.9528 0.0443
vn -0.5475 0.8363 -0.0297
vn -0.0000 0.9996 0.0272
vn -0.2778 0.9602 -0.0304
vn -0.1686 0.9856 0.0141
vn -0.5227 0.8488 -0.0802
vn -0.1099 0.9748 -0.1943
vn 0.1570 0.9860 -0.0567
vn -0.0082 0.9656 -0.2600
vn 0.1149 0.9923 -0.0454
vn -0.0096 0.9311 0.3645
vn -0.0886 0.9882 0.1253
vn 0.0696 0.9080 0.4131
vn -0.0935 0.9889 0.1151
vn 0.0617 0.9735 0.2201
vn -0.0590 0.9746 0.2162
vn 0.0041 0.9977 0.0674
vn 0.0938 0.9531 -0.2876
vn -0.1026 0.9907 0.0898
vn -0.2873 0.9557 -0.0632
vn -0.0638 0.9910 -0.1178
vn -0.2699 0.9628 0.0095
vn 0.0159 0.9662 0.2574
vn 0.0090 1.0000 -0.0032
vn 0.0109 0.9942 0.1071
vn 0.0780 0.9772 0.1975
vn -0.0736 0.9851 -0.1553
vn 0.2192 0.9753 0.0262
vn -0.3378 0.9173 -0.2109
vn -0.3065 0.9373 0.1660
vn -0.1777 0.9670 0.1827
vn 0.1797 0.9837 0.0092
vn -0.2158 0.9735 0.0758
vn -0.0329 0.9508 -0.3080
vn -0.0633 0.9712 -0.2297
vn -0.1404 0.9726 0.1855
vn 0.2333 0.9303 0.2832
vn -0.0414 0.9848 0.1687
vn -0.3144 0.9416 0.1203
vn 0.2111 0.9757 0.0591
vn -0.1740 0.9829 0.0597
vn 0.0500 0.9888 0.1407
vn -0.3174 0.9463 0.0612
vn 0.0062 0.9682 0.2500
vn -0.1914 0.9807 -0.0386
vn 0.2163 0.9763 -0.0089
vn 0.2143 0.9364 0.2780
vn 0.0322 0.9971 0.0693
vn 0.1658 0.9847 -0.0544
vn -0.1991 0.9749 -0.0996
vn -0.5269 0.8494 -0.0285
vn 0.1895 0.9786 -0.0806
vn -0.4714 0.8795 0.0658
vn -0.1212 0.9731 0.1960
vn 0.1618 0.9865 0.0259
vn -0.1877 0.9805 0.0588
vn -0.0696 0.8678 0.4920
vn -0.0356 0.9252 -0.3777
vn -0.1686 0.9773 -0.1283
vn 0.3708 0.9232 0.1014
vn 0.0914 0.9759 0.1982
vn -0.1764 0.9557 0.2357
vn -0.0904 0.9866 0.1360
vn 0.2774 0.9601 0.0345
vn -0.3651 0.9099 -0.1968
vn 0.3992 0.9136 -0.0777
vn 0.2580 0.9661 -0.0100
vn -0.1946 0.9296 -0.3131
vn -0.0031 0.9609 -0.2768
vn -0.1838 0.9031 -0.3881
vn 0.0815 0.9360 -0.3423
vn -0.1313 0.9570 0.2586
vn -0.0000 -0.6857 -0.7279
vn -0.1420 -0.6857 -0.7139
vn -0.2786 -0.6857 -0.6725
vn -0.4044 -0.6857 -0.6052
vn -0.5147 -0.6857 -0.5147
vn -0.6051 -0.6857 -0.4045
vn -0.6725 -0.6857 -0.2787
vn -0.7139 -0.6857 -0.1420
vn -0.7278 -0.6858 -0.0003
vn -0.7140 -0.6856 0.1418
vn -0.6725 -0.6860 0.2777
vn -0.6068 -0.6862 0.4011
vn -0.5203 -0.6867 0.5077
vn -0.4057 -0.6819 0.6087
vn -0.2707 -0.6875 0.6738
vn -0.1416 -0.6860 0.7136
vn -0.0020 -0.6860 0.7276
vn 0.1389 -0.6857 0.7145
vn 0.2642 -0.6889 0.6749
vn 0.3869 -0.6846 0.6178
vn 0.5249 -0.6785 0.5140
vn 0.6179 -0.6876 0.3814
vn 0.6741 -0.6884 0.2679
vn 0.7140 -0.6858 0.1410
vn 0.7276 -0.6860 0.0006
vn 0.7143 -0.6857 -0.1403
vn 0.6729 -0.6851 -0.2791
vn 0.6041 -0.6859 -0.4056
vn 0.5142 -0.6857 -0.5152
vn 0.4036 -0.6856 -0.6059
vn 0.2777 -0.6859 -0.6726
vn 0.1419 -0.6857 -0.7139
vn -0.0693 -0.7071 -0.7037
vn -0.2053 -0.7071 -0.6767
vn -0.3333 -0.7071 -0.6236
vn -0.4486 -0.7071 -0.5466
vn -0.5466 -0.7071 -0.4486
vn -0.6235 -0.7071 -0.3336
vn -0.6767 -0.7071 -0.2053
vn -0.7037 -0.7071 -0.0694
vn -0.7038 -0.7071 0.0688
vn -0.6766 -0.7071 0.2055
vn -0.6244 -0.7071 0.3318
vn -0.5499 -0.7071 0.4446
vn -0.4579 -0.7071 0.5389
vn -0.3212 -0.7071 0.6300
vn -0.2039 -0.7071 0.6771
vn -0.0701 -0.7071 0.7036
vn 0.0662 -0.7071 0.7040
vn 0.2023 -0.7071 0.6775
vn 0.3115 -0.7071 0.6348
vn 0.4352 -0.7071 0.5573
vn 0.5663 -0.7071 0.4234
vn 0.6324 -0.7071 0.3164
vn 0.6770 -0.7071 0.2040
vn 0.7038 -0.7071 0.0688
vn 0.7039 -0.7071 -0.0675
vn 0.6772 -0.7071 -0.2037
vn 0.6225 -0.7071 -0.3354
vn 0.5461 -0.7071 -0.4492
vn 0.4481 -0.7071 -0.5470
vn 0.3321 -0.7071 -0.6243
vn 0.2051 -0.7071 -0.6767
vn 0.0693 -0.7071 -0.7037
vt 0.750827 0.789972
vt 0.720207 0.812459
vt 0.741872 0.782996
vt 0.174423 0.300610
vt 0.197200 0.269452
vt 0.209197 0.278327
vt 0.185144 0.308645
vt 0.811471 0.694192
vt 0.800388 0.685891
vt 0.824582 0.655891
vt 0.833736 0.662822
vt 0.842881 0.669769
vt 0.856240 0.633226
vt 0.868050 0.596981
vt 0.853643 0.586084
vt 0.874418 0.559543
vt 0.879102 0.522391
vt 0.860711 0.507455
vt 0.880289 0.484747
vt 0.879878 0.446435
vt 0.855119 0.427896
vt 0.872962 0.408720
vt 0.864399 0.371551
vt 0.836652 0.351165
vt 0.850361 0.336312
vt 0.834416 0.301758
vt 0.804245 0.280758
vt 0.811919 0.271492
vt 0.116882 0.400283
vt 0.131700 0.410765
vt 0.112767 0.439020
vt 0.110743 0.476059
vt 0.130253 0.490317
vt 0.111646 0.512094
vt 0.115405 0.548089
vt 0.137089 0.565988
vt 0.120566 0.584854
vt 0.127858 0.622866
vt 0.156130 0.642843
vt 0.144390 0.657811
vt 0.161984 0.691177
vt 0.190456 0.712571
vt 0.182437 0.722322
vt 0.472283 0.709947
vt 0.490962 0.683509
vt 0.523716 0.706814
vt 0.503232 0.733391
vt 0.404003 0.799146
vt 0.419266 0.781252
vt 0.447734 0.805321
vt 0.432454 0.823054
vt 0.436278 0.758835
vt 0.453229 0.736436
vt 0.482598 0.759878
vt 0.465203 0.782610
vt 0.633644 0.375129
vt 0.612552 0.402256
vt 0.582543 0.379772
vt 0.603963 0.352258
vt 0.542014 0.493024
vt 0.517304 0.523380
vt 0.488341 0.505801
vt 0.512078 0.472920
vt 0.377840 0.832539
vt 0.388665 0.817010
vt 0.417038 0.840738
vt 0.406156 0.855520
vt 0.589761 0.431636
vt 0.567106 0.460854
vt 0.538259 0.437321
vt 0.560265 0.408722
vt 0.323993 0.846608
vt 0.331242 0.835992
vt 0.359758 0.859127
vt 0.673353 0.324776
vt 0.654763 0.347937
vt 0.625292 0.324786
vt 0.643020 0.301651
vt 0.707908 0.282653
vt 0.692017 0.301604
vt 0.660859 0.278378
vt 0.676515 0.259034
vt 0.734961 0.250060
vt 0.724037 0.263920
vt 0.692609 0.239441
vt 0.704275 0.225143
vt 0.754737 0.225615
vt 0.746252 0.236336
vt 0.716184 0.210833
vt 0.726172 0.198402
vt 0.452934 0.610362
vt 0.431263 0.639787
vt 0.403025 0.618649
vt 0.425002 0.588432
vt 0.556465 0.595587
vt 0.578168 0.565167
vt 0.608550 0.586950
vt 0.587518 0.617773
vt 0.438586 0.506679
vt 0.462614 0.479905
vt 0.468160 0.531962
vt 0.319335 0.665584
vt 0.336194 0.644971
vt 0.367245 0.667742
vt 0.350690 0.687486
vt 0.472018 0.342422
vt 0.450177 0.371221
vt 0.422135 0.349772
vt 0.443580 0.320898
vt 0.287962 0.705879
vt 0.302472 0.686146
vt 0.334567 0.707043
vt 0.319360 0.726715
vt 0.261081 0.741529
vt 0.273549 0.725801
vt 0.304253 0.746250
vt 0.291291 0.763326
vt 0.552801 0.234751
vt 0.534814 0.258801
vt 0.505304 0.237347
vt 0.523369 0.213211
vt 0.239177 0.769276
vt 0.248513 0.757498
vt 0.278008 0.780914
vt 0.267472 0.794939
vt 0.584910 0.189629
vt 0.570775 0.210521
vt 0.541344 0.189733
vt 0.554124 0.168674
vt 0.610470 0.152794
vt 0.599159 0.168225
vt 0.567235 0.146770
vt 0.578483 0.130729
vt 0.668346 0.141054
vt 0.660827 0.150871
vt 0.629370 0.127020
vt 0.427425 0.400606
vt 0.404498 0.429705
vt 0.376332 0.407483
vt 0.399328 0.378518
vt 0.337017 0.516600
vt 0.316552 0.547191
vt 0.286964 0.523625
vt 0.308301 0.493989
vt 0.514222 0.286149
vt 0.493843 0.313399
vt 0.465208 0.291605
vt 0.485150 0.264580
vt 0.355385 0.619467
vt 0.374391 0.594000
vt 0.385056 0.643137
vt 0.296581 0.574121
vt 0.345949 0.569988
vt 0.325912 0.595820
vt 0.259411 0.623168
vt 0.276731 0.601394
vt 0.305823 0.621882
vt 0.287940 0.643837
vt 0.373335 0.357986
vt 0.350749 0.387194
vt 0.325316 0.367324
vt 0.347207 0.337464
vt 0.227769 0.664103
vt 0.242111 0.645197
vt 0.269900 0.665641
vt 0.256259 0.684659
vt 0.281474 0.475045
vt 0.259368 0.504883
vt 0.232033 0.485938
vt 0.254625 0.455769
vt 0.201987 0.697855
vt 0.213464 0.683165
vt 0.242580 0.704096
vt 0.231119 0.718975
vt 0.458581 0.243540
vt 0.438306 0.269541
vt 0.412038 0.248992
vt 0.432229 0.223496
vt 0.417306 0.299201
vt 0.396042 0.328763
vt 0.369761 0.307485
vt 0.391308 0.277640
vt 0.380726 0.458162
vt 0.432381 0.452360
vt 0.408186 0.480291
vt 0.495952 0.191676
vt 0.478568 0.216641
vt 0.452214 0.196672
vt 0.469486 0.170307
vt 0.525511 0.147479
vt 0.512635 0.166644
vt 0.485306 0.144593
vt 0.497964 0.127875
vt 0.589749 0.114232
vt 0.547984 0.111852
vt 0.326962 0.416421
vt 0.352702 0.436379
vt 0.230720 0.438515
vt 0.208692 0.468612
vt 0.184925 0.451369
vt 0.206365 0.421131
vt 0.203800 0.582185
vt 0.220522 0.560232
vt 0.247476 0.580513
vt 0.230793 0.602279
vt 0.171578 0.623430
vt 0.186988 0.604248
vt 0.214062 0.624188
vt 0.199183 0.643146
vt 0.409759 0.203887
vt 0.390173 0.232268
vt 0.368229 0.215428
vt 0.387389 0.184391
vt 0.368448 0.260077
vt 0.346402 0.288937
vt 0.322943 0.269910
vt 0.345810 0.241771
vt 0.446364 0.152261
vt 0.428922 0.175426
vt 0.407494 0.155749
vt 0.423754 0.134720
vt 0.510124 0.110870
vt 0.475353 0.111281
vt 0.323101 0.318528
vt 0.300164 0.348471
vt 0.274681 0.329096
vt 0.298728 0.299389
vt 0.239982 0.532516
vt 0.267113 0.551998
vt 0.189783 0.495451
vt 0.213045 0.512968
vt 0.187204 0.406212
vt 0.165843 0.436196
vt 0.146331 0.421226
vt 0.167732 0.391318
vt 0.440912 0.113691
vt 0.405945 0.120744
vt 0.154325 0.543759
vt 0.170606 0.521567
vt 0.193570 0.539936
vt 0.176917 0.561927
vt 0.279248 0.284085
vt 0.255412 0.314275
vt 0.236123 0.299342
vt 0.259865 0.268629
vt 0.368999 0.170324
vt 0.349095 0.199222
vt 0.328892 0.182102
vt 0.350496 0.155293
vt 0.276461 0.378294
vt 0.300946 0.396498
vt 0.325839 0.226318
vt 0.302960 0.254169
vt 0.283308 0.238463
vt 0.305633 0.210526
vt 0.232258 0.345067
vt 0.251569 0.359838
vt 0.371186 0.130947
vt 0.336736 0.143750
vt 0.153158 0.380549
vt 0.138359 0.369700
vt 0.291505 0.199298
vt 0.269306 0.228019
vt 0.255166 0.217465
vt 0.277192 0.188079
vt 0.245959 0.258236
vt 0.222593 0.288838
vt 0.232022 0.247734
vt 0.147455 0.463604
vt 0.166417 0.478492
vt 0.199030 0.319445
vt 0.212898 0.330182
vt 0.221105 0.239751
vt 0.185315 0.260603
vt 0.210041 0.231713
vt 0.160883 0.339453
vt 0.151550 0.332543
vt 0.300406 0.158967
vt 0.267517 0.180382
vt 0.612828 0.278885
vt 0.594982 0.302509
vt 0.564267 0.280241
vt 0.582313 0.256309
vt 0.496430 0.552835
vt 0.548032 0.543935
vt 0.525850 0.573963
vt 0.530385 0.386435
vt 0.508496 0.415475
vt 0.478632 0.392961
vt 0.500460 0.364168
vt 0.347388 0.750844
vt 0.362506 0.731795
vt 0.390875 0.757199
vt 0.375746 0.775357
vt 0.320110 0.786616
vt 0.332019 0.769829
vt 0.360633 0.793351
vt 0.349623 0.809309
vt 0.646230 0.235177
vt 0.630858 0.255157
vt 0.600383 0.232316
vt 0.615191 0.211924
vt 0.413365 0.664982
vt 0.459159 0.660492
vt 0.441900 0.686474
vt 0.673447 0.200333
vt 0.661911 0.214999
vt 0.630374 0.191021
vt 0.641760 0.175886
vt 0.299220 0.816048
vt 0.308031 0.803577
vt 0.338480 0.825387
vt 0.693938 0.174393
vt 0.685189 0.185565
vt 0.653363 0.160686
vt 0.484634 0.447899
vt 0.455743 0.422875
vt 0.395145 0.563976
vt 0.365865 0.538786
vt 0.573611 0.330029
vt 0.552366 0.357477
vt 0.522202 0.335408
vt 0.543111 0.307873
vt 0.379022 0.711131
vt 0.395357 0.690431
vt 0.424020 0.712921
vt 0.407455 0.735031
vt 0.395426 0.870050
vt 0.432233 0.878289
vt 0.602085 0.535959
vt 0.571838 0.514470
vt 0.648432 0.476939
vt 0.626031 0.506350
vt 0.595896 0.484656
vt 0.619132 0.454791
vt 0.691860 0.420508
vt 0.670775 0.447280
vt 0.642478 0.424718
vt 0.663287 0.398108
vt 0.530315 0.755019
vt 0.550932 0.728508
vt 0.578296 0.750346
vt 0.557336 0.776748
vt 0.732586 0.370118
vt 0.712811 0.393845
vt 0.684225 0.371372
vt 0.703609 0.347868
vt 0.458844 0.844688
vt 0.474085 0.826409
vt 0.500730 0.847418
vt 0.485587 0.866254
vt 0.491959 0.803839
vt 0.509738 0.781423
vt 0.536639 0.802641
vt 0.518839 0.824762
vt 0.792735 0.295158
vt 0.781227 0.309387
vt 0.753775 0.287593
vt 0.763988 0.274177
vt 0.766822 0.328033
vt 0.752401 0.346678
vt 0.723046 0.324649
vt 0.738608 0.305939
vt 0.512857 0.654619
vt 0.481156 0.631811
vt 0.615568 0.638910
vt 0.636960 0.608323
vt 0.664923 0.629505
vt 0.643811 0.659873
vt 0.470179 0.885024
vt 0.508861 0.884996
vt 0.660094 0.578769
vt 0.632346 0.557738
vt 0.541660 0.842632
vt 0.559349 0.819711
vt 0.582395 0.837223
vt 0.564693 0.860406
vt 0.705306 0.519583
vt 0.683403 0.548808
vt 0.656213 0.528366
vt 0.677720 0.499310
vt 0.747953 0.462998
vt 0.727160 0.490051
vt 0.699244 0.469918
vt 0.720562 0.442873
vt 0.787373 0.412344
vt 0.768573 0.435845
vt 0.741167 0.415864
vt 0.761412 0.392045
vt 0.821158 0.370087
vt 0.805610 0.388763
vt 0.780935 0.368270
vt 0.794841 0.349982
vt 0.666405 0.677456
vt 0.688074 0.648104
vt 0.710310 0.667133
vt 0.688840 0.694755
vt 0.572638 0.699202
vt 0.545170 0.677644
vt 0.579961 0.793831
vt 0.600592 0.767796
vt 0.622680 0.785133
vt 0.602579 0.811010
vt 0.546814 0.883109
vt 0.583868 0.875287
vt 0.837267 0.450987
vt 0.819385 0.474104
vt 0.796657 0.455861
vt 0.813969 0.432569
vt 0.706691 0.708157
vt 0.728010 0.679678
vt 0.745653 0.692523
vt 0.724635 0.721630
vt 0.710718 0.617635
vt 0.687619 0.600084
vt 0.621505 0.825345
vt 0.641448 0.798925
vt 0.660517 0.812859
vt 0.640577 0.839730
vt 0.756149 0.557730
vt 0.734437 0.587129
vt 0.710762 0.569629
vt 0.732899 0.540081
vt 0.622824 0.737148
vt 0.600327 0.720943
vt 0.798608 0.501175
vt 0.777947 0.528319
vt 0.754768 0.510464
vt 0.775492 0.483141
vt 0.739699 0.733632
vt 0.760799 0.703585
vt 0.776165 0.714982
vt 0.754965 0.745749
vt 0.798282 0.589750
vt 0.776156 0.618558
vt 0.757853 0.604129
vt 0.779304 0.575378
vt 0.751821 0.649537
vt 0.733418 0.635458
vt 0.620472 0.865841
vt 0.654936 0.850669
vt 0.663609 0.767429
vt 0.645237 0.753077
vt 0.840497 0.533892
vt 0.820276 0.560627
vt 0.801307 0.546125
vt 0.821637 0.519155
vt 0.765771 0.754168
vt 0.788965 0.724683
vt 0.801690 0.734439
vt 0.776824 0.762757
vt 0.831966 0.615227
vt 0.809781 0.644695
vt 0.794981 0.633543
vt 0.817308 0.604195
vt 0.696579 0.793392
vt 0.674891 0.823441
vt 0.682260 0.781651
vt 0.785180 0.674740
vt 0.770013 0.663914
vt 0.717666 0.763254
vt 0.702804 0.750521
vt 0.732937 0.775985
vt 0.711068 0.805153
vt 0.689111 0.834072
vt 0.839113 0.575140
vt 0.846889 0.626346
vt 0.841801 0.492391
vt 0.859524 0.548580
vt 0.684971 0.736368
vt 0.667631 0.722387
vt 0.645487 0.707384
vt 0.622468 0.691327
vt 0.601455 0.851682
vt 0.830683 0.409462
vt 0.860773 0.469390
vt 0.594064 0.669716
vt 0.566135 0.648313
vt 0.808824 0.331484
vt 0.847601 0.390676
vt 0.523752 0.865630
vt 0.534234 0.625453
vt 0.502926 0.603087
vt 0.774209 0.260817
vt 0.821584 0.316760
vt 0.443371 0.863025
vt 0.415670 0.534579
vt 0.385205 0.507478
vt 0.446681 0.559881
vt 0.702891 0.163077
vt 0.736281 0.186071
vt 0.290233 0.828825
vt 0.256770 0.809170
vt 0.474253 0.581518
vt 0.245545 0.210246
vt 0.235863 0.203011
vt 0.128803 0.362913
vt 0.142201 0.325593
vt 0.175369 0.350407
vt 0.189776 0.361311
vt 0.149323 0.504013
vt 0.127644 0.448885
vt 0.314645 0.170563
vt 0.209231 0.376094
vt 0.228556 0.390783
vt 0.253465 0.408668
vt 0.277496 0.426179
vt 0.389439 0.143664
vt 0.160014 0.583982
vt 0.132555 0.525672
vt 0.463037 0.128826
vt 0.184342 0.662198
vt 0.144026 0.603298
vt 0.303545 0.445503
vt 0.329549 0.464845
vt 0.537666 0.127844
vt 0.357609 0.486368
vt 0.219602 0.733788
vt 0.173054 0.676767
vt 0.621979 0.137100
vt 0.229592 0.781288
vt 0.204188 0.752997
vt 0.211891 0.743407
vt 0.763636 0.214759
vt 0.788512 0.242801
vt 0.781344 0.251794
vt 0.366967 0.848146
vt 0.822673 0.702708
vt 0.163647 0.292447
vt 0.069295 0.747938
vt 0.045589 0.705516
vt 0.764889 0.068009
vt 0.804789 0.096695
vt 0.025849 0.661107
vt 0.015147 0.613236
vt 0.840048 0.132953
vt 0.871313 0.172110
vt 0.009204 0.564699
vt 0.004936 0.516840
vt 0.903572 0.210025
vt 0.931721 0.251512
vt 0.005921 0.468251
vt 0.006650 0.419874
vt 0.952255 0.295711
vt 0.968504 0.342083
vt 0.855783 0.838801
vt 0.820299 0.872697
vt 0.012066 0.371228
vt 0.025834 0.325760
vt 0.979710 0.388600
vt 0.986706 0.436320
vt 0.782312 0.901662
vt 0.741395 0.927307
vt 0.043055 0.281257
vt 0.068191 0.240263
vt 0.989257 0.484603
vt 0.987374 0.532770
vt 0.699215 0.948112
vt 0.654917 0.965236
vt 0.096526 0.201658
vt 0.125445 0.162236
vt 0.981762 0.580946
vt 0.971304 0.629000
vt 0.609483 0.979363
vt 0.563355 0.989267
vt 0.157320 0.126316
vt 0.195702 0.095609
vt 0.957223 0.674893
vt 0.938915 0.719797
vt 0.514991 0.994399
vt 0.466735 0.995064
vt 0.236251 0.068744
vt 0.282337 0.049305
vt 0.915025 0.761989
vt 0.887480 0.801896
vt 0.417749 0.987961
vt 0.369888 0.976181
vt 0.329479 0.034847
vt 0.378133 0.018360
vt 0.427847 0.008575
vt 0.476601 0.004936
vt 0.322995 0.962618
vt 0.277333 0.944353
vt 0.526801 0.007852
vt 0.578183 0.004936
vt 0.234523 0.922649
vt 0.193626 0.897200
vt 0.629976 0.006977
vt 0.676913 0.022841
vt 0.158367 0.863722
vt 0.126519 0.827290
vt 0.722771 0.042198
vt 0.095712 0.788861
s 1
usemtl Material.002
f 2/1/2 143/2/143 412/3/412
f 529/4/529 175/5/175 91/6/91 312/7/312
f 528/8/528 417/9/417 141/10/141 176/11/176
f 32/12/32 176/11/176 172/13/172
f 31/14/31 400/15/400 171/16/171
f 30/17/30 178/18/178 170/19/170
f 29/20/29 366/21/366 169/22/169
f 28/23/28 180/24/180 168/25/168
f 27/26/27 196/27/196 167/28/167
f 15/29/15 182/30/182 155/31/155
f 14/32/14 285/33/285 154/34/154
f 13/35/13 184/36/184 153/37/153
f 12/38/12 245/39/245 152/40/152
f 11/41/11 186/42/186 151/43/151
f 527/44/527 198/45/198 112/46/112 358/47/358
f 526/48/526 189/49/189 107/50/107 360/51/360
f 525/52/525 344/53/344 108/54/108 361/55/361
f 524/56/524 328/57/328 106/58/106 341/59/341
f 523/60/523 324/61/324 102/62/102 339/63/339
f 522/64/522 347/65/347 111/66/111 354/67/354
f 521/68/521 199/69/199 101/70/101 331/71/331
f 8/72/8 207/73/207 148/74/148
f 520/75/520 190/76/190 96/77/96 329/78/329
f 519/79/519 322/80/322 100/81/100 334/82/334
f 518/83/518 194/84/194 95/85/95 336/86/336
f 517/87/517 327/88/327 105/89/105 338/90/338
f 516/91/516 326/92/326 104/93/104 340/94/340
f 515/95/515 197/96/197 109/97/109 365/98/365
f 514/99/514 225/100/225 102/62/102 330/101/330
f 513/102/513 321/103/321 99/104/99 342/105/342
f 512/106/512 220/107/220 68/108/68 259/109/259
f 511/110/511 216/111/216 97/112/97 332/113/332
f 510/114/510 320/115/320 98/116/98 333/117/333
f 509/118/509 215/119/215 59/120/59 261/121/261
f 508/122/508 219/123/219 103/124/103 337/125/337
f 507/126/507 246/127/246 64/128/64 262/129/262
f 506/130/506 224/131/224 65/132/65 263/133/263
f 24/134/24 236/135/236 164/136/164
f 505/137/505 249/138/249 67/139/67 254/140/254
f 504/141/504 251/142/251 69/143/69 256/144/256
f 503/145/503 242/146/242 60/147/60 258/148/258
f 502/149/502 226/150/226 104/93/104 335/151/335
f 501/152/501 251/142/251 58/153/58 240/154/240
f 500/155/500 222/156/222 54/157/54 228/158/228
f 499/159/499 271/160/271 77/161/77 281/162/281
f 498/163/498 244/164/244 48/165/48 230/166/230
f 497/167/497 272/168/272 78/169/78 274/170/274
f 496/171/496 217/172/217 49/173/49 231/174/231
f 495/175/495 270/176/270 76/177/76 277/178/277
f 494/179/494 250/180/250 74/181/74 278/182/278
f 493/183/493 249/138/249 57/184/57 227/185/227
f 492/186/492 241/187/241 70/188/70 279/189/279
f 491/190/491 266/191/266 72/192/72 280/193/280
f 23/194/23 263/133/263 163/195/163
f 490/196/490 271/160/271 67/139/67 260/197/260
f 489/198/489 289/199/289 85/200/85 291/201/291
f 488/202/488 243/203/243 61/204/61 253/205/253
f 487/206/487 265/207/265 62/208/62 255/209/255
f 486/210/486 283/211/283 79/212/79 295/213/295
f 485/214/485 268/215/268 84/216/84 297/217/297
f 484/218/484 264/219/264 82/220/82 292/221/292
f 22/222/22 280/193/280 162/223/162
f 483/224/483 287/225/287 83/226/83 294/227/294
f 482/228/482 272/168/272 69/143/69 252/229/252
f 481/230/481 289/199/289 78/169/78 282/231/282
f 480/232/480 301/233/301 89/234/89 305/235/305
f 21/236/21 292/221/292 161/237/161
f 479/238/479 267/239/267 73/240/73 275/241/275
f 478/242/478 300/243/300 88/244/88 307/245/307
f 477/246/477 298/247/298 86/248/86 304/249/304
f 476/250/476 287/225/287 77/161/77 273/251/273
f 475/252/475 288/253/288 90/254/90 306/255/306
f 474/256/474 300/243/300 83/226/83 296/257/296
f 20/258/20 304/249/304 160/259/160
f 473/260/473 182/30/182 15/29/15 314/261/314
f 472/262/472 302/263/302 93/264/93 315/265/315
f 471/266/471 309/267/309 91/6/91 313/268/313
f 470/269/470 301/233/301 85/200/85 290/270/290
f 469/271/469 309/267/309 88/244/88 303/272/303
f 468/273/468 175/5/175 17/274/17 158/275/158
f 92/276/92 314/261/314 174/277/174
f 19/278/19 315/265/315 159/279/159
f 467/280/467 318/281/318 47/282/47 232/283/232
f 466/284/466 324/61/324 43/285/43 213/286/213
f 465/287/465 323/288/323 52/289/52 229/290/229
f 464/291/464 319/292/319 35/293/35 201/294/201
f 463/295/463 191/296/191 37/297/37 205/298/205
f 462/299/462 218/300/218 50/301/50 234/302/234
f 461/303/461 326/92/326 44/304/44 200/305/200
f 460/306/460 317/307/317 56/308/56 235/309/235
f 459/310/459 325/311/325 39/312/39 207/73/207
f 458/313/458 223/314/223 55/315/55 236/135/236
f 457/316/457 225/100/225 57/184/57 237/317/237
f 456/318/456 226/150/226 58/153/58 238/319/238
f 455/320/455 214/321/214 46/322/46 239/323/239
f 454/324/454 187/325/187 33/326/33 202/327/202
f 7/328/7 354/67/354 147/329/147
f 453/330/453 197/96/197 43/285/43 204/331/204
f 452/332/452 353/333/353 45/334/45 206/335/206
f 451/336/451 188/337/188 34/338/34 203/339/203
f 450/340/450 348/341/348 125/342/125 384/343/384
f 449/344/449 346/345/346 36/346/36 208/347/208
f 448/348/448 343/349/343 119/350/119 375/351/375
f 447/352/447 371/353/371 123/354/123 377/355/377
f 446/356/446 350/357/350 40/358/40 210/359/210
f 445/360/445 192/361/192 38/362/38 209/363/209
f 444/364/444 198/45/198 44/304/44 212/365/212
f 443/366/443 345/367/345 122/368/122 382/369/382
f 6/370/6 375/351/375 146/371/146
f 442/372/442 345/367/345 109/97/109 355/373/355
f 441/374/441 386/375/386 128/376/128 392/377/392
f 440/378/440 374/379/374 117/380/117 356/381/356
f 439/382/439 351/383/351 115/384/115 357/385/357
f 438/386/438 368/387/368 110/388/110 359/389/359
f 437/390/437 349/391/349 113/392/113 363/393/363
f 436/394/436 370/395/370 132/396/132 394/397/394
f 435/398/435 348/341/348 112/46/112 364/399/364
f 434/400/434 373/401/373 131/402/131 396/403/396
f 5/404/5 392/377/392 145/405/145
f 433/406/433 385/407/385 120/408/120 380/409/380
f 432/410/432 390/411/390 136/412/136 405/413/405
f 431/414/431 370/395/370 122/368/122 376/415/376
f 430/416/430 389/417/389 135/418/135 408/419/408
f 429/420/429 391/421/391 126/422/126 378/423/378
f 428/424/428 373/401/373 125/342/125 383/425/383
f 427/426/427 369/427/369 121/428/121 379/429/379
f 426/430/426 402/431/402 139/432/139 414/433/414
f 425/434/425 404/435/404 133/436/133 397/437/397
f 424/438/424 390/411/390 132/396/132 395/439/395
f 4/440/4 408/419/408 144/441/144
f 423/442/423 389/417/389 131/402/131 398/443/398
f 422/444/422 388/445/388 130/446/130 399/447/399
f 421/448/421 411/449/411 1/450/1 142/451/142
f 420/452/420 413/453/413 138/454/138 406/455/406
f 419/456/419 401/457/401 135/418/135 409/458/409
f 418/459/418 402/431/402 136/412/136 407/460/407
f 413/453/413 418/459/418 407/460/407 138/454/138
f 141/10/141 417/9/417 418/459/418 413/453/413
f 417/9/417 139/432/139 402/431/402 418/459/418
f 403/461/403 419/456/419 409/458/409 137/462/137
f 140/463/140 416/464/416 419/456/419 403/461/403
f 416/464/416 3/465/3 401/457/401 419/456/419
f 400/15/400 420/452/420 406/455/406 134/466/134
f 31/14/31 415/467/415 420/452/420 400/15/400
f 415/467/415 141/10/141 413/453/413 420/452/420
f 412/3/412 421/448/421 142/451/142 2/1/2
f 140/463/140 414/433/414 421/448/421 412/3/412
f 414/433/414 139/432/139 411/449/411 421/448/421
f 178/18/178 422/444/422 399/447/399 127/468/127
f 30/17/30 410/469/410 422/444/422 178/18/178
f 410/469/410 134/466/134 388/445/388 422/444/422
f 387/470/387 423/442/423 398/443/398 129/471/129
f 137/462/137 409/458/409 423/442/423 387/470/387
f 409/458/409 135/418/135 389/417/389 423/442/423
f 144/441/144 401/457/401 3/465/3
f 144/441/144 408/419/408 401/457/401
f 408/419/408 135/418/135 401/457/401
f 404/435/404 424/438/424 395/439/395 133/436/133
f 138/454/138 407/460/407 424/438/424 404/435/404
f 407/460/407 136/412/136 390/411/390 424/438/424
f 388/445/388 425/434/425 397/437/397 130/446/130
f 134/466/134 406/455/406 425/434/425 388/445/388
f 406/455/406 138/454/138 404/435/404 425/434/425
f 403/461/403 426/430/426 414/433/414 140/463/140
f 137/462/137 405/413/405 426/430/426 403/461/403
f 405/413/405 136/412/136 402/431/402 426/430/426
f 385/407/385 427/426/427 379/429/379 120/408/120
f 127/468/127 399/447/399 427/426/427 385/407/385
f 399/447/399 130/446/130 369/427/369 427/426/427
f 372/472/372 428/424/428 383/425/383 124/473/124
f 129/471/129 398/443/398 428/424/428 372/472/372
f 398/443/398 131/402/131 373/401/373 428/424/428
f 369/427/369 429/420/429 378/423/378 121/428/121
f 130/446/130 397/437/397 429/420/429 369/427/369
f 397/437/397 133/436/133 391/421/391 429/420/429
f 183/474/183 430/416/430 408/419/408 4/440/4
f 128/376/128 396/403/396 430/416/430 183/474/183
f 396/403/396 131/402/131 389/417/389 430/416/430
f 391/421/391 431/414/431 376/415/376 126/422/126
f 133/436/133 395/439/395 431/414/431 391/421/391
f 395/439/395 132/396/132 370/395/370 431/414/431
f 387/470/387 432/410/432 405/413/405 137/462/137
f 129/471/129 394/397/394 432/410/432 387/470/387
f 394/397/394 132/396/132 390/411/390 432/410/432
f 366/21/366 433/406/433 380/409/380 118/475/118
f 29/20/29 393/476/393 433/406/433 366/21/366
f 393/476/393 127/468/127 385/407/385 433/406/433
f 145/405/145 183/474/183 4/440/4
f 145/405/145 392/377/392 183/474/183
f 392/377/392 128/376/128 183/474/183
f 386/375/386 434/400/434 396/403/396 128/376/128
f 123/354/123 384/343/384 434/400/434 386/375/386
f 384/343/384 125/342/125 373/401/373 434/400/434
f 352/477/352 435/398/435 364/399/364 116/478/116
f 124/473/124 383/425/383 435/398/435 352/477/352
f 383/425/383 125/342/125 348/341/348 435/398/435
f 372/472/372 436/394/436 394/397/394 129/471/129
f 124/473/124 382/369/382 436/394/436 372/472/372
f 382/369/382 122/368/122 370/395/370 436/394/436
f 180/24/180 437/390/437 363/393/363 114/479/114
f 28/23/28 381/480/381 437/390/437 180/24/180
f 381/480/381 118/475/118 349/391/349 437/390/437
f 349/391/349 438/386/438 359/389/359 113/392/113
f 118/475/118 380/409/380 438/386/438 349/391/349
f 380/409/380 120/408/120 368/387/368 438/386/438
f 368/387/368 439/382/439 357/385/357 110/388/110
f 120/408/120 379/429/379 439/382/439 368/387/368
f 379/429/379 121/428/121 351/383/351 439/382/439
f 351/383/351 440/378/440 356/381/356 115/384/115
f 121/428/121 378/423/378 440/378/440 351/383/351
f 378/423/378 126/422/126 374/379/374 440/378/440
f 367/481/367 441/374/441 392/377/392 5/404/5
f 119/350/119 377/355/377 441/374/441 367/481/367
f 377/355/377 123/354/123 386/375/386 441/374/441
f 374/379/374 442/372/442 355/373/355 117/380/117
f 126/422/126 376/415/376 442/372/442 374/379/374
f 376/415/376 122/368/122 345/367/345 442/372/442
f 146/371/146 367/481/367 5/404/5
f 146/371/146 375/351/375 367/481/367
f 375/351/375 119/350/119 367/481/367
f 352/477/352 443/366/443 382/369/382 124/473/124
f 116/478/116 365/98/365 443/366/443 352/477/352
f 365/98/365 109/97/109 345/367/345 443/366/443
f 195/482/195 444/364/444 212/365/212 41/483/41
f 116/478/116 364/399/364 444/364/444 195/482/195
f 364/399/364 112/46/112 198/45/198 444/364/444
f 350/357/350 445/360/445 209/363/209 40/358/40
f 114/479/114 363/393/363 445/360/445 350/357/350
f 363/393/363 113/392/113 192/361/192 445/360/445
f 196/27/196 446/356/446 210/359/210 42/484/42
f 27/26/27 362/485/362 446/356/446 196/27/196
f 362/485/362 114/479/114 350/357/350 446/356/446
f 343/349/343 447/352/447 377/355/377 119/350/119
f 107/50/107 361/55/361 447/352/447 343/349/343
f 361/55/361 108/54/108 371/353/371 447/352/447
f 185/486/185 448/348/448 375/351/375 6/370/6
f 111/66/111 360/51/360 448/348/448 185/486/185
f 360/51/360 107/50/107 343/349/343 448/348/448
f 192/361/192 449/344/449 208/347/208 38/362/38
f 113/392/113 359/389/359 449/344/449 192/361/192
f 359/389/359 110/388/110 346/345/346 449/344/449
f 371/353/371 450/340/450 384/343/384 123/354/123
f 108/54/108 358/47/358 450/340/450 371/353/371
f 358/47/358 112/46/112 348/341/348 450/340/450
f 346/345/346 451/336/451 203/339/203 36/346/36
f 110/388/110 357/385/357 451/336/451 346/345/346
f 357/385/357 115/384/115 188/337/188 451/336/451
f 188/337/188 452/332/452 206/335/206 34/338/34
f 115/384/115 356/381/356 452/332/452 188/337/188
f 356/381/356 117/380/117 353/333/353 452/332/452
f 353/333/353 453/330/453 204/331/204 45/334/45
f 117/380/117 355/373/355 453/330/453 353/333/353
f 355/373/355 109/97/109 197/96/197 453/330/453
f 147/329/147 185/486/185 6/370/6
f 147/329/147 354/67/354 185/486/185
f 354/67/354 111/66/111 185/486/185
f 319/292/319 454/324/454 202/327/202 35/293/35
f 97/112/97 342/105/342 454/324/454 319/292/319
f 342/105/342 99/104/99 187/325/187 454/324/454
f 318/281/318 455/320/455 239/323/239 47/282/47
f 96/77/96 341/59/341 455/320/455 318/281/318
f 341/59/341 106/58/106 214/321/214 455/320/455
f 221/487/221 456/318/456 238/319/238 53/488/53
f 94/489/94 340/94/340 456/318/456 221/487/221
f 340/94/340 104/93/104 226/150/226 456/318/456
f 323/288/323 457/316/457 237/317/237 52/289/52
f 101/70/101 339/63/339 457/316/457 323/288/323
f 339/63/339 102/62/102 225/100/225 457/316/457
f 165/490/165 458/313/458 236/135/236 24/134/24
f 25/491/25 338/90/338 458/313/458 165/490/165
f 338/90/338 105/89/105 223/314/223 458/313/458
f 149/492/149 459/310/459 207/73/207 8/72/8
f 9/493/9 337/125/337 459/310/459 149/492/149
f 337/125/337 103/124/103 325/311/325 459/310/459
f 223/314/223 460/306/460 235/309/235 55/315/55
f 105/89/105 336/86/336 460/306/460 223/314/223
f 336/86/336 95/85/95 317/307/317 460/306/460
f 187/325/187 461/303/461 200/305/200 33/326/33
f 99/104/99 335/151/335 461/303/461 187/325/187
f 335/151/335 104/93/104 326/92/326 461/303/461
f 317/307/317 462/299/462 234/302/234 56/308/56
f 95/85/95 334/82/334 462/299/462 317/307/317
f 334/82/334 100/81/100 218/300/218 462/299/462
f 325/311/325 463/295/463 205/298/205 39/312/39
f 103/124/103 333/117/333 463/295/463 325/311/325
f 333/117/333 98/116/98 191/296/191 463/295/463
f 191/296/191 464/291/464 201/294/201 37/297/37
f 98/116/98 332/113/332 464/291/464 191/296/191
f 332/113/332 97/112/97 319/292/319 464/291/464
f 214/321/214 465/287/465 229/290/229 46/322/46
f 106/58/106 331/71/331 465/287/465 214/321/214
f 331/71/331 101/70/101 323/288/323 465/287/465
f 316/494/316 466/284/466 213/286/213 41/483/41
f 94/489/94 330/101/330 466/284/466 316/494/316
f 330/101/330 102/62/102 324/61/324 466/284/466
f 218/300/218 467/280/467 232/283/232 50/301/50
f 100/81/100 329/78/329 467/280/467 218/300/218
f 329/78/329 96/77/96 318/281/318 467/280/467
f 159/279/159 311/495/311 18/496/18
f 159/279/159 315/265/315 311/495/311
f 315/265/315 93/264/93 311/495/311
f 174/277/174 156/497/156 16/498/16
f 174/277/174 314/261/314 156/497/156
f 314/261/314 15/29/15 156/497/156
f 311/495/311 468/273/468 158/275/158 18/496/18
f 93/264/93 313/268/313 468/273/468 311/495/311
f 313/268/313 91/6/91 175/5/175 468/273/468
f 310/499/310 469/271/469 303/272/303 87/500/87
f 92/276/92 312/7/312 469/271/469 310/499/310
f 312/7/312 91/6/91 309/267/309 469/271/469
f 285/33/285 470/269/470 290/270/290 81/501/81
f 14/32/14 308/502/308 470/269/470 285/33/285
f 308/502/308 89/234/89 301/233/301 470/269/470
f 302/263/302 471/266/471 313/268/313 93/264/93
f 90/254/90 307/245/307 471/266/471 302/263/302
f 307/245/307 88/244/88 309/267/309 471/266/471
f 177/503/177 472/262/472 315/265/315 19/278/19
f 86/248/86 306/255/306 472/262/472 177/503/177
f 306/255/306 90/254/90 302/263/302 472/262/472
f 310/499/310 473/260/473 314/261/314 92/276/92
f 87/500/87 305/235/305 473/260/473 310/499/310
f 305/235/305 89/234/89 182/30/182 473/260/473
f 160/259/160 177/503/177 19/278/19
f 160/259/160 304/249/304 177/503/177
f 304/249/304 86/248/86 177/503/177
f 299/504/299 474/256/474 296/257/296 80/505/80
f 87/500/87 303/272/303 474/256/474 299/504/299
f 303/272/303 88/244/88 300/243/300 474/256/474
f 298/247/298 475/252/475 306/255/306 86/248/86
f 79/212/79 297/217/297 475/252/475 298/247/298
f 297/217/297 84/216/84 288/253/288 475/252/475
f 284/506/284 476/250/476 273/251/273 75/507/75
f 80/505/80 296/257/296 476/250/476 284/506/284
f 296/257/296 83/226/83 287/225/287 476/250/476
f 286/508/286 477/246/477 304/249/304 20/258/20
f 82/220/82 295/213/295 477/246/477 286/508/286
f 295/213/295 79/212/79 298/247/298 477/246/477
f 288/253/288 478/242/478 307/245/307 90/254/90
f 84/216/84 294/227/294 478/242/478 288/253/288
f 294/227/294 83/226/83 300/243/300 478/242/478
f 184/36/184 479/238/479 275/241/275 71/509/71
f 13/35/13 293/510/293 479/238/479 184/36/184
f 293/510/293 81/501/81 267/239/267 479/238/479
f 161/237/161 286/508/286 20/258/20
f 161/237/161 292/221/292 286/508/286
f 292/221/292 82/220/82 286/508/286
f 299/504/299 480/232/480 305/235/305 87/500/87
f 80/505/80 291/201/291 480/232/480 299/504/299
f 291/201/291 85/200/85 301/233/301 480/232/480
f 267/239/267 481/230/481 282/231/282 73/240/73
f 81/501/81 290/270/290 481/230/481 267/239/267
f 290/270/290 85/200/85 289/199/289 481/230/481
f 243/203/243 482/228/482 252/229/252 61/204/61
f 73/240/73 282/231/282 482/228/482 243/203/243
f 282/231/282 78/169/78 272/168/272 482/228/482
f 268/215/268 483/224/483 294/227/294 84/216/84
f 74/181/74 281/162/281 483/224/483 268/215/268
f 281/162/281 77/161/77 287/225/287 483/224/483
f 162/223/162 179/511/179 21/236/21
f 162/223/162 280/193/280 179/511/179
f 280/193/280 72/192/72 179/511/179
f 179/511/179 484/218/484 292/221/292 21/236/21
f 72/192/72 279/189/279 484/218/484 179/511/179
f 279/189/279 70/188/70 264/219/264 484/218/484
f 283/211/283 485/214/485 297/217/297 79/212/79
f 76/177/76 278/182/278 485/214/485 283/211/283
f 278/182/278 74/181/74 268/215/268 485/214/485
f 264/219/264 486/210/486 295/213/295 82/220/82
f 70/188/70 277/178/277 486/210/486 264/219/264
f 277/178/277 76/177/76 283/211/283 486/210/486
f 245/39/245 487/206/487 255/209/255 63/512/63
f 12/38/12 276/513/276 487/206/487 245/39/245
f 276/513/276 71/509/71 265/207/265 487/206/487
f 265/207/265 488/202/488 253/205/253 62/208/62
f 71/509/71 275/241/275 488/202/488 265/207/265
f 275/241/275 73/240/73 243/203/243 488/202/488
f 284/506/284 489/198/489 291/201/291 80/505/80
f 75/507/75 274/170/274 489/198/489 284/506/284
f 274/170/274 78/169/78 289/199/289 489/198/489
f 269/514/269 490/196/490 260/197/260 66/515/66
f 75/507/75 273/251/273 490/196/490 269/514/269
f 273/251/273 77/161/77 271/160/271 490/196/490
f 163/195/163 247/516/247 22/222/22
f 163/195/163 263/133/263 247/516/247
f 263/133/263 65/132/65 247/516/247
f 247/516/247 491/190/491 280/193/280 22/222/22
f 65/132/65 262/129/262 491/190/491 247/516/247
f 262/129/262 64/128/64 266/191/266 491/190/491
f 266/191/266 492/186/492 279/189/279 72/192/72
f 64/128/64 261/121/261 492/186/492 266/191/266
f 261/121/261 59/120/59 241/187/241 492/186/492
f 248/517/248 493/183/493 227/185/227 53/488/53
f 66/515/66 260/197/260 493/183/493 248/517/248
f 260/197/260 67/139/67 249/138/249 493/183/493
f 270/176/270 494/179/494 278/182/278 76/177/76
f 60/147/60 259/109/259 494/179/494 270/176/270
f 259/109/259 68/108/68 250/180/250 494/179/494
f 241/187/241 495/175/495 277/178/277 70/188/70
f 59/120/59 258/148/258 495/175/495 241/187/241
f 258/148/258 60/147/60 270/176/270 495/175/495
f 186/42/186 496/171/496 231/174/231 51/518/51
f 11/41/11 257/519/257 496/171/496 186/42/186
f 257/519/257 63/512/63 217/172/217 496/171/496
f 269/514/269 497/167/497 274/170/274 75/507/75
f 66/515/66 256/144/256 497/167/497 269/514/269
f 256/144/256 69/143/69 272/168/272 497/167/497
f 217/172/217 498/163/498 230/166/230 49/173/49
f 63/512/63 255/209/255 498/163/498 217/172/217
f 255/209/255 62/208/62 244/164/244 498/163/498
f 250/180/250 499/159/499 281/162/281 74/181/74
f 68/108/68 254/140/254 499/159/499 250/180/250
f 254/140/254 67/139/67 271/160/271 499/159/499
f 244/164/244 500/155/500 228/158/228 48/165/48
f 62/208/62 253/205/253 500/155/500 244/164/244
f 253/205/253 61/204/61 222/156/222 500/155/500
f 222/156/222 501/152/501 240/154/240 54/157/54
f 61/204/61 252/229/252 501/152/501 222/156/222
f 252/229/252 69/143/69 251/142/251 501/152/501
f 321/103/321 502/149/502 335/151/335 99/104/99
f 54/157/54 240/154/240 502/149/502 321/103/321
f 240/154/240 58/153/58 226/150/226 502/149/502
f 215/119/215 503/145/503 258/148/258 59/120/59
f 47/282/47 239/323/239 503/145/503 215/119/215
f 239/323/239 46/322/46 242/146/242 503/145/503
f 248/517/248 504/141/504 256/144/256 66/515/66
f 53/488/53 238/319/238 504/141/504 248/517/248
f 238/319/238 58/153/58 251/142/251 504/141/504
f 220/107/220 505/137/505 254/140/254 68/108/68
f 52/289/52 237/317/237 505/137/505 220/107/220
f 237/317/237 57/184/57 249/138/249 505/137/505
f 164/136/164 181/520/181 23/194/23
f 164/136/164 236/135/236 181/520/181
f 236/135/236 55/315/55 181/520/181
f 181/520/181 506/130/506 263/133/263 23/194/23
f 55/315/55 235/309/235 506/130/506 181/520/181
f 235/309/235 56/308/56 224/131/224 506/130/506
f 224/131/224 507/126/507 262/129/262 65/132/65
f 56/308/56 234/302/234 507/126/507 224/131/224
f 234/302/234 50/301/50 246/127/246 507/126/507
f 150/521/150 508/122/508 337/125/337 9/493/9
f 10/522/10 233/523/233 508/122/508 150/521/150
f 233/523/233 51/518/51 219/123/219 508/122/508
f 246/127/246 509/118/509 261/121/261 64/128/64
f 50/301/50 232/283/232 509/118/509 246/127/246
f 232/283/232 47/282/47 215/119/215 509/118/509
f 219/123/219 510/114/510 333/117/333 103/124/103
f 51/518/51 231/174/231 510/114/510 219/123/219
f 231/174/231 49/173/49 320/115/320 510/114/510
f 320/115/320 511/110/511 332/113/332 98/116/98
f 49/173/49 230/166/230 511/110/511 320/115/320
f 230/166/230 48/165/48 216/111/216 511/110/511
f 242/146/242 512/106/512 259/109/259 60/147/60
f 46/322/46 229/290/229 512/106/512 242/146/242
f 229/290/229 52/289/52 220/107/220 512/106/512
f 216/111/216 513/102/513 342/105/342 97/112/97
f 48/165/48 228/158/228 513/102/513 216/111/216
f 228/158/228 54/157/54 321/103/321 513/102/513
f 221/487/221 514/99/514 330/101/330 94/489/94
f 53/488/53 227/185/227 514/99/514 221/487/221
f 227/185/227 57/184/57 225/100/225 514/99/514
f 195/482/195 515/95/515 365/98/365 116/478/116
f 41/483/41 213/286/213 515/95/515 195/482/195
f 213/286/213 43/285/43 197/96/197 515/95/515
f 316/494/316 516/91/516 340/94/340 94/489/94
f 41/483/41 212/365/212 516/91/516 316/494/316
f 212/365/212 44/304/44 326/92/326 516/91/516
f 166/524/166 517/87/517 338/90/338 25/491/25
f 26/525/26 211/526/211 517/87/517 166/524/166
f 211/526/211 42/484/42 327/88/327 517/87/517
f 327/88/327 518/83/518 336/86/336 105/89/105
f 42/484/42 210/359/210 518/83/518 327/88/327
f 210/359/210 40/358/40 194/84/194 518/83/518
f 194/84/194 519/79/519 334/82/334 95/85/95
f 40/358/40 209/363/209 519/79/519 194/84/194
f 209/363/209 38/362/38 322/80/322 519/79/519
f 322/80/322 520/75/520 329/78/329 100/81/100
f 38/362/38 208/347/208 520/75/520 322/80/322
f 208/347/208 36/346/36 190/76/190 520/75/520
f 148/74/148 193/527/193 7/328/7
f 148/74/148 207/73/207 193/527/193
f 207/73/207 39/312/39 193/527/193
f 328/57/328 521/68/521 331/71/331 106/58/106
f 34/338/34 206/335/206 521/68/521 328/57/328
f 206/335/206 45/334/45 199/69/199 521/68/521
f 193/527/193 522/64/522 354/67/354 7/328/7
f 39/312/39 205/298/205 522/64/522 193/527/193
f 205/298/205 37/297/37 347/65/347 522/64/522
f 199/69/199 523/60/523 339/63/339 101/70/101
f 45/334/45 204/331/204 523/60/523 199/69/199
f 204/331/204 43/285/43 324/61/324 523/60/523
f 190/76/190 524/56/524 341/59/341 96/77/96
f 36/346/36 203/339/203 524/56/524 190/76/190
f 203/339/203 34/338/34 328/57/328 524/56/524
f 189/49/189 525/52/525 361/55/361 107/50/107
f 35/293/35 202/327/202 525/52/525 189/49/189
f 202/327/202 33/326/33 344/53/344 525/52/525
f 347/65/347 526/48/526 360/51/360 111/66/111
f 37/297/37 201/294/201 526/48/526 347/65/347
f 201/294/201 35/293/35 189/49/189 526/48/526
f 344/53/344 527/44/527 358/47/358 108/54/108
f 33/326/33 200/305/200 527/44/527 344/53/344
f 200/305/200 44/304/44 198/45/198 527/44/527
f 151/43/151 233/523/233 10/522/10
f 151/43/151 186/42/186 233/523/233
f 186/42/186 51/518/51 233/523/233
f 152/40/152 257/519/257 11/41/11
f 152/40/152 245/39/245 257/519/257
f 245/39/245 63/512/63 257/519/257
f 153/37/153 276/513/276 12/38/12
f 153/37/153 184/36/184 276/513/276
f 184/36/184 71/509/71 276/513/276
f 154/34/154 293/510/293 13/35/13
f 154/34/154 285/33/285 293/510/293
f 285/33/285 81/501/81 293/510/293
f 155/31/155 308/502/308 14/32/14
f 155/31/155 182/30/182 308/502/308
f 182/30/182 89/234/89 308/502/308
f 167/28/167 211/526/211 26/525/26
f 167/28/167 196/27/196 211/526/211
f 196/27/196 42/484/42 211/526/211
f 168/25/168 362/485/362 27/26/27
f 168/25/168 180/24/180 362/485/362
f 180/24/180 114/479/114 362/485/362
f 169/22/169 381/480/381 28/23/28
f 169/22/169 366/21/366 381/480/381
f 366/21/366 118/475/118 381/480/381
f 170/19/170 393/476/393 29/20/29
f 170/19/170 178/18/178 393/476/393
f 178/18/178 127/468/127 393/476/393
f 171/16/171 410/469/410 30/17/30
f 171/16/171 400/15/400 410/469/410
f 400/15/400 134/466/134 410/469/410
f 172/13/172 415/467/415 31/14/31
f 172/13/172 176/11/176 415/467/415
f 176/11/176 141/10/141 415/467/415
f 173/528/173 528/8/528 176/11/176 32/12/32
f 1/450/1 411/449/411 528/8/528 173/528/173
f 411/449/411 139/432/139 417/9/417 528/8/528
f 174/277/174 529/4/529 312/7/312 92/276/92
f 16/498/16 157/529/157 529/4/529 174/277/174
f 157/529/157 17/274/17 175/5/175 529/4/529
f 412/3/412 416/464/416 140/463/140
f 412/3/412 143/2/143 416/464/416
f 143/2/143 3/465/3 416/464/416
f 152/40/152 11/41/11 540/530/540 572/531/572
f 25/491/25 165/490/165 585/532/585 554/533/554
f 153/37/153 12/38/12 541/534/541 573/535/573
f 26/525/26 166/524/166 586/536/586 555/537/555
f 154/34/154 13/35/13 542/538/542 574/539/574
f 27/26/27 167/28/167 587/540/587 556/541/556
f 155/31/155 14/32/14 543/542/543 575/543/575
f 28/23/28 168/25/168 588/544/588 557/545/557
f 2/1/2 142/451/142 562/546/562 531/547/531
f 156/497/156 15/29/15 544/548/544 576/549/576
f 29/20/29 169/22/169 589/550/589 558/551/558
f 3/465/3 143/2/143 563/552/563 532/553/532
f 157/529/157 16/498/16 545/554/545 577/555/577
f 30/17/30 170/19/170 590/556/590 559/557/559
f 4/440/4 144/441/144 564/558/564 533/559/533
f 158/275/158 17/274/17 546/560/546 578/561/578
f 31/14/31 171/16/171 591/562/591 560/563/560
f 5/404/5 145/405/145 565/564/565 534/565/534
f 159/279/159 18/496/18 547/566/547 579/567/579
f 32/12/32 172/13/172 592/568/592 561/569/561
f 6/370/6 146/371/146 566/570/566 535/571/535
f 160/259/160 19/278/19 548/572/548 580/573/580
f 1/450/1 173/528/173 593/574/593 530/575/530
f 7/328/7 147/329/147 567/576/567 536/577/536
f 161/237/161 20/258/20 549/578/549 581/579/581
f 162/223/162 21/236/21 550/580/550 582/581/582
f 8/72/8 148/74/148 568/582/568 537/583/537
f 163/195/163 22/222/22 551/584/551 583/585/583
f 9/493/9 149/492/149 569/586/569 538/587/538
f 164/136/164 23/194/23 552/588/552 584/589/584
f 10/522/10 150/521/150 570/590/570 539/591/539
f 165/490/165 24/134/24 553/592/553 585/532/585
f 11/41/11 151/43/151 571/593/571 540/530/540
f 166/524/166 25/491/25 554/533/554 586/536/586
f 12/38/12 152/40/152 572/531/572 541/534/541
f 167/28/167 26/525/26 555/537/555 587/540/587
f 13/35/13 153/37/153 573/535/573 542/538/542
f 168/25/168 27/26/27 556/541/556 588/544/588
f 14/32/14 154/34/154 574/539/574 543/542/543
f 142/451/142 1/450/1 530/575/530 562/546/562
f 169/22/169 28/23/28 557/545/557 589/550/589
f 15/29/15 155/31/155 575/543/575 544/548/544
f 143/2/143 2/1/2 531/547/531 563/552/563
f 16/498/16 156/497/156 576/549/576 545/554/545
f 170/19/170 29/20/29 558/551/558 590/556/590
f 144/441/144 3/465/3 532/553/532 564/558/564
f 17/274/17 157/529/157 577/555/577 546/560/546
f 171/16/171 30/17/30 559/557/559 591/562/591
f 145/405/145 4/440/4 533/559/533 565/564/565
f 18/496/18 158/275/158 578/561/578 547/566/547
f 172/13/172 31/14/31 560/563/560 592/568/592
f 146/371/146 5/404/5 534/565/534 566/570/566
f 19/278/19 159/279/159 579/567/579 548/572/548
f 173/528/173 32/12/32 561/569/561 593/574/593
f 147/329/147 6/370/6 535/571/535 567/576/567
f 20/258/20 160/259/160 580/573/580 549/578/549
f 148/74/148 7/328/7 536/577/536 568/582/568
f 21/236/21 161/237/161 581/579/581 550/580/550
f 149/492/149 8/72/8 537/583/537 569/586/569
f 22/222/22 162/223/162 582/581/582 551/584/551
f 150/521/150 9/493/9 538/587/538 570/590/570
f 23/194/23 163/195/163 583/585/583 552/588/552
f 151/43/151 10/522/10 539/591/539 571/593/571
f 24/134/24 164/136/164 584/589/584 553/592/553
f 562/546/562 530/575/530 593/574/593 561/569/561 592/568/592 560/563/560 591/562/591 559/557/559 590/556/590 558/551/558 589/550/589 557/545/557 588/544/588 556/541/556 587/540/587 555/537/555 586/536/586 554/533/554 585/532/585 553/592/553 584/589/584 552/588/552 583/585/583 551/584/551 582/581/582 550/580/550 581/579/581 549/578/549 580/573/580 548/572/548 579/567/579 547/566/547 578/561/578 546/560/546 577/555/577 545/554/545 576/549/576 544/548/544 575/543/575 543/542/543 574/539/574 542/538/542 573/535/573 541/534/541 572/531/572 540/530/540 571/593/571 539/591/539 570/590/570 538/587/538 569/586/569 537/583/537 568/582/568 536/577/536 567/576/567 535/571/535 566/570/566 534/565/534 565/564/565 533/559/533 564/558/564 532/553/532 563/552/563 531/547/531
