# Blender 5.1.2
# www.blender.org
mtllib Grass.mtl
o Grass
v -1.464875 -0.000104 -1.626017
v 1.463095 -0.000104 1.628250
v -1.464875 3.135189 -1.626017
v 1.463095 3.135189 1.628249
v -1.464875 2.508131 -1.626017
v -1.464875 1.881072 -1.626017
v -1.464875 1.254013 -1.626017
v -1.464875 0.626955 -1.626017
v 1.463095 0.626955 1.628250
v 1.463095 1.254013 1.628249
v 1.463095 1.881072 1.628249
v 1.463095 2.508131 1.628249
v -0.879282 -0.000104 -0.975164
v -0.293688 -0.000104 -0.324310
v 0.291907 -0.000104 0.326543
v 0.877501 -0.000104 0.977396
v 0.877501 3.135189 0.977396
v 0.291907 3.135189 0.326543
v -0.293687 3.135189 -0.324310
v -0.879281 3.135189 -0.975164
v 0.877501 0.626955 0.977396
v 0.291907 0.626955 0.326543
v -0.293687 0.626955 -0.324310
v -0.879281 0.626955 -0.975164
v 0.877501 1.254013 0.977396
v 0.291907 1.254013 0.326543
v -0.293687 1.254013 -0.324310
v -0.879281 1.254013 -0.975164
v 0.877501 1.881072 0.977396
v 0.291907 1.881072 0.326543
v -0.293687 1.881072 -0.324310
v -0.879281 1.881072 -0.975164
v 0.877501 2.508131 0.977396
v 0.291907 2.508131 0.326543
v -0.293687 2.508131 -0.324310
v -0.879281 2.508131 -0.975164
v -2.189683 -0.000104 0.001117
v 2.187902 -0.000104 0.001116
v -2.189683 3.135189 0.001116
v 2.187902 3.135189 0.001116
v -2.189683 2.508131 0.001116
v -2.189683 1.881072 0.001116
v -2.189683 1.254013 0.001116
v -2.189683 0.626955 0.001117
v 2.187902 0.626955 0.001116
v 2.187902 1.254013 0.001116
v 2.187902 1.881072 0.001116
v 2.187902 2.508130 0.001116
v -1.314166 -0.000104 0.001117
v -0.438649 -0.000104 0.001116
v 0.436868 -0.000104 0.001116
v 1.312385 -0.000104 0.001116
v 1.312385 3.135189 0.001116
v 0.436868 3.135189 0.001116
v -0.438649 3.135189 0.001116
v -1.314166 3.135189 0.001116
v 1.312385 0.626955 0.001116
v 0.436868 0.626955 0.001116
v -0.438649 0.626955 0.001116
v -1.314166 0.626955 0.001116
v 1.312385 1.254013 0.001116
v 0.436868 1.254013 0.001116
v -0.438649 1.254013 0.001116
v -1.314166 1.254013 0.001116
v 1.312385 1.881072 0.001116
v 0.436868 1.881072 0.001116
v -0.438649 1.881072 0.001116
v -1.314166 1.881072 0.001116
v 1.312385 2.508131 0.001116
v 0.436868 2.508131 0.001116
v -0.438649 2.508131 0.001116
v -1.314166 2.508131 0.001116
v 1.235109 -0.000104 -1.805295
v -1.236890 -0.000104 1.807527
v 1.235110 3.135189 -1.805295
v -1.236890 3.135189 1.807527
v 1.235109 2.508131 -1.805295
v 1.235109 1.881072 -1.805295
v 1.235109 1.254013 -1.805295
v 1.235109 0.626955 -1.805295
v -1.236890 0.626955 1.807527
v -1.236890 1.254013 1.807527
v -1.236890 1.881072 1.807527
v -1.236890 2.508131 1.807527
v 0.740709 -0.000104 -1.082730
v 0.246310 -0.000104 -0.360166
v -0.248090 -0.000104 0.362398
v -0.742490 -0.000104 1.084963
v -0.742490 3.135189 1.084963
v -0.248090 3.135189 0.362399
v 0.246310 3.135189 -0.360166
v 0.740710 3.135190 -1.082730
v -0.742490 0.626955 1.084963
v -0.248090 0.626955 0.362398
v 0.246310 0.626955 -0.360166
v 0.740709 0.626955 -1.082730
v -0.742490 1.254013 1.084963
v -0.248090 1.254013 0.362399
v 0.246310 1.254013 -0.360166
v 0.740709 1.254013 -1.082730
v -0.742490 1.881072 1.084963
v -0.248090 1.881072 0.362399
v 0.246310 1.881072 -0.360166
v 0.740710 1.881072 -1.082730
v -0.742490 2.508131 1.084963
v -0.248090 2.508131 0.362399
v 0.246310 2.508131 -0.360166
v 0.740710 2.508131 -1.082730
vn -0.7434 -0.0000 0.6689
vn -0.0000 -0.0000 1.0000
vn -0.8253 -0.0000 -0.5647
vt 0.800000 0.800000
vt 1.000000 0.800000
vt 1.000000 1.000000
vt 0.800000 1.000000
vt 0.800000 0.000000
vt 1.000000 0.000000
vt 1.000000 0.200000
vt 0.800000 0.200000
vt 1.000000 0.400000
vt 0.800000 0.400000
vt 1.000000 0.600000
vt 0.800000 0.600000
vt 0.000000 0.600000
vt 0.200000 0.600000
vt 0.200000 0.800000
vt 0.000000 0.800000
vt 0.400000 0.600000
vt 0.400000 0.800000
vt 0.600000 0.600000
vt 0.600000 0.800000
vt 0.000000 0.400000
vt 0.200000 0.400000
vt 0.400000 0.400000
vt 0.600000 0.400000
vt 0.000000 0.200000
vt 0.200000 0.200000
vt 0.400000 0.200000
vt 0.600000 0.200000
vt 0.000000 0.000000
vt 0.200000 0.000000
vt 0.400000 0.000000
vt 0.600000 0.000000
vt 0.200000 1.000000
vt 0.000000 1.000000
vt 0.400000 1.000000
vt 0.600000 1.000000
s 0
usemtl Grass
f 33/1/1 12/2/1 4/3/1 17/4/1
f 16/5/1 2/6/1 9/7/1 21/8/1
f 21/8/1 9/7/1 10/9/1 25/10/1
f 25/10/1 10/9/1 11/11/1 29/12/1
f 29/12/1 11/11/1 12/2/1 33/1/1
f 6/13/1 32/14/1 36/15/1 5/16/1
f 32/14/1 31/17/1 35/18/1 36/15/1
f 31/17/1 30/19/1 34/20/1 35/18/1
f 30/19/1 29/12/1 33/1/1 34/20/1
f 7/21/1 28/22/1 32/14/1 6/13/1
f 28/22/1 27/23/1 31/17/1 32/14/1
f 27/23/1 26/24/1 30/19/1 31/17/1
f 26/24/1 25/10/1 29/12/1 30/19/1
f 8/25/1 24/26/1 28/22/1 7/21/1
f 24/26/1 23/27/1 27/23/1 28/22/1
f 23/27/1 22/28/1 26/24/1 27/23/1
f 22/28/1 21/8/1 25/10/1 26/24/1
f 1/29/1 13/30/1 24/26/1 8/25/1
f 13/30/1 14/31/1 23/27/1 24/26/1
f 14/31/1 15/32/1 22/28/1 23/27/1
f 15/32/1 16/5/1 21/8/1 22/28/1
f 5/16/1 36/15/1 20/33/1 3/34/1
f 36/15/1 35/18/1 19/35/1 20/33/1
f 35/18/1 34/20/1 18/36/1 19/35/1
f 34/20/1 33/1/1 17/4/1 18/36/1
f 69/1/2 48/2/2 40/3/2 53/4/2
f 52/5/2 38/6/2 45/7/2 57/8/2
f 57/8/2 45/7/2 46/9/2 61/10/2
f 61/10/2 46/9/2 47/11/2 65/12/2
f 65/12/2 47/11/2 48/2/2 69/1/2
f 42/13/2 68/14/2 72/15/2 41/16/2
f 68/14/2 67/17/2 71/18/2 72/15/2
f 67/17/2 66/19/2 70/20/2 71/18/2
f 66/19/2 65/12/2 69/1/2 70/20/2
f 43/21/2 64/22/2 68/14/2 42/13/2
f 64/22/2 63/23/2 67/17/2 68/14/2
f 63/23/2 62/24/2 66/19/2 67/17/2
f 62/24/2 61/10/2 65/12/2 66/19/2
f 44/25/2 60/26/2 64/22/2 43/21/2
f 60/26/2 59/27/2 63/23/2 64/22/2
f 59/27/2 58/28/2 62/24/2 63/23/2
f 58/28/2 57/8/2 61/10/2 62/24/2
f 37/29/2 49/30/2 60/26/2 44/25/2
f 49/30/2 50/31/2 59/27/2 60/26/2
f 50/31/2 51/32/2 58/28/2 59/27/2
f 51/32/2 52/5/2 57/8/2 58/28/2
f 41/16/2 72/15/2 56/33/2 39/34/2
f 72/15/2 71/18/2 55/35/2 56/33/2
f 71/18/2 70/20/2 54/36/2 55/35/2
f 70/20/2 69/1/2 53/4/2 54/36/2
f 105/1/3 84/2/3 76/3/3 89/4/3
f 88/5/3 74/6/3 81/7/3 93/8/3
f 93/8/3 81/7/3 82/9/3 97/10/3
f 97/10/3 82/9/3 83/11/3 101/12/3
f 101/12/3 83/11/3 84/2/3 105/1/3
f 78/13/3 104/14/3 108/15/3 77/16/3
f 104/14/3 103/17/3 107/18/3 108/15/3
f 103/17/3 102/19/3 106/20/3 107/18/3
f 102/19/3 101/12/3 105/1/3 106/20/3
f 79/21/3 100/22/3 104/14/3 78/13/3
f 100/22/3 99/23/3 103/17/3 104/14/3
f 99/23/3 98/24/3 102/19/3 103/17/3
f 98/24/3 97/10/3 101/12/3 102/19/3
f 80/25/3 96/26/3 100/22/3 79/21/3
f 96/26/3 95/27/3 99/23/3 100/22/3
f 95/27/3 94/28/3 98/24/3 99/23/3
f 94/28/3 93/8/3 97/10/3 98/24/3
f 73/29/3 85/30/3 96/26/3 80/25/3
f 85/30/3 86/31/3 95/27/3 96/26/3
f 86/31/3 87/32/3 94/28/3 95/27/3
f 87/32/3 88/5/3 93/8/3 94/28/3
f 77/16/3 108/15/3 92/33/3 75/34/3
f 108/15/3 107/18/3 91/35/3 92/33/3
f 107/18/3 106/20/3 90/36/3 91/35/3
f 106/20/3 105/1/3 89/4/3 90/36/3
