# Blender 5.2.0 LTS
# www.blender.org
mtllib Rabbit.mtl
o Rabbit
v 0.928135 12.233949 -1.251238
v 0.725934 12.752230 -1.251238
v 1.245578 12.333513 -1.219130
v 1.245578 12.733151 -1.219130
v 0.928135 12.233949 -0.651238
v 0.725934 12.752230 -0.651237
v 1.245578 12.333513 -0.683346
v 1.245578 12.733151 -0.683346
v 1.360691 12.231491 -0.873150
v 1.360691 12.227240 -0.951238
v 1.360691 12.231491 -1.029325
v 1.332981 12.820064 -1.085184
v 1.332981 12.855822 -0.951238
v 1.332981 12.820064 -0.817292
v 0.876819 12.249559 -1.101238
v 0.876819 12.238369 -0.951238
v 0.876819 12.249559 -0.801238
v 0.546587 12.849560 -0.748646
v 0.579025 12.872944 -0.951238
v 0.546586 12.849560 -1.153829
v 0.865418 12.446682 -1.251238
v 0.732206 12.548532 -1.251238
v 0.651928 12.650381 -1.251238
v 1.341906 12.642202 -1.219130
v 1.341906 12.551254 -1.219130
v 1.341906 12.460305 -1.219130
v 1.341906 12.642202 -0.683346
v 1.341906 12.551254 -0.683346
v 1.341906 12.460305 -0.683346
v 0.651928 12.650381 -0.651237
v 0.732206 12.548532 -0.651237
v 0.865418 12.446682 -0.651238
v 0.494785 12.699559 -0.682831
v 0.613016 12.549560 -0.748646
v 0.784451 12.399559 -0.801238
v 0.372221 12.838098 -0.951238
v 0.645455 12.436866 -0.951238
v 0.784451 12.370124 -0.951238
v 0.494785 12.699559 -1.219644
v 0.613016 12.549560 -1.153829
v 0.784451 12.399559 -1.101238
v 1.474850 12.686118 -1.085184
v 1.474850 12.552172 -1.085184
v 1.474850 12.418225 -1.085184
v 1.512430 12.686118 -0.951238
v 1.536955 12.552172 -0.951238
v 1.536955 12.418225 -0.951238
v 1.474850 12.686118 -0.817292
v 1.474850 12.552172 -0.817292
v 1.474850 12.418225 -0.817292
v 1.104676 12.333513 -1.219130
v 1.017196 12.775715 -1.219130
v 1.104676 12.333513 -0.683345
v 1.017196 12.775715 -0.683345
v 0.996629 12.882751 -0.817292
v 0.996629 12.918509 -0.951238
v 0.996629 12.882751 -1.085184
v 1.109206 12.190444 -1.017886
v 1.109206 12.179254 -0.951238
v 1.109206 12.190444 -0.884589
v 1.076673 12.460305 -0.619178
v 1.017196 12.551254 -0.619178
v 1.017196 12.642202 -0.619178
v 1.076673 12.460305 -1.283297
v 1.017196 12.551254 -1.283297
v 1.017196 12.642202 -1.283297
v 0.211436 12.774817 -0.791336
v -0.062825 12.673214 -0.951237
v 0.211436 12.774817 -1.111139
v 0.150156 12.689969 -0.889669
v 0.185718 12.605122 -0.866390
v 0.118840 12.652262 -0.951237
v 0.185718 12.605122 -0.951237
v 0.150156 12.689969 -1.012806
v 0.185718 12.605122 -1.036085
v 0.372221 12.802296 -1.137216
v 0.378866 12.586477 -0.765259
v 0.293811 12.694386 -0.765259
v 0.506589 12.434589 -0.951238
v 0.378866 12.586477 -1.137216
v 0.293811 12.694386 -1.137216
v 0.372221 12.802296 -0.765259
v 1.077277 12.116932 -1.273796
v 0.919487 12.115727 -1.273796
v 1.332945 12.129481 -1.112219
v 1.235066 12.129065 -1.231868
v 1.077277 12.116932 -0.628679
v 1.235066 12.129065 -0.670607
v 0.910661 12.127707 -0.846553
v 0.919487 12.115727 -0.628679
v 1.332945 12.129481 -0.790257
v 0.910661 12.127707 -1.055922
v 1.100558 12.129481 -1.050243
v 1.100558 12.129481 -0.852232
v 0.594693 12.176237 -0.778546
v 0.611973 12.158951 -0.711258
v 0.611973 12.158951 -1.191218
v 0.594693 12.176237 -1.123929
v 0.555006 12.116565 -0.785698
v 0.573930 12.113707 -0.705041
v 0.573930 12.113707 -1.197434
v 0.555006 12.116565 -1.116778
v 0.833532 12.204934 -0.685614
v 0.803308 12.114717 -0.646179
v 0.751992 12.122136 -0.822498
v 0.782217 12.221383 -0.794258
v 0.803308 12.114717 -1.256296
v 0.833532 12.204934 -1.216861
v 0.751992 12.122136 -1.079977
v 0.782217 12.221383 -1.108217
v 0.193438 12.394733 -0.951237
v 0.193438 12.394733 -1.006972
v 0.193438 12.394733 -0.895503
v 0.318674 12.367622 -0.951238
v 0.318674 12.382486 -0.829073
v 0.318674 12.382486 -1.073403
v 0.105079 12.224534 -0.951237
v 0.105079 12.224534 -0.992921
v 0.105079 12.224534 -0.909554
v 0.185160 12.171894 -0.951237
v 0.189162 12.182264 -0.859872
v 0.189162 12.182264 -1.042603
v 0.055456 12.168384 -0.951237
v 0.055456 12.168384 -0.992921
v 0.055456 12.168384 -0.909554
v 0.135536 12.168910 -0.951237
v 0.139538 12.168806 -0.859872
v 0.139538 12.168806 -1.042603
v 0.265448 12.928970 -1.027187
v 0.151045 12.953307 -1.025585
v 0.151045 12.953307 -0.876890
v 0.113676 12.955569 -0.951237
v 0.066914 12.806611 -0.808555
v 0.066914 12.806611 -1.093920
v 0.265448 12.928970 -0.875288
v 0.298553 12.926416 -0.951238
v -0.031510 12.705256 -1.036085
v -0.031510 12.705256 -0.866390
v -0.091940 12.785740 -1.019529
v -0.005607 12.908368 -0.882925
v -0.036551 12.921596 -0.951237
v -0.005607 12.908368 -1.019550
v -0.091940 12.785740 -0.882946
v -0.146068 12.759423 -0.951237
v 0.271186 12.910051 -1.038618
v 0.128194 12.944388 -1.036085
v 0.128194 12.944388 -0.866390
v 0.097251 12.957616 -0.951237
v 0.271186 12.910051 -0.863857
v 0.282985 12.930064 -0.951238
v 0.369014 13.020858 -1.062440
v 0.226021 13.055195 -1.059050
v 0.369014 13.020858 -0.840035
v 0.226021 13.055195 -0.843425
v 0.344640 13.026527 -1.046866
v 0.246778 13.050864 -1.044722
v 0.344640 13.026527 -0.855609
v 0.246778 13.050864 -0.857753
v 0.407210 13.110518 -1.075266
v 0.328885 13.129326 -1.073409
v 0.407210 13.110518 -0.827209
v 0.328885 13.129326 -0.829066
v 0.379634 13.104320 -1.062552
v 0.326030 13.117650 -1.061378
v 0.379634 13.104320 -0.839923
v 0.326030 13.117650 -0.841097
v -0.140640 12.698144 -0.951237
v -0.132441 12.706533 -0.973454
v -0.132441 12.706533 -0.929021
v -0.148263 12.727607 -0.969119
v -0.162436 12.720716 -0.951237
v -0.148263 12.727607 -0.933356
vn 0.1336 0.3250 -0.9362
vn 0.5053 0.5352 0.6770
vn -0.0061 0.2648 0.9643
vn -0.2032 0.3413 -0.9177
vn 0.8321 0.0679 0.5504
vn 0.0297 0.7617 -0.6472
vn 0.0297 0.7617 0.6472
vn -0.0762 0.9833 0.1655
vn -0.0762 0.9833 -0.1655
vn -0.2090 0.4053 -0.8900
vn -0.2284 -0.9684 -0.1000
vn -0.2284 -0.9684 0.1000
vn -0.2032 0.3413 0.9177
vn -0.4259 -0.1468 -0.8928
vn -0.9993 -0.0367 -0.0000
vn 0.5053 0.5352 -0.6770
vn 0.6744 0.7136 -0.1898
vn 0.6744 0.7136 0.1898
vn 0.7539 -0.6142 0.2331
vn 0.9072 -0.0000 0.4206
vn 0.9338 0.0855 0.3475
vn 0.7539 -0.6142 -0.2331
vn 0.9072 -0.0000 -0.4206
vn 0.9338 0.0855 -0.3475
vn 0.5672 -0.4977 -0.6561
vn 0.7098 -0.0000 -0.7044
vn -0.8340 -0.5468 -0.0740
vn -0.5177 -0.8090 -0.2785
vn -0.2305 -0.6611 0.7141
vn -0.8340 -0.5468 0.0740
vn -0.5177 -0.8090 0.2785
vn -0.5465 -0.2453 0.8007
vn -0.8395 -0.3589 0.4079
vn -0.4870 -0.6986 0.5242
vn -0.4355 -0.5329 0.7255
vn -0.8395 -0.3589 -0.4079
vn -0.4870 -0.6986 -0.5242
vn -0.4355 -0.5329 -0.7255
vn 0.0505 -0.1724 0.9837
vn -0.1232 -0.1231 0.9847
vn -0.0984 -0.0410 0.9943
vn 0.5672 -0.4977 0.6561
vn 0.7098 -0.0000 0.7044
vn 0.1498 -0.2803 -0.9482
vn 0.2121 0.0693 -0.9748
vn 0.1939 -0.0000 -0.9810
vn -0.0984 -0.0410 -0.9943
vn -0.1232 -0.1231 -0.9847
vn 0.0505 -0.1724 -0.9837
vn 0.1939 -0.0000 0.9810
vn 0.2121 0.0693 0.9748
vn 0.1498 -0.2803 0.9482
vn 0.1710 -0.9797 0.1045
vn 0.1710 -0.9797 -0.1045
vn 0.1697 -0.5940 0.7864
vn 0.1772 0.9509 -0.2538
vn 0.1772 0.9509 0.2538
vn 0.1461 0.7837 0.6038
vn 0.1461 0.7837 -0.6038
vn 0.1318 0.1451 -0.9806
vn 0.1336 0.3250 0.9362
vn -0.0061 0.2648 -0.9643
vn 0.6783 0.7063 0.2027
vn -0.0704 0.4954 0.8658
vn -0.7772 -0.5489 -0.3076
vn -0.7772 -0.5489 0.3076
vn -0.4259 -0.1468 0.8928
vn -0.4717 -0.1357 0.8713
vn -0.5465 -0.2453 -0.8007
vn -0.2305 -0.6611 -0.7141
vn -0.2142 0.9682 0.1296
vn -0.2308 -0.4074 -0.8836
vn -0.1018 -0.8413 0.5309
vn -0.2850 0.3696 0.8844
vn -0.2308 -0.4074 0.8836
vn -0.2142 0.9682 -0.1296
vn -0.1018 -0.8413 -0.5309
vn -0.2850 0.3696 -0.8844
vn 0.0076 -0.9984 -0.0552
vn 0.0076 -0.9984 0.0552
vn 0.0324 -0.9991 0.0263
vn 0.0324 -0.9991 -0.0263
vn -0.2007 0.0417 -0.9788
vn 0.0267 0.2219 0.9747
vn 0.1697 -0.5940 -0.7864
vn -0.2090 0.4053 0.8900
vn -0.2007 0.0417 0.9788
vn 0.0267 0.2219 -0.9747
vn 0.1318 0.1451 0.9806
vn 0.8321 0.0679 -0.5504
vn -0.7753 0.5720 -0.2676
vn -0.7753 0.5720 0.2676
vn 0.0177 -0.9988 0.0448
vn 0.0177 -0.9988 -0.0448
vn -0.2158 0.9400 -0.2644
vn -0.1664 0.2835 -0.9444
vn -0.1664 0.2835 0.9444
vn -0.2158 0.9400 0.2644
vn -0.3124 0.9196 0.2380
vn -0.1562 0.3095 -0.9380
vn 0.0227 -0.9984 -0.0526
vn -0.2692 0.3203 0.9083
vn -0.1562 0.3095 0.9380
vn -0.3124 0.9196 -0.2380
vn 0.0227 -0.9984 0.0526
vn -0.2692 0.3203 -0.9083
vn -0.8875 0.4608 -0.0000
vn -0.4476 0.1567 -0.8804
vn -0.4717 -0.1357 -0.8713
vn 0.5395 -0.6265 -0.5626
vn 0.5395 -0.6265 0.5626
vn -0.7493 0.6622 -0.0000
vn -0.3473 0.4952 0.7963
vn 0.8301 -0.5553 0.0501
vn -0.4476 0.1567 0.8804
vn 0.8301 -0.5553 -0.0501
vn 0.0061 -1.0000 0.0010
vn 0.0061 -1.0000 -0.0010
vn 0.1633 -0.9854 -0.0482
vn -0.3473 0.4952 -0.7963
vn 0.1633 -0.9854 0.0482
vn 0.1730 0.9849 0.0008
vn -0.0600 -0.8910 -0.4501
vn -0.0600 -0.8910 0.4501
vn 0.1730 0.9849 -0.0008
vn -0.2659 0.9262 0.2674
vn -0.3412 0.3839 0.8580
vn 0.6783 0.7063 -0.2027
vn -0.0704 0.4954 -0.8658
vn -0.7489 0.5150 0.4170
vn -0.7489 0.5150 -0.4170
vn -0.5166 -0.2176 0.8281
vn -0.2759 -0.8611 0.4270
vn -0.1302 -0.3930 0.9103
vn -0.2659 0.9262 -0.2674
vn -0.1302 -0.3930 -0.9103
vn -0.3412 0.3839 -0.8580
vn 0.5139 -0.2663 -0.8155
vn -0.1309 0.9798 0.1515
vn -0.1309 0.9798 -0.1515
vn -0.0581 -0.1569 -0.9859
vn 0.6363 0.7288 0.2528
vn 0.6363 0.7288 -0.2528
vn -0.0522 -0.1196 -0.9914
vn 0.0637 0.1696 0.9834
vn -0.4533 0.5611 -0.6926
vn -0.4533 0.5611 0.6926
vn 0.0518 0.1500 0.9873
vn -0.0581 -0.1569 0.9859
vn 0.5139 -0.2663 0.8155
vn 0.0518 0.1500 -0.9873
vn 0.1815 0.6777 0.7126
vn 0.1815 0.6777 -0.7126
vn 0.4778 -0.0596 -0.8764
vn 0.4778 -0.0596 0.8764
vn 0.0637 0.1696 -0.9834
vn -0.0522 -0.1196 0.9914
vn -0.3885 0.6466 -0.6565
vn -0.3885 0.6466 0.6565
vn -0.0224 0.3954 0.9182
vn -0.0224 0.3954 -0.9182
vn -0.6547 -0.5087 0.5591
vn -0.6547 -0.5087 -0.5591
vn -0.7967 0.3369 -0.5017
vn -0.5166 -0.2176 -0.8281
vn -0.2759 -0.8611 -0.4270
vn -0.7967 0.3369 0.5017
vt 0.790688 0.288234
vt 0.784431 0.325450
vt 0.841155 0.321116
vt 0.866042 0.304000
vt 0.906054 0.326196
vt 0.867382 0.357796
vt 0.840933 0.321806
vt 0.865830 0.304564
vt 0.790486 0.289097
vt 0.784213 0.326261
vt 0.707575 0.301315
vt 0.690206 0.267135
vt 0.637882 0.275059
vt 0.646330 0.328808
vt 0.707865 0.300549
vt 0.690496 0.266427
vt 0.906313 0.196803
vt 0.858591 0.232705
vt 0.854808 0.197812
vt 0.874517 0.193594
vt 0.774936 0.374080
vt 0.774696 0.374959
vt 0.645934 0.329557
vt 0.774662 0.417578
vt 0.640130 0.395911
vt 0.774934 0.416611
vt 0.640593 0.395069
vt 0.812209 0.181871
vt 0.817311 0.179438
vt 0.816469 0.176957
vt 0.816418 0.177004
vt 0.859693 0.148328
vt 0.868607 0.130260
vt 0.790845 0.114822
vt 0.794022 0.159559
vt 0.868210 0.131327
vt 0.859314 0.149284
vt 0.793818 0.160378
vt 0.790732 0.115728
vt 0.637534 0.275724
vt 0.860330 0.690883
vt 0.837691 0.640883
vt 0.761118 0.615858
vt 0.795132 0.667124
vt 0.509736 0.243506
vt 0.480342 0.241990
vt 0.478255 0.166965
vt 0.498273 0.163984
vt 0.867484 0.356984
vt 0.906059 0.325586
vt 0.883949 0.397559
vt 0.943904 0.341841
vt 0.944615 0.342587
vt 0.883960 0.398608
vt 0.924030 0.183610
vt 0.960574 0.255138
vt 0.918738 0.256991
vt 0.959011 0.299115
vt 0.915361 0.292259
vt 0.906974 0.196100
vt 0.918647 0.256532
vt 0.961790 0.255848
vt 0.924957 0.182816
vt 0.915660 0.291918
vt 0.957965 0.299155
vt 0.858904 0.232076
vt 0.873772 0.263601
vt 0.870056 0.283683
vt 0.736377 0.126712
vt 0.743566 0.177448
vt 0.684801 0.139555
vt 0.677438 0.220247
vt 0.759159 0.616852
vt 0.792861 0.667261
vt 0.735342 0.675126
vt 0.743382 0.178184
vt 0.736287 0.127463
vt 0.677186 0.220915
vt 0.684672 0.140203
vt 0.590862 0.230796
vt 0.563637 0.273064
vt 0.498112 0.274659
vt 0.809633 0.196781
vt 0.766664 0.227288
vt 0.721371 0.243639
vt 0.766898 0.226582
vt 0.809874 0.196024
vt 0.721634 0.242919
vt 0.830396 0.226636
vt 0.815795 0.251591
vt 0.796333 0.267443
vt 0.873559 0.264185
vt 0.869880 0.284287
vt 0.830673 0.225960
vt 0.816041 0.250940
vt 0.796579 0.266794
vt 0.851544 0.164344
vt 0.874973 0.192853
vt 0.855173 0.197073
vt 0.836238 0.192113
vt 0.857203 0.690450
vt 0.852342 0.767199
vt 0.806364 0.771790
vt 0.800515 0.734712
vt 0.745724 0.733739
vt 0.481011 0.241785
vt 0.473235 0.268018
vt 0.498804 0.274246
vt 0.510278 0.243172
vt 0.472445 0.268319
vt 0.834716 0.641250
vt 0.553396 0.152812
vt 0.564098 0.272502
vt 0.591183 0.230262
vt 0.736743 0.674896
vt 0.570866 0.374799
vt 0.589199 0.312378
vt 0.637213 0.142082
vt 0.589666 0.311715
vt 0.571423 0.374054
vt 0.637376 0.141505
vt 0.851186 0.165212
vt 0.835929 0.192879
vt 0.822029 0.185864
vt 0.825477 0.167223
vt 0.825751 0.166390
vt 0.822299 0.185079
vt 0.817054 0.180237
vt 0.811966 0.182664
vt 0.816161 0.177810
vt 0.816213 0.177763
vt 0.816396 0.176925
vt 0.816450 0.176922
vt 0.816138 0.177731
vt 0.816193 0.177727
vt 0.816786 0.176089
vt 0.816526 0.176896
vt 0.813285 0.175178
vt 0.813035 0.175990
vt 0.478504 0.167151
vt 0.498287 0.163982
vt 0.474561 0.102609
vt 0.461357 0.103760
vt 0.553431 0.152507
vt 0.501225 0.094436
vt 0.574958 0.111436
vt 0.574895 0.111965
vt 0.476669 0.100845
vt 0.462080 0.101448
vt 0.466719 0.076727
vt 0.475904 0.083416
vt 0.502312 0.094036
vt 0.491669 0.088669
vt 0.508872 0.066029
vt 0.507387 0.064841
vt 0.490011 0.089205
vt 0.487901 0.062543
vt 0.462637 0.078483
vt 0.474107 0.084363
vt 0.490520 0.063668
vt 0.801555 0.773153
vt 0.796345 0.742597
vt 0.755476 0.737918
vt 0.732659 0.760729
vt 0.741371 0.589593
vt 0.671219 0.613955
vt 0.696017 0.640718
vt 0.739605 0.591035
vt 0.695083 0.641581
vt 0.670548 0.615291
vt 0.794321 0.741643
vt 0.799562 0.771740
vt 0.731617 0.759736
vt 0.754025 0.737173
vt 0.748259 0.731854
vt 0.725221 0.757617
vt 0.677414 0.728925
vt 0.701312 0.713616
vt 0.859742 0.796194
vt 0.816959 0.937712
vt 0.711693 0.941159
vt 0.609563 0.722036
vt 0.855121 0.768736
vt 0.802654 0.735588
vt 0.808455 0.773228
vt 0.747066 0.734404
vt 0.674297 0.669463
vt 0.641627 0.663108
vt 0.641703 0.662366
vt 0.677776 0.729273
vt 0.702078 0.713827
vt 0.674827 0.668932
vt 0.646646 0.649561
vt 0.652664 0.641365
vt 0.644503 0.635650
vt 0.726178 0.758557
vt 0.749645 0.732500
vt 0.696017 0.640718
vt 0.069931 0.574744
vt 0.158662 0.404738
vt 0.365647 0.438697
vt 0.234941 0.559639
vt 0.694178 0.370797
vt 0.708046 0.375526
vt 0.714633 0.455888
vt 0.698959 0.466230
vt 0.195950 0.705175
vt 0.305733 0.677905
vt 0.278301 0.789632
vt 0.168531 0.817012
vt 0.234384 0.877398
vt 0.174258 0.892396
vt 0.613090 0.425698
vt 0.668499 0.455888
vt 0.650122 0.505262
vt 0.622005 0.488366
vt 0.774205 0.337280
vt 0.785641 0.324421
vt 0.785641 0.420894
vt 0.770042 0.425698
vt 0.597492 0.324420
vt 0.608927 0.337280
vt 0.597492 0.420894
vt 0.675087 0.375526
vt 0.199536 0.670556
vt 0.284206 0.745569
vt 0.256711 0.857387
vt 0.172104 0.782283
vt 0.688955 0.370797
vt 0.684174 0.466230
vt 0.658961 0.522609
vt 0.615799 0.497121
vt 0.733011 0.505262
vt 0.761128 0.488366
vt 0.767333 0.497121
vt 0.724171 0.522609
vt 0.216723 0.921547
vt 0.170379 0.880409
vt 0.637663 0.646576
vt 0.652980 0.640346
vt 0.644719 0.634517
vt 0.637740 0.645579
vt 0.646845 0.648640
s 0
usemtl Material.009
f 66/1/1 52/2/1 4/3/1 24/4/1
f 48/5/2 14/6/2 8/7/2 27/8/2
f 63/9/3 54/10/3 6/11/3 30/12/3
f 39/13/4 20/14/4 2/15/4 23/16/4
f 9/17/5 7/18/5 88/19/5 91/20/5
f 57/21/6 52/2/6 2/15/6 20/14/6
f 54/10/7 55/22/7 18/23/7 6/11/7
f 55/22/8 56/24/8 19/25/8 18/23/8
f 56/26/9 57/21/9 20/14/9 19/27/9
f 108/28/10 107/29/10 101/30/10 97/31/10
f 58/32/11 59/33/11 16/34/11 15/35/11
f 59/36/12 60/37/12 17/38/12 16/39/12
f 30/12/13 6/11/13 18/23/13 33/40/13
f 76/41/14 81/42/14 74/43/14 69/44/14
f 71/45/15 73/46/15 111/47/15 113/48/15
f 24/4/16 4/3/16 12/49/16 42/50/16
f 42/50/17 12/49/17 13/51/17 45/52/17
f 45/53/18 13/54/18 14/6/18 48/5/18
f 10/55/19 47/56/19 50/57/19 9/17/19
f 47/56/20 46/58/20 49/59/20 50/57/20
f 46/58/21 45/53/21 48/5/21 49/59/21
f 11/60/22 44/61/22 47/62/22 10/63/22
f 44/61/23 43/64/23 46/65/23 47/62/23
f 43/64/24 42/50/24 45/52/24 46/65/24
f 3/66/25 26/67/25 44/61/25 11/60/25
f 26/67/26 25/68/26 43/64/26 44/61/26
f 25/68/26 24/4/26 42/50/26 43/64/26
f 16/34/27 38/69/27 41/70/27 15/35/27
f 38/69/28 37/71/28 40/72/28 41/70/28
f 70/73/29 67/74/29 133/75/29
f 17/38/30 35/76/30 38/77/30 16/39/30
f 35/76/31 34/78/31 37/79/31 38/77/31
f 77/80/32 78/81/32 70/82/32 71/45/32
f 5/83/33 32/84/33 35/76/33 17/38/33
f 32/84/34 31/85/34 34/78/34 35/76/34
f 31/85/35 30/12/35 33/40/35 34/78/35
f 15/35/36 41/70/36 21/86/36 1/87/36
f 41/70/37 40/72/37 22/88/37 21/86/37
f 40/72/38 39/13/38 23/16/38 22/88/38
f 53/89/39 61/90/39 32/84/39 5/83/39
f 61/90/40 62/91/40 31/85/40 32/84/40
f 62/91/41 63/9/41 30/12/41 31/85/41
f 9/17/42 50/57/42 29/92/42 7/18/42
f 50/57/43 49/59/43 28/93/43 29/92/43
f 49/59/43 48/5/43 27/8/43 28/93/43
f 51/94/44 64/95/44 26/67/44 3/66/44
f 64/95/45 65/96/45 25/68/45 26/67/45
f 65/96/46 66/1/46 24/4/46 25/68/46
f 22/88/47 23/16/47 66/1/47 65/96/47
f 21/86/48 22/88/48 65/96/48 64/95/48
f 1/87/49 21/86/49 64/95/49 51/94/49
f 28/93/50 27/8/50 63/9/50 62/91/50
f 29/92/51 28/93/51 62/91/51 61/90/51
f 7/18/52 29/92/52 61/90/52 53/89/52
f 10/55/53 9/17/53 60/37/53 59/36/53
f 11/60/54 10/63/54 59/33/54 58/32/54
f 11/60/55 58/32/55 93/97/55 85/98/55
f 13/51/56 12/49/56 57/21/56 56/26/56
f 14/6/57 13/54/57 56/24/57 55/22/57
f 8/7/58 14/6/58 55/22/58 54/10/58
f 12/49/59 4/3/59 52/2/59 57/21/59
f 51/94/60 3/66/60 86/99/60 83/100/60
f 27/8/61 8/7/61 54/10/61 63/9/61
f 23/16/62 2/15/62 52/2/62 66/1/62
f 82/101/63 36/102/63 136/103/63 149/104/63
f 67/74/64 82/101/64 149/104/64 147/105/64
f 73/106/65 72/107/65 74/108/65 75/109/65
f 71/45/66 70/82/66 72/110/66 73/46/66
f 78/111/67 82/101/67 67/74/67 70/73/67
f 77/80/68 71/45/68 113/48/68 115/112/68
f 81/113/69 80/114/69 75/109/69 74/108/69
f 69/44/70 74/43/70 134/115/70
f 18/23/71 19/25/71 36/116/71 82/117/71
f 39/13/72 40/72/72 80/114/72 81/113/72
f 37/79/73 34/78/73 77/80/73 79/118/73
f 33/40/74 18/23/74 82/117/74 78/81/74
f 34/78/75 33/40/75 78/81/75 77/80/75
f 19/27/76 20/14/76 76/119/76 36/120/76
f 40/72/77 37/71/77 79/121/77 80/114/77
f 20/14/78 39/13/78 81/113/78 76/119/78
f 94/122/79 87/123/79 90/124/79 89/125/79
f 83/100/80 93/97/80 92/126/80 84/127/80
f 86/99/81 85/98/81 93/97/81 83/100/81
f 91/20/82 88/19/82 87/123/82 94/122/82
f 17/38/83 60/37/83 94/122/83 89/125/83
f 53/89/84 5/83/84 90/124/84 87/123/84
f 60/37/85 9/17/85 91/20/85 94/122/85
f 104/128/86 103/129/86 96/130/86 100/131/86
f 58/32/87 15/35/87 92/126/87 93/97/87
f 1/87/88 51/94/88 83/100/88 84/127/88
f 7/18/89 53/89/89 87/123/89 88/19/89
f 3/66/90 11/60/90 85/98/90 86/99/90
f 98/132/91 97/31/91 101/30/91 102/133/91
f 96/130/92 95/134/92 99/135/92 100/131/92
f 107/29/93 109/136/93 102/133/93 101/30/93
f 105/137/94 104/128/94 100/131/94 99/135/94
f 110/138/95 108/28/95 97/31/95 98/132/95
f 106/139/96 105/137/96 99/135/96 95/134/96
f 109/136/97 110/138/97 98/132/97 102/133/97
f 103/129/98 106/139/98 95/134/98 96/130/98
f 5/83/99 17/38/99 106/139/99 103/129/99
f 17/38/100 89/125/100 105/137/100 106/139/100
f 89/125/101 90/124/101 104/128/101 105/137/101
f 90/124/102 5/83/102 103/129/102 104/128/102
f 92/126/103 15/35/103 110/138/103 109/136/103
f 15/35/104 1/87/104 108/28/104 110/138/104
f 84/127/105 92/126/105 109/136/105 107/29/105
f 1/87/106 84/127/106 107/29/106 108/28/106
f 111/140/107 112/141/107 118/142/107 117/143/107
f 112/141/108 116/144/108 122/145/108 118/142/108
f 75/109/109 80/114/109 116/144/109 112/141/109
f 80/114/110 79/121/110 114/146/110 116/144/110
f 73/106/15 75/109/15 112/141/15 111/140/15
f 79/118/111 77/80/111 115/112/111 114/147/111
f 119/148/112 117/149/112 123/150/112 125/151/112
f 121/152/113 119/148/113 125/151/113 127/153/113
f 114/147/114 115/112/114 121/152/114 120/154/114
f 115/112/115 113/48/115 119/148/115 121/152/115
f 113/48/107 111/47/107 117/149/107 119/148/107
f 116/144/116 114/146/116 120/155/116 122/145/116
f 128/156/117 126/157/117 123/158/117 124/159/117
f 126/160/118 127/153/118 125/151/118 123/150/118
f 122/145/119 120/155/119 126/157/119 128/156/119
f 118/142/120 122/145/120 128/156/120 124/159/120
f 117/143/112 118/142/112 124/159/112 123/158/112
f 120/154/121 121/152/121 127/153/121 126/160/121
f 150/161/122 129/162/122 130/163/122 132/164/122
f 74/43/123 72/165/123 68/166/123 137/167/123
f 72/168/124 70/73/124 138/169/124 68/170/124
f 135/171/125 150/172/125 132/173/125 131/174/125
f 147/175/126 148/176/126 141/177/126 140/178/126
f 133/179/127 147/180/127 140/181/127 143/182/127
f 36/183/128 76/41/128 145/184/128 136/185/128
f 76/41/129 69/44/129 146/186/129 145/184/129
f 143/187/130 140/178/130 141/177/130 144/188/130
f 144/189/131 141/190/131 142/191/131 139/192/131
f 138/169/132 143/187/132 172/193/132 169/194/132
f 68/170/133 138/169/133 169/194/133 167/195/133
f 70/73/134 133/75/134 143/187/134 138/169/134
f 148/196/135 146/197/135 142/191/135 141/190/135
f 134/115/136 74/43/136 137/198/136 139/192/136
f 146/199/137 134/200/137 139/201/137 142/202/137
f 149/203/138 135/204/138 157/205/138 153/206/138
f 131/174/139 132/173/139 148/176/139 147/175/139
f 132/164/140 130/163/140 146/197/140 148/196/140
f 145/207/141 146/208/141 152/209/141 151/210/141
f 150/172/142 135/171/142 149/104/142 136/103/142
f 129/162/143 150/161/143 136/185/143 145/184/143
f 151/210/144 152/209/144 160/211/144 159/212/144
f 156/213/145 155/214/145 163/215/145 164/216/145
f 131/217/146 147/218/146 154/219/146 158/220/146
f 146/221/147 130/222/147 156/213/147 152/223/147
f 130/222/148 129/224/148 155/214/148 156/213/148
f 147/225/149 149/226/149 153/227/149 154/228/149
f 129/224/150 145/229/150 151/230/150 155/214/150
f 135/204/151 131/217/151 158/220/151 157/205/151
f 164/216/152 163/215/152 159/231/152 160/232/152
f 165/233/153 166/234/153 162/235/153 161/236/153
f 153/206/154 157/205/154 165/233/154 161/236/154
f 155/214/155 151/230/155 159/231/155 163/215/155
f 157/205/156 158/220/156 166/234/156 165/233/156
f 154/228/157 153/227/157 161/237/157 162/238/157
f 158/220/158 154/219/158 162/235/158 166/234/158
f 152/223/159 156/213/159 164/216/159 160/232/159
f 133/75/160 67/74/160 147/105/160
f 134/115/161 146/186/161 69/44/161
f 167/195/162 169/194/162 172/193/162 171/239/162
f 168/240/163 167/241/163 171/242/163 170/243/163
f 144/189/164 139/192/164 170/243/164 171/242/164
f 139/192/165 137/198/165 168/240/165 170/243/165
f 137/167/166 68/166/166 167/241/166 168/240/166
f 143/187/167 144/188/167 171/239/167 172/193/167
